<svg id="Layer_1" enable-background="new 0 0 256 256" height="512" viewBox="0 0 256 256" width="512" xmlns="http://www.w3.org/2000/svg"><path d="m147.712 88.769c0-10.68 1.792-20.038 4.48-25.257-1.776-4.529-2.913-11.452-2.913-19.213 0-13.645 3.509-24.706 7.838-24.706-13.645 0-24.706 11.061-24.706 24.706 0 7.762 3.582 14.684 9.18 19.213-8.472 5.219-14.122 14.577-14.122 25.257v4.941 9.882h20.241v-9.882-4.941z" fill="#89aadb"/><path d="m172.643 63.512c5.598-4.529 9.18-11.452 9.18-19.213 0-13.645-11.061-24.706-24.706-24.706 4.329 0 7.838 11.061 7.838 24.706 0 7.762-1.137 14.684-2.913 19.213 2.688 5.219 4.48 14.577 4.48 25.257v4.941 9.882h20.241v-9.882-4.941c.002-10.68-5.648-20.038-14.12-25.257z" fill="#4b67b0"/><path d="m166.524 88.769c0-10.68-1.793-20.038-4.48-25.257 1.776-4.529 2.913-11.452 2.913-19.213 0-13.645-3.509-24.706-7.838-24.706-4.329 0-7.838 11.061-7.838 24.706 0 7.762 1.137 14.684 2.913 19.213-2.688 5.219-4.48 14.577-4.48 25.257v4.941 9.882h18.812v-9.882-4.941z" fill="#6287c5"/><path d="m157.117 72.004c-15.276 0-27.705-12.429-27.705-27.706s12.429-27.706 27.705-27.706c15.277 0 27.706 12.429 27.706 27.706 0 15.278-12.428 27.706-27.706 27.706zm0-49.411c-11.968 0-21.705 9.737-21.705 21.706 0 11.968 9.737 21.706 21.705 21.706 11.969 0 21.706-9.737 21.706-21.706s-9.737-21.706-21.706-21.706z" fill="#1c2d6b"/><path d="m186.765 106.593h-59.294c-1.657 0-3-1.343-3-3v-14.824c0-11.417 5.812-21.814 15.548-27.811 1.082-.667 2.47-.58 3.46.222 3.901 3.156 8.618 4.825 13.639 4.825s9.738-1.668 13.64-4.825c.99-.801 2.378-.889 3.46-.222 9.735 5.997 15.548 16.394 15.548 27.811v14.824c-.001 1.657-1.344 3-3.001 3zm-56.294-6h53.294v-11.824c0-8.648-4.087-16.58-11.028-21.59-4.581 3.125-10.048 4.826-15.619 4.826s-11.037-1.701-15.618-4.826c-6.941 5.011-11.028 12.942-11.028 21.59v11.824z" fill="#1c2d6b"/><path d="m88.418 88.519c0-10.68 1.792-20.038 4.48-25.257-1.776-4.529-2.913-11.452-2.913-19.213 0-13.645 3.509-24.706 7.838-24.706-13.645 0-24.706 11.061-24.706 24.706 0 7.762 3.582 14.684 9.18 19.213-8.472 5.219-14.122 14.577-14.122 25.257v4.941 9.882h20.241v-9.882-4.941z" fill="#89aadb"/><path d="m113.349 63.261c5.598-4.529 9.18-11.452 9.18-19.213 0-13.645-11.061-24.706-24.706-24.706 4.329 0 7.838 11.061 7.838 24.706 0 7.762-1.137 14.684-2.913 19.213 2.688 5.219 4.48 14.577 4.48 25.257v4.941 9.882h20.241v-9.881-4.941c.002-10.681-5.648-20.039-14.12-25.258z" fill="#4b67b0"/><path d="m107.23 88.519c0-10.68-1.793-20.038-4.48-25.257 1.776-4.529 2.913-11.452 2.913-19.213 0-13.645-3.509-24.706-7.838-24.706-4.329 0-7.838 11.061-7.838 24.706 0 7.762 1.137 14.684 2.913 19.213-2.688 5.219-4.48 14.577-4.48 25.257v4.941 9.882h18.812v-9.882-4.941z" fill="#6287c5"/><path d="m97.823 71.754c-15.277 0-27.706-12.429-27.706-27.706s12.429-27.706 27.706-27.706 27.706 12.429 27.706 27.706-12.428 27.706-27.706 27.706zm0-49.412c-11.969 0-21.706 9.737-21.706 21.706s9.737 21.706 21.706 21.706 21.706-9.737 21.706-21.706c0-11.968-9.737-21.706-21.706-21.706z" fill="#1c2d6b"/><path d="m127.471 106.342h-59.294c-1.657 0-3-1.343-3-3v-14.823c0-11.417 5.812-21.814 15.548-27.812 1.082-.667 2.47-.58 3.46.222 3.901 3.156 8.617 4.825 13.639 4.825s9.738-1.668 13.638-4.825c.992-.802 2.379-.89 3.461-.222 9.736 5.998 15.549 16.395 15.549 27.812v14.824c-.001 1.656-1.344 2.999-3.001 2.999zm-56.294-6h53.294v-11.823c0-8.648-4.087-16.58-11.029-21.591-4.58 3.125-10.047 4.826-15.618 4.826s-11.037-1.701-15.618-4.826c-6.941 5.011-11.028 12.942-11.028 21.591v11.823z" fill="#1c2d6b"/><path d="m118.344 112.268c0-10.68 1.792-20.038 4.48-25.257-1.776-4.529-2.913-11.452-2.913-19.213 0-13.645 3.509-24.706 7.838-24.706-13.645 0-24.706 11.061-24.706 24.706 0 7.762 3.582 14.684 9.18 19.213-8.472 5.219-14.122 14.577-14.122 25.257v4.941 9.882h20.241v-9.882-4.941z" fill="#89aadb"/><path d="m143.275 87.011c5.598-4.529 9.18-11.452 9.18-19.213 0-13.645-11.061-24.706-24.706-24.706 4.329 0 7.838 11.061 7.838 24.706 0 7.762-1.137 14.684-2.913 19.213 2.688 5.219 4.48 14.577 4.48 25.257v4.941 9.882h20.241v-9.882-4.941c.002-10.68-5.648-20.039-14.12-25.257z" fill="#4b67b0"/><path d="m137.156 112.268c0-10.68-1.793-20.038-4.48-25.257 1.776-4.529 2.913-11.452 2.913-19.213 0-13.645-3.509-24.706-7.838-24.706-4.329 0-7.838 11.061-7.838 24.706 0 7.762 1.137 14.684 2.913 19.213-2.688 5.219-4.48 14.577-4.48 25.257v4.941 9.882h18.812v-9.882-4.941z" fill="#6287c5"/><path d="m127.75 95.503c-15.277 0-27.706-12.429-27.706-27.706s12.429-27.706 27.706-27.706 27.706 12.429 27.706 27.706-12.429 27.706-27.706 27.706zm0-49.412c-11.969 0-21.706 9.737-21.706 21.706s9.737 21.706 21.706 21.706 21.706-9.737 21.706-21.706-9.737-21.706-21.706-21.706z" fill="#1c2d6b"/><path d="m157.397 130.091h-59.294c-1.657 0-3-1.343-3-3v-14.823c0-11.417 5.812-21.814 15.549-27.812 1.081-.667 2.47-.58 3.46.222 3.902 3.157 8.618 4.825 13.639 4.825s9.736-1.668 13.639-4.825c.99-.801 2.378-.889 3.46-.222 9.736 5.998 15.549 16.395 15.549 27.812v14.823c-.002 1.657-1.344 3-3.002 3zm-56.294-6h53.295v-11.823c0-8.648-4.087-16.58-11.029-21.591-4.581 3.125-10.048 4.826-15.618 4.826s-11.037-1.701-15.618-4.826c-6.942 5.011-11.029 12.942-11.029 21.591v11.823z" fill="#1c2d6b"/><path d="m52.418 221.834c0-10.68 1.792-20.038 4.48-25.257-1.776-4.529-2.913-11.452-2.913-19.213 0-13.645 3.509-24.706 7.838-24.706-13.645 0-24.706 11.061-24.706 24.706 0 7.762 3.582 14.684 9.18 19.213-8.472 5.219-14.122 14.577-14.122 25.257v4.941 9.882h20.241v-9.882-4.941z" fill="#89aadb"/><path d="m77.349 196.577c5.598-4.529 9.18-11.452 9.18-19.213 0-13.645-11.061-24.706-24.706-24.706 4.329 0 7.838 11.061 7.838 24.706 0 7.762-1.137 14.684-2.913 19.213 2.688 5.219 4.48 14.577 4.48 25.257v4.941 9.882h20.241v-9.882-4.941c.002-10.68-5.648-20.038-14.12-25.257z" fill="#4b67b0"/><path d="m71.23 221.834c0-10.68-1.793-20.038-4.48-25.257 1.776-4.529 2.913-11.452 2.913-19.213 0-13.645-3.509-24.706-7.838-24.706-4.329 0-7.838 11.061-7.838 24.706 0 7.762 1.137 14.684 2.913 19.213-2.688 5.219-4.48 14.577-4.48 25.257v4.941 9.882h18.81v-9.882z" fill="#6287c5"/><path d="m61.823 205.07c-15.277 0-27.706-12.429-27.706-27.706s12.429-27.706 27.706-27.706 27.706 12.429 27.706 27.706-12.428 27.706-27.706 27.706zm0-49.412c-11.969 0-21.706 9.737-21.706 21.706s9.737 21.706 21.706 21.706 21.706-9.737 21.706-21.706-9.737-21.706-21.706-21.706z" fill="#1c2d6b"/><path d="m91.471 239.658h-59.294c-1.657 0-3-1.343-3-3v-14.824c0-11.417 5.812-21.814 15.548-27.811 1.082-.667 2.47-.58 3.46.222 3.901 3.156 8.618 4.825 13.639 4.825s9.738-1.668 13.639-4.824c.99-.802 2.379-.89 3.46-.222 9.736 5.998 15.549 16.394 15.549 27.811v14.824c-.001 1.655-1.344 2.999-3.001 2.999zm-56.294-6h53.294v-11.824c0-8.648-4.087-16.58-11.029-21.59-4.58 3.125-10.047 4.826-15.618 4.826s-11.037-1.701-15.618-4.826c-6.941 5.011-11.028 12.942-11.028 21.59v11.824z" fill="#1c2d6b"/><path d="m82.418 221.834c0-10.68 1.792-20.038 4.48-25.257-1.776-4.529-2.913-11.452-2.913-19.213 0-13.645 3.509-24.706 7.838-24.706-13.645 0-24.706 11.061-24.706 24.706 0 7.762 3.582 14.684 9.18 19.213-8.472 5.219-14.122 14.577-14.122 25.257v4.941 9.882h20.241v-9.882-4.941z" fill="#89aadb"/><path d="m107.349 196.577c5.598-4.529 9.18-11.452 9.18-19.213 0-13.645-11.061-24.706-24.706-24.706 4.329 0 7.838 11.061 7.838 24.706 0 7.762-1.137 14.684-2.913 19.213 2.688 5.219 4.48 14.577 4.48 25.257v4.941 9.882h20.241v-9.882-4.941c.002-10.68-5.648-20.038-14.12-25.257z" fill="#4b67b0"/><path d="m101.23 221.834c0-10.68-1.793-20.038-4.48-25.257 1.776-4.529 2.913-11.452 2.913-19.213 0-13.645-3.509-24.706-7.838-24.706-4.329 0-7.838 11.061-7.838 24.706 0 7.762 1.137 14.684 2.913 19.213-2.688 5.219-4.48 14.577-4.48 25.257v4.941 9.882h18.812v-9.882-4.941z" fill="#6287c5"/><path d="m91.823 205.07c-15.277 0-27.706-12.429-27.706-27.706s12.429-27.706 27.706-27.706 27.706 12.429 27.706 27.706-12.428 27.706-27.706 27.706zm0-49.412c-11.969 0-21.706 9.737-21.706 21.706s9.737 21.706 21.706 21.706 21.706-9.737 21.706-21.706-9.737-21.706-21.706-21.706z" fill="#1c2d6b"/><path d="m121.471 239.658h-59.294c-1.657 0-3-1.343-3-3v-14.824c0-11.417 5.812-21.814 15.548-27.811 1.082-.667 2.47-.58 3.46.222 3.901 3.156 8.618 4.825 13.639 4.825s9.738-1.668 13.639-4.824c.99-.802 2.378-.89 3.46-.222 9.736 5.998 15.549 16.394 15.549 27.811v14.824c-.001 1.655-1.344 2.999-3.001 2.999zm-56.294-6h53.294v-11.824c0-8.648-4.087-16.58-11.029-21.59-4.58 3.125-10.047 4.826-15.618 4.826s-11.037-1.701-15.618-4.826c-6.941 5.011-11.028 12.942-11.028 21.59v11.824z" fill="#1c2d6b"/><path d="m184.77 221.834c0-10.68 1.792-20.038 4.48-25.257-1.776-4.529-2.913-11.452-2.913-19.213 0-13.645 3.509-24.706 7.838-24.706-13.645 0-24.706 11.061-24.706 24.706 0 7.762 3.582 14.684 9.18 19.213-8.472 5.219-14.122 14.577-14.122 25.257v4.941 9.882h20.241v-9.882-4.941z" fill="#89aadb"/><path d="m209.702 196.577c5.598-4.529 9.18-11.452 9.18-19.213 0-13.645-11.061-24.706-24.706-24.706 4.329 0 7.838 11.061 7.838 24.706 0 7.762-1.137 14.684-2.913 19.213 2.688 5.219 4.48 14.577 4.48 25.257v4.941 9.882h20.241v-9.882-4.941c.002-10.68-5.648-20.038-14.12-25.257z" fill="#4b67b0"/><path d="m203.583 221.834c0-10.68-1.793-20.038-4.48-25.257 1.776-4.529 2.913-11.452 2.913-19.213 0-13.645-3.509-24.706-7.838-24.706-4.329 0-7.838 11.061-7.838 24.706 0 7.762 1.137 14.684 2.913 19.213-2.688 5.219-4.48 14.577-4.48 25.257v4.941 9.882h18.812v-9.882-4.941z" fill="#6287c5"/><g fill="#1c2d6b"><path d="m194.177 205.07c-15.277 0-27.706-12.429-27.706-27.706s12.429-27.706 27.706-27.706c15.276 0 27.705 12.429 27.705 27.706s-12.429 27.706-27.705 27.706zm0-49.412c-11.969 0-21.706 9.737-21.706 21.706s9.737 21.706 21.706 21.706c11.968 0 21.705-9.737 21.705-21.706s-9.737-21.706-21.705-21.706z"/><path d="m223.823 239.658h-59.294c-1.657 0-3-1.343-3-3v-14.824c0-11.417 5.812-21.813 15.549-27.811 1.082-.667 2.47-.58 3.46.222 3.9 3.156 8.617 4.824 13.639 4.824 5.021 0 9.737-1.668 13.639-4.825.991-.801 2.378-.889 3.46-.222 9.735 5.997 15.548 16.394 15.548 27.811v14.824c-.001 1.657-1.344 3.001-3.001 3.001zm-56.294-6h53.294v-11.824c0-8.648-4.087-16.58-11.028-21.59-4.581 3.125-10.047 4.826-15.618 4.826s-11.038-1.701-15.618-4.826c-6.942 5.011-11.029 12.942-11.029 21.59v11.824z"/><path d="m77.53 135.046 12.728-12.728-12.728-12.727-12.728 12.727-4.242-4.242-2.146 23.31 23.31-2.146z"/><path d="m175.576 135.046-12.728-12.728 12.728-12.727 12.728 12.727 4.243-4.242 2.146 23.31-23.31-2.146z"/><path d="m20 245h-6c-1.657 0-3-1.343-3-3v-228c0-1.657 1.343-3 3-3h60c1.657 0 3 1.343 3 3s-1.343 3-3 3h-57v222h3c1.657 0 3 1.343 3 3s-1.343 3-3 3z"/><path d="m242 245h-6c-1.657 0-3-1.343-3-3s1.343-3 3-3h3v-222h-57c-1.657 0-3-1.343-3-3s1.343-3 3-3h60c1.657 0 3 1.343 3 3v228c0 1.657-1.343 3-3 3z"/></g></svg>