<svg height="474pt" viewBox="-1 0 474 474.60257" width="474pt" xmlns="http://www.w3.org/2000/svg"><path d="m160.308594 216v-216h304v216zm0 0" fill="#d8d8d3"/><path d="m.46875 158.160156c-.132812.605469-.1875 1.222656-.160156 1.839844v112h112v-79.28125l37.519531 40.800781c2.957031 3.191407 7.089844 5.039063 11.441406 5.121094h.398438c4.226562.003906 8.28125-1.664063 11.28125-4.640625l64.71875-64.71875c6.25-6.253906 6.25-16.390625 0-22.640625-6.253907-6.253906-16.386719-6.253906-22.640625 0l-52.878906 52.878906-49.839844-54.160156-8-9.359375h-80c-1.476563.011719-2.949219.144531-4.402344.398438zm0 0" fill="#127bab"/><path d="m59.117188 0h66.527343c0 17.304688-14.03125 31.335938-31.335937 31.335938h-66.527344c0-17.304688 14.027344-31.335938 31.335938-31.335938zm0 0" fill="#494342"/><path d="m94.308594 31.335938h-61.367188c-10.109375 18.96875-5.027344 42.464843 12.011719 55.566406 17.039063 13.101562 41.050781 11.976562 56.789063-2.664063 15.738281-14.636719 18.59375-38.503906 6.757812-56.445312-4.382812 2.292969-9.246094 3.507812-14.191406 3.542969zm0 0" fill="#f0cfb1"/><path d="m234.648438 138.339844 72-72 11.3125 11.316406-72 72zm0 0" fill="#b06f27"/><path d="m432.308594 192h-208v-16h200v-152h16v160c0 4.417969-3.582032 8-8 8zm0 0" fill="#4e4e4e"/><path d="m301.964844 141.65625-11.3125-11.3125 32-32c3.125-3.121094 8.1875-3.121094 11.3125 0l14.34375 14.34375 54.34375-54.34375 11.3125 11.3125-60 60c-3.125 3.121094-8.1875 3.121094-11.3125 0l-14.34375-14.34375zm0 0" fill="#03aa6f"/><path d="m80.308594 272h32v192h-32zm0 0" fill="#494342"/><path d="m.308594 272h32v192h-32zm0 0" fill="#494342"/><path d="m144.308594 240h-24c-2.722656 0-5.359375-.160156-8-.398438-45.300782-4.136718-79.984375-42.113281-80-87.601562-.035156-7.441406-5.160156-13.890625-12.402344-15.601562h-.078125c-10.429687 1.957031-18.320313 10.5625-19.359375 21.121093v.640625c3.203125 60.679688 51.214844 109.410156 111.839844 113.519532 2.640625.242187 5.277344.320312 8 .320312h24c8.835937 0 16-7.164062 16-16s-7.164063-16-16-16zm0 0" fill="#168fba"/><g fill="#4e4e4e"><path d="m168.710938 469.386719 88.0625-255.980469 15.121093 5.203125-88.0625 255.980469zm0 0"/><path d="m368.742188 218.601562 15.125-5.199218 88 256-15.125 5.199218zm0 0"/><path d="m312.308594 216h16v256h-16zm0 0"/></g></svg>