<svg height="512" viewBox="0 0 64 64" width="512" xmlns="http://www.w3.org/2000/svg"><g id="battery-dc-electronics"><g fill="#78b9eb"><path d="m37 8h11v3h-11z"/><path d="m18 6h7v5h-7z"/><path d="m12 27h40v28h-40z"/><circle cx="21" cy="19" r="4"/><circle cx="43" cy="19" r="4"/></g><path d="m50 10h-1v-2a1 1 0 0 0 -1-1h-1v-4a1 1 0 0 0 -1-1h-7a1 1 0 0 0 -1 1v4h-1a1 1 0 0 0 -1 1v2h-10v-3h1a1 1 0 0 0 1-1v-3a1 1 0 0 0 -1-1h-11a1 1 0 0 0 -1 1v3a1 1 0 0 0 1 1h1v3h-3a3.009 3.009 0 0 0 -3 3v46a3.009 3.009 0 0 0 3 3h36a3.009 3.009 0 0 0 3-3v-46a3.009 3.009 0 0 0 -3-3zm-10-6h5v3h-5zm-2 5h9v1h-9zm-21-5h9v1h-9zm7 3v3h-5v-3zm27 52a1 1 0 0 1 -1 1h-36a1 1 0 0 1 -1-1v-3h38zm0-5h-38v-26h38zm0-28h-38v-13a1 1 0 0 1 1-1h36a1 1 0 0 1 1 1z" fill="#006df0"/><path d="m43 24a5 5 0 1 0 -5-5 5.006 5.006 0 0 0 5 5zm0-8a3 3 0 1 1 -3 3 3 3 0 0 1 3-3z" fill="#006df0"/><path d="m42 21h2v-1h1v-2h-1v-1h-2v1h-1v2h1z" fill="#006df0"/><path d="m21 24a5 5 0 1 0 -5-5 5.006 5.006 0 0 0 5 5zm0-8a3 3 0 1 1 -3 3 3 3 0 0 1 3-3z" fill="#006df0"/><path d="m19 18h4v2h-4z" fill="#006df0"/></g></svg>