<svg height="512" viewBox="0 0 64 64" width="512" xmlns="http://www.w3.org/2000/svg"><path d="m59 32h-10l-5-3v3h-1a2.006 2.006 0 0 0 -2 2v12a2.006 2.006 0 0 0 2 2h16a2.006 2.006 0 0 0 2-2v-12a2.006 2.006 0 0 0 -2-2z" fill="#78b9eb"/><path d="m33 39.14-3.27 5.66-.73.65v7.55h-18v-8h14.82l.45-2.2 1.04-1.8 2.31-4 3.38-5.86v-22.14h-26v32 16h26z" fill="#78b9eb"/><g fill="#1a6fb0"><path d="m19 5h4v2h-4z"/><path d="m25 5h2v2h-2z"/><path d="m15 5h2v2h-2z"/><path d="m10 12h2v2h-2z"/><path d="m14 12h16v2h-16z"/><path d="m10 16h2v2h-2z"/><path d="m14 16h16v2h-16z"/><path d="m10 20h2v2h-2z"/><path d="m14 20h16v2h-16z"/><path d="m10 24h2v2h-2z"/><path d="m14 24h16v2h-16z"/><path d="m10 28h2v2h-2z"/><path d="m14 28h16v2h-16z"/><path d="m10 32h2v2h-2z"/><path d="m14 32h16v2h-16z"/><path d="m10 36h2v2h-2z"/><path d="m10 40h2v2h-2z"/><path d="m50.6 10.663a3 3 0 1 0 -5.2-3l-7.4 12.82v-15.483a3 3 0 0 0 -3-3h-30a3 3 0 0 0 -3 3v54a3 3 0 0 0 3 3h30a3 3 0 0 0 3-3v-26.517zm-3.464-2a1 1 0 1 1 1.732 1l-19.919 34.5-2.366 2.1.634-3.1zm-15.136 22.212-2.959 5.125h-15.041v2h13.887l-1.155 2h-12.732v2h11.577l-.175.3a.977.977 0 0 0 -.113.3l-.289 1.4h-14a1 1 0 0 0 -1 1v8a1 1 0 0 0 1 1h18a1 1 0 0 0 1-1v-7.1l.4-.35a1.027 1.027 0 0 0 .2-.248l1.4-2.426v13.124h-24v-46h24zm-7.5 18.991a1 1 0 0 0 1.164-.118l2.336-2.072v4.324h-16v-6h12.593l-.572 2.8a1 1 0 0 0 .479 1.066zm11.5 9.134a1 1 0 0 1 -1 1h-30a1 1 0 0 1 -1-1v-54a1 1 0 0 1 1-1h30a1 1 0 0 1 1 1v18.947l-2 3.464v-18.411a1 1 0 0 0 -1-1h-26a1 1 0 0 0 -1 1v48a1 1 0 0 0 1 1h26a1 1 0 0 0 1-1v-17.589l2-3.464z"/><path d="m59 31h-9.723l-4.762-2.857a1 1 0 0 0 -1.515.857v2a3 3 0 0 0 -3 3v12a3 3 0 0 0 3 3h16a3 3 0 0 0 3-3v-12a3 3 0 0 0 -3-3zm1 15a1 1 0 0 1 -1 1h-16a1 1 0 0 1 -1-1v-12a1 1 0 0 1 1-1h1a1 1 0 0 0 1-1v-1.234l3.485 2.091a1 1 0 0 0 .515.143h10a1 1 0 0 1 1 1z"/><path d="m44 43h2v2h-2z"/><path d="m48 43h10v2h-10z"/><path d="m44 39h2v2h-2z"/><path d="m48 39h10v2h-10z"/><path d="m44 35h2v2h-2z"/><path d="m48 35h10v2h-10z"/></g></svg>