<?xml version="1.0" encoding="iso-8859-1"?>
<!-- Generator: Adobe Illustrator 19.0.0, SVG Export Plug-In . SVG Version: 6.00 Build 0)  -->
<svg version="1.1" id="Capa_1" xmlns="http://www.w3.org/2000/svg" xmlns:xlink="http://www.w3.org/1999/xlink" x="0px" y="0px"
	 viewBox="0 0 512 512" style="enable-background:new 0 0 512 512;" xml:space="preserve">
<rect x="10" y="206" style="fill:#5AD2E6;" width="40" height="240"/>
<g>
	<rect x="50" y="190" style="fill:#AAAAA0;" width="40" height="80"/>
	<rect x="422" y="190" style="fill:#AAAAA0;" width="40" height="80"/>
</g>
<rect x="462" y="206" style="fill:#5AD2E6;" width="40" height="240"/>
<rect x="90" y="66" style="fill:#FAC800;" width="40" height="323"/>
<g>
	<polygon style="fill:#6E6E6E;" points="212.908,97.5 138.807,357.5 178.807,357.5 252.908,97.5 	"/>
	<polygon style="fill:#6E6E6E;" points="130,97.5 130,248.053 172.908,97.5 	"/>
	<polygon style="fill:#6E6E6E;" points="252.908,97.5 178.807,357.5 218.807,357.5 292.908,97.5 	"/>
	<polygon style="fill:#6E6E6E;" points="172.908,97.5 130,248.053 130,357.5 138.807,357.5 212.908,97.5 	"/>
	<polygon style="fill:#6E6E6E;" points="332.908,97.5 258.807,357.5 298.807,357.5 372.908,97.5 	"/>
	<polygon style="fill:#6E6E6E;" points="292.908,97.5 218.807,357.5 258.807,357.5 332.908,97.5 	"/>
	<polygon style="fill:#6E6E6E;" points="382,205.947 338.807,357.5 382,357.5 	"/>
	<polygon style="fill:#6E6E6E;" points="382,97.5 372.908,97.5 298.807,357.5 338.807,357.5 382,205.947 	"/>
</g>
<rect x="382" y="66" style="fill:#FAC800;" width="40" height="323"/>
<path d="M502,196h-30v-6c0-5.522-4.477-10-10-10h-30V66c0-5.522-4.477-10-10-10h-40c-5.523,0-10,4.478-10,10v21.5H140V66
	c0-5.522-4.477-10-10-10H90c-5.523,0-10,4.478-10,10v114H50c-5.523,0-10,4.478-10,10v6H10c-5.523,0-10,4.478-10,10v240
	c0,5.522,4.477,10,10,10h80c5.523,0,10-4.478,10-10s-4.477-10-10-10H60V280h20v109c0,5.522,4.477,10,10,10h40
	c5.523,0,10-4.478,10-10v-21.5h70.5V386c0,8.02,3.12,15.55,8.79,21.21c5.66,5.67,13.19,8.79,21.21,8.79h89c5.5,0.01,9.99,4.5,10,10
	c-0.01,5.5-4.5,9.99-10,10H213.29c-5.52,0-10,4.49-10,10c0,5.52,4.48,10,10,10H329.5c8.02,0,15.55-3.12,21.21-8.79
	c5.67-5.66,8.79-13.2,8.79-21.21c0-8.021-3.12-15.55-8.79-21.21c-5.66-5.67-13.19-8.79-21.21-8.79h-89c-5.5-0.01-9.99-4.5-10-10
	v-18.5H372V389c0,5.522,4.477,10,10,10h40c5.523,0,10-4.478,10-10V280h20v156h-30c-5.523,0-10,4.478-10,10s4.477,10,10,10h80
	c5.523,0,10-4.478,10-10V206C512,200.478,507.523,196,502,196z M312.056,347.5L372,137.171v67.379L331.259,347.5H312.056z
	 M272.056,347.5l68.4-240h19.203l-68.4,240H272.056z M232.056,347.5l68.4-240h19.203l-68.4,240H232.056z M192.056,347.5l68.4-240
	h19.203l-68.4,240H192.056z M152.056,347.5l68.4-240h19.203l-68.4,240H152.056z M140,249.451L180.456,107.5h19.203L140,316.831
	V249.451z M159.659,107.5L140,176.479V107.5H159.659z M20,216h20v220H20V216z M60,260v-60h20v60H60z M120,379h-20V76h20V379z
	 M352.056,347.5L372,277.521V347.5H352.056z M412,379h-20V76h20V379z M432,260v-60h20v6v54H432z M492,436h-20V216h20V436z"/>
<path d="M173.29,436c-5.52,0-10,4.49-10,10s4.48,10,10,10c5.51,0,10-4.49,10-10S178.8,436,173.29,436z"/>
<g>
</g>
<g>
</g>
<g>
</g>
<g>
</g>
<g>
</g>
<g>
</g>
<g>
</g>
<g>
</g>
<g>
</g>
<g>
</g>
<g>
</g>
<g>
</g>
<g>
</g>
<g>
</g>
<g>
</g>
</svg>
