<svg height="496pt" viewBox="0 0 496 496" width="496pt" xmlns="http://www.w3.org/2000/svg" xmlns:xlink="http://www.w3.org/1999/xlink"><linearGradient id="a" gradientUnits="userSpaceOnUse" x1="248" x2="248" y1="496" y2="0"><stop offset="0" stop-color="#9f2fff"/><stop offset="1" stop-color="#0bb1d3"/></linearGradient><path d="m320 296c0-39.695312-32.296875-72-72-72s-72 32.304688-72 72 32.296875 72 72 72 72-32.304688 72-72zm-128 0c0-30.878906 25.128906-56 56-56s56 25.121094 56 56-25.128906 56-56 56-56-25.121094-56-56zm48-96c0-4.414062 3.585938-8 8-8s8 3.585938 8 8-3.585938 8-8 8-8-3.585938-8-8zm16 192c0 4.414062-3.585938 8-8 8s-8-3.585938-8-8 3.585938-8 8-8 8 3.585938 8 8zm-81.535156-158.222656c-3.128906-3.128906-3.128906-8.191406 0-11.3125 3.128906-3.128906 8.191406-3.128906 11.3125 0 3.125 3.128906 3.125 8.191406 0 11.3125-3.128906 3.117187-8.191406 3.117187-11.3125 0zm-14.464844 62.222656c0 4.414062-3.585938 8-8 8s-8-3.585938-8-8 3.585938-8 8-8 8 3.585938 8 8zm25.777344 62.222656c3.125 3.128906 3.125 8.191406 0 11.3125-3.128906 3.128906-8.191406 3.128906-11.3125 0-3.128906-3.128906-3.128906-8.191406 0-11.3125 3.121094-3.117187 8.183594-3.117187 11.3125 0zm135.757812 0c3.128906 3.128906 3.128906 8.191406 0 11.3125-3.128906 3.128906-8.191406 3.128906-11.3125 0-3.125-3.128906-3.125-8.191406 0-11.3125 3.128906-3.117187 8.191406-3.117187 11.3125 0zm14.464844-62.222656c0-4.414062 3.585938-8 8-8s8 3.585938 8 8-3.585938 8-8 8-8-3.585938-8-8zm-25.777344-62.222656c-3.125-3.128906-3.125-8.191406 0-11.3125 3.128906-3.128906 8.191406-3.128906 11.3125 0 3.128906 3.128906 3.128906 8.191406 0 11.3125-3.128906 3.117187-8.183594 3.117187-11.3125 0zm-38.222656 62.222656c0-13.230469-10.769531-24-24-24s-24 10.769531-24 24 10.769531 24 24 24 24-10.769531 24-24zm-32 0c0-4.40625 3.585938-8 8-8s8 3.59375 8 8-3.585938 8-8 8-8-3.59375-8-8zm89.367188 152.839844-16.632813-33.265625c28.28125-15.375 50.410156-40.550781 62.097656-70.871094 4.359375 4.488281 10.433594 7.296875 17.167969 7.296875h16c13.230469 0 24-10.769531 24-24v-80c0-61.945312-31.480469-119.335938-82.070312-153.121094 32.6875-4.421875 62.125-22.542968 80.726562-50.4375l1.34375-2.015625v-42.425781h-368v42.425781l1.34375 2.015625c18.601562 27.894532 48.03125 46.015625 80.71875 50.4375-50.582031 33.785156-82.0625 91.175782-82.0625 153.121094v80c0 13.230469 10.769531 24 24 24h16c6.734375 0 12.808594-2.808594 17.175781-7.289062 13.046875 33.847656 39.160157 61.199218 72.230469 75.761718l-22.902344 59.527344h-10.503906v-64h-16v64h-16v-48h-16v48h-16v-16h-16v16h-16v-72h-16v72h-16v-40h-16v40h-16v16h181.496094l26.894531-69.921875c12.539063 3.824219 25.832031 5.921875 39.609375 5.921875 17.734375 0 34.648438-3.511719 50.199219-9.71875l28.441406 56.871094 53.359375-71.152344h116v-16h-124zm-167.679688-368.839844c-28.078125 0-54.421875-11.769531-73.144531-32h318.90625c-18.722657 20.230469-45.058594 32-73.144531 32zm254.3125-64v16h-336v-16zm-304 312c0 4.40625-3.585938 8-8 8h-16c-4.414062 0-8-3.59375-8-8v-80c0-64.894531 37.832031-124.351562 96.472656-152h143.054688c58.640625 27.648438 96.472656 87.105469 96.472656 152v80c0 4.40625-3.585938 8-8 8h-16c-4.414062 0-8-3.59375-8-8v-80c0-37.542969-15.023438-72.519531-42.296875-98.488281-27.246094-25.9375-63.054687-39.183594-100.542969-37.34375-72.425781 3.574219-129.160156 64.871093-129.160156 139.542969zm254.414062-98.65625c-23.359374-41.335938-67.644531-69.34375-118.414062-69.34375-50.375 0-94.34375 27.601562-117.847656 68.40625 10.144531-55.148438 55.589844-97.476562 111.785156-100.253906 33.328125-1.671875 64.6875 10.0625 88.734375 32.953125 19.472656 18.535156 31.71875 42.308593 35.742187 68.238281zm-118.414062 186.65625c-11.753906 0-23.097656-1.777344-33.839844-4.9375l9.304688-24.191406-14.9375-5.742188-9.375 24.375c-41.863282-18.75-71.152344-60.734375-71.152344-109.503906 0-66.167969 53.832031-120 120-120s120 53.832031 120 120c0 45.320312-25.265625 84.832031-62.433594 105.238281l-10.40625-20.824219-14.3125 7.160157 10.160156 20.320312c-13.375 5.160157-27.839843 8.105469-43.007812 8.105469zm240 24h-96v-16h96zm-88 32v-16h16v16zm32 0v-16h16v16zm32 0v-16h16v16zm0 0" fill="url(#a)"/></svg>