<svg height="512" viewBox="0 0 128 128" width="512" xmlns="http://www.w3.org/2000/svg"><path d="m77.37 90.54-10.74 3.99a6.894 6.894 0 0 0 -1.4-2.73 7.232 7.232 0 0 0 -5.64-2.68h-3.71l18.42-6.84a4.388 4.388 0 0 1 5.29 1.83 3.827 3.827 0 0 1 .37.76 4.409 4.409 0 0 1 -2.59 5.67z" fill="#ffa5b1"/><path d="m87.7 86.7-22.39 13.78h-19.01a.607.607 0 0 1 -.5-.24.631.631 0 0 1 -.17-.43.672.672 0 0 1 .67-.68h17.87a2.7 2.7 0 0 0 2.72-2.62 6.811 6.811 0 0 0 -.26-1.98 6.894 6.894 0 0 0 -1.4-2.73l14.36-7.69 1.29-.69a4.694 4.694 0 0 1 6.35 1.92 4.4 4.4 0 0 1 .47 1.36z" fill="#ffb4be"/><path d="m95.5 87.546a5.094 5.094 0 0 0 -6.914-1.387l-23.275 14.32h-19.011a.673.673 0 0 1 -.673-.673.673.673 0 0 1 .673-.673h17.869a2.7 2.7 0 0 0 2.717-2.619 7.3 7.3 0 0 0 -7.294-7.394h-11.184c-3.288 0-9.85-2.626-12.481-3.738-.332-.157-1.132-.477-1.132-.477a14.078 14.078 0 0 0 -14.16 2.595l-19.635 19.633 19.867 19.867 14.881-14.881h25.415a14.658 14.658 0 0 0 7.682-2.174l25.11-15.451a4.957 4.957 0 0 0 1.545-6.948z" fill="#ffc8d2"/><path d="m93.955 90.54-25.11 15.451a14.658 14.658 0 0 1 -7.682 2.174h-25.415l-14.881 14.881-17.89-17.89-1.977 1.977 19.867 19.867 14.881-14.881h25.415a14.658 14.658 0 0 0 7.682-2.174l25.11-15.451a4.954 4.954 0 0 0 1.945-6.194 4.931 4.931 0 0 1 -1.945 2.24z" fill="#ffb4be"/><path d="m8.9 98.109h13.884v28.096h-13.884z" fill="#f0dc78" transform="matrix(.707 -.707 .707 .707 -74.667 44.052)"/><path d="m16.35 116.096h13.884v7.024h-13.884z" fill="#dcc864" transform="matrix(.707 -.707 .707 .707 -77.753 51.503)"/><circle cx="48.657" cy="42.5" fill="#f0f0e6" r="41.5"/><path d="m71.471 7.838a6.132 6.132 0 0 0 -1.626 4.162v39.52l8.772-6.473a13.956 13.956 0 0 1 8.283-2.726h3.25a41.453 41.453 0 0 0 -18.679-34.483z" fill="#dcdcd2"/><path d="m66.868 71.506c1.837 0 3.071 3.052 3.85 6.14a41.707 41.707 0 0 0 9.862-8.63c-2.345-6.929-6.468-14.756-13.712-19.968a17.65 17.65 0 0 0 -8.693-2.53h-19.035a17.65 17.65 0 0 0 -8.693 2.53c-7.247 5.211-11.366 13.038-13.712 19.967a41.707 41.707 0 0 0 9.862 8.63c.779-3.087 2.013-6.14 3.85-6.14v8.295a41.541 41.541 0 0 0 36.421 0z" fill="#b4aaf0"/><path d="m19.208 71.488c2.345-6.929 6.468-14.756 13.712-19.968a17.65 17.65 0 0 1 8.693-2.53h19.035a17.65 17.65 0 0 1 8.693 2.53 30.862 30.862 0 0 1 2.559 2.058 31.769 31.769 0 0 0 -5.032-4.532 17.65 17.65 0 0 0 -8.693-2.53h-19.035a17.65 17.65 0 0 0 -8.693 2.53c-7.247 5.213-11.366 13.04-13.712 19.969a41.491 41.491 0 0 0 3.87 4.023c-.471-.512-.952-1.015-1.397-1.55z" fill="#c8beff"/><path d="m55.766 46.517h1.631l3.221 8.133-7.077-3.029-4.884 5.778v-2.851z" fill="#c8beff"/><path d="m42.195 46.517h-1.631l-3.221 8.133 7.077-3.029 4.237 5.778v-2.851z" fill="#c8beff"/><path d="m42.195 46.517h13.571l-7.109 8.031z" fill="#ffb4be"/><path d="m35.732 19.378v12.275a12.492 12.492 0 0 0 6.463 10.914v3.95a13.126 13.126 0 0 0 13.08.269l.492-.269v-4.288a12.329 12.329 0 0 0 5.816-10.576v-12.275a12.961 12.961 0 0 0 -12.925-12.924h-.327a12.879 12.879 0 0 0 -12.6 12.923z" fill="#ffc8d2"/><path d="m61.582 19.378a12.961 12.961 0 0 0 -12.924-12.924h-.327c-.207 0-.413.006-.618.016a11.647 11.647 0 0 1 11.328 11.639v10.852a11.654 11.654 0 1 1 -23.309 0v2.693a12.492 12.492 0 0 0 6.463 10.914v3.95a13.126 13.126 0 0 0 13.08.269l.492-.269v-4.289a12.329 12.329 0 0 0 5.816-10.576v-12.275z" fill="#ffb4be"/><path d="m35.732 24.277c12.925 0 12.925-7.815 12.925-7.815s0 7.815 12.925 7.815v-7.435a10.388 10.388 0 0 0 -10.387-10.388h-5.075a10.388 10.388 0 0 0 -10.388 10.388z" fill="#e678a0"/><path d="m51.195 6.454h-2.542a10.388 10.388 0 0 1 10.388 10.388v7.32c.788.072 1.629.115 2.542.115v-7.435a10.388 10.388 0 0 0 -10.388-10.388z" fill="#d2648c"/><path d="m50.823 57.414h-3.999l-2.404-5.793h9.121z" fill="#e678a0"/><path d="m46.824 57.414h3.999l3.062 21.024-5.267 5.562-5.267-5.562z" fill="#e678a0"/><path d="m59.255 71.506a3.489 3.489 0 0 1 -3.489-3.489v-5.929h6.978v5.929a3.489 3.489 0 0 1 -3.489 3.489z" fill="#c8beff"/><path d="m120.838 1h-44.832a6.162 6.162 0 0 0 -6.162 6.162v39.521l8.772-6.473a13.956 13.956 0 0 1 8.284-2.726h33.936a6.162 6.162 0 0 0 6.164-6.162v-24.16a6.162 6.162 0 0 0 -6.162-6.162z" fill="#aad2ff"/><path d="m82.935 4.171h19.952a.97.97 0 0 1 .97.97v28.2a.97.97 0 0 1 -.97.97h-14.953l-5.969-5.969v-23.201a.97.97 0 0 1 .97-.97z" fill="#fffffa"/><path d="m81.965 28.344h5.415a.554.554 0 0 1 .554.554v5.415z" fill="#f0f0e6"/><path d="m114.88 28.402h-3.341l1.665 5.911z" fill="#826ec8"/><path d="m113.21 4.17a1.67 1.67 0 0 0 -1.67 1.67v22.56h3.341v-22.559a1.67 1.67 0 0 0 -1.671-1.671z" fill="#f0dc78"/><g fill="#785ae6"><path d="m69.845 47.683a1 1 0 0 1 -1-1v-39.293a40.5 40.5 0 0 0 -51.832 9.832 1 1 0 1 1 -1.562-1.249 42.5 42.5 0 0 1 54.922-10.005 1 1 0 0 1 .487.911l-.007.121c0 .055-.008.109-.008.164v37.536l7.178-5.3a14.854 14.854 0 0 1 8.88-2.921h2.942a1 1 0 0 1 0 2h-2.945a12.866 12.866 0 0 0 -7.692 2.531l-8.772 6.473a1 1 0 0 1 -.591.2z"/><path d="m48.658 85a42.548 42.548 0 0 1 -42.5-42.5 42.089 42.089 0 0 1 4.307-18.663 1 1 0 0 1 1.8.879 40.116 40.116 0 0 0 -4.107 17.784 40.5 40.5 0 1 0 81 0 1 1 0 1 1 2 0 42.548 42.548 0 0 1 -42.5 42.5z"/><path d="m65.23 92.8a1 1 0 0 1 -.775-.367 6.26 6.26 0 0 0 -4.862-2.312h-3.708a1 1 0 0 1 0-2h3.708a8.242 8.242 0 0 1 5.854 2.43l12.591-6.738a3.406 3.406 0 0 0 -3.39-.6l-9.146 3.4a1 1 0 1 1 -.7-1.875l9.146-3.4a5.413 5.413 0 0 1 6.5 2.253 1 1 0 0 1 -.382 1.4l-14.366 7.69a1 1 0 0 1 -.47.119z"/><path d="m30.685 118.183a1 1 0 0 1 -.707-.293l-19.868-19.868a1 1 0 0 1 0-1.414l9.818-9.818a15.065 15.065 0 0 1 15.212-2.825c.018.007.583.228 1.2.5 5.4 2.282 9.922 3.65 12.071 3.65h11.182a8.295 8.295 0 0 1 8.294 8.407 3.559 3.559 0 0 1 -.295 1.375l20.468-12.589a6.107 6.107 0 0 1 8.273 1.692 5.957 5.957 0 0 1 -1.854 8.349l-18.415 11.328a1 1 0 1 1 -1.048-1.7l18.415-11.334a3.957 3.957 0 0 0 1.23-5.547 4.1 4.1 0 0 0 -5.554-1.084l-23.272 14.318a1 1 0 0 1 -.524.148h-19.011a1.673 1.673 0 1 1 0-3.346h17.869a1.693 1.693 0 0 0 1.718-1.632 6.295 6.295 0 0 0 -6.294-6.381h-11.184c-3.338 0-9.5-2.392-12.871-3.817-.583-.262-1.1-.464-1.107-.467a13.037 13.037 0 0 0 -13.131 2.414l-9.064 9.067 18.453 18.453 4.356-4.356a1 1 0 0 1 .707-.293h25.411a13.657 13.657 0 0 0 7.158-2.026 1 1 0 1 1 1.048 1.7 15.652 15.652 0 0 1 -8.206 2.323h-25l-4.771 4.771a1 1 0 0 1 -.707.295z"/><path d="m65.312 101.479h-19.012a1.673 1.673 0 1 1 0-3.346h17.869a1.71 1.71 0 0 0 1.718-1.684 6.3 6.3 0 0 0 -1.424-4.02 1 1 0 0 1 .3-1.516l15.5-8.292a5.81 5.81 0 0 1 7.41 1.554 5.688 5.688 0 0 1 1.017 2.342 1 1 0 0 1 -.459 1.034l-22.396 13.779a1 1 0 0 1 -.523.149zm1.388-9.334a8.315 8.315 0 0 1 1.185 4.314 3.646 3.646 0 0 1 -.309 1.45l18.967-11.669a3.736 3.736 0 0 0 -.482-.882 3.8 3.8 0 0 0 -4.854-.974z"/><path d="m20.867 128a1 1 0 0 1 -.707-.293l-19.867-19.867a1 1 0 0 1 0-1.414l9.817-9.817a1 1 0 0 1 1.414 0l19.867 19.867a1 1 0 0 1 0 1.414l-9.817 9.817a1 1 0 0 1 -.707.293zm-18.453-20.867 18.453 18.453 8.4-8.4-18.45-18.457z"/><path d="m48.658 85a42.1 42.1 0 0 1 -18.65-4.306 1 1 0 0 1 -.561-.9v-6.594a13.523 13.523 0 0 0 -1.88 4.689 1 1 0 0 1 -1.5.6 42.618 42.618 0 0 1 -10.1-8.838 1 1 0 0 1 -.178-.96c3.067-9.062 7.8-15.946 14.075-20.459a18.589 18.589 0 0 1 9.277-2.718h3.055a1 1 0 0 1 .779.373l4.107 5.1a1 1 0 0 1 -.779 1.627h-.384l1.574 3.793h2.7l1.779-3.793h-.718a1 1 0 0 1 -.749-1.663l4.518-5.1a1 1 0 0 1 .749-.337h2.409a18.531 18.531 0 0 1 9.194 2.665.918.918 0 0 1 .083.054c6.271 4.513 11.007 11.4 14.075 20.459a1 1 0 0 1 -.178.96 42.624 42.624 0 0 1 -10.1 8.838 1 1 0 0 1 -1.5-.6 13.523 13.523 0 0 0 -1.88-4.689v6.6a1 1 0 0 1 -.561.9 42.1 42.1 0 0 1 -18.656 4.299zm-17.21-5.833a40.55 40.55 0 0 0 34.421 0v-7.661a1 1 0 0 1 1-1c1.862 0 3.323 1.82 4.45 5.555a40.6 40.6 0 0 0 8.131-7.261c-2.927-8.377-7.341-14.74-13.125-18.917a16.514 16.514 0 0 0 -8.149-2.371h-1.959l-2.747 3.1h.071a1 1 0 0 1 .905 1.425l-2.718 5.793a1 1 0 0 1 -.905.575h-4a1 1 0 0 1 -.923-.605l-2.4-5.8a1 1 0 0 1 .732-1.365l-2.513-3.123h-2.579a16.535 16.535 0 0 0 -8.191 2.4c-5.724 4.125-10.149 10.496-13.084 18.888a40.589 40.589 0 0 0 8.135 7.261c1.126-3.734 2.588-5.555 4.45-5.555a1 1 0 0 1 1 1z"/><path d="m60.618 55.65a1 1 0 0 1 -.394-.081l-6.889-2.949h-2.086a1 1 0 0 1 -.749-1.663l4.518-5.1a1 1 0 0 1 .749-.337h1.633a1 1 0 0 1 .93.632l3.221 8.133a1 1 0 0 1 -.93 1.368zm-7.148-5.029h.071a1 1 0 0 1 .394.081l4.87 2.084-2.087-5.269h-.5z"/><path d="m37.343 55.65a1 1 0 0 1 -.93-1.368l3.221-8.133a1 1 0 0 1 .93-.632h1.63a1 1 0 0 1 .779.373l4.107 5.1a1 1 0 0 1 -.779 1.627h-1.676l-6.888 2.953a1 1 0 0 1 -.394.08zm3.9-8.133-2.087 5.269 4.87-2.084a1.013 1.013 0 0 1 .2-.062l-2.513-3.123z"/><path d="m51.249 52.621h-4.949a1 1 0 0 1 -.779-.373l-4.107-5.1a1 1 0 0 1 -.221-.627v-3.376a13.417 13.417 0 0 1 -6.462-11.492v-7.376a1 1 0 0 1 1-1c11.667 0 11.92-6.526 11.925-6.821a1 1 0 0 1 2-.011c0 .3.258 6.821 11.925 6.821a1 1 0 0 1 1 1v7.376a13.318 13.318 0 0 1 -5.816 11.126v3.738a1 1 0 0 1 -.251.663l-4.514 5.115a1 1 0 0 1 -.751.337zm-4.468-2h4.019l3.968-4.483v-3.909a1 1 0 0 1 .484-.856 11.278 11.278 0 0 0 5.333-9.715v-6.4c-7.416-.24-10.578-3.138-11.925-5.544-1.347 2.406-4.509 5.3-11.925 5.544v6.392a11.417 11.417 0 0 0 5.941 10.036 1 1 0 0 1 .521.878v3.6z"/><path d="m61.583 25.277c-8.136 0-11.519-3.048-12.925-5.56-1.406 2.512-4.79 5.56-12.925 5.56a1 1 0 0 1 -1-1v-7.435a11.4 11.4 0 0 1 11.387-11.387h5.08a11.4 11.4 0 0 1 11.383 11.387v7.435a1 1 0 0 1 -1 1zm-11.925-8.815c0 .263.228 6.436 10.925 6.8v-6.42a9.4 9.4 0 0 0 -9.383-9.387h-5.08a9.4 9.4 0 0 0 -9.388 9.388v6.418c10.682-.362 10.92-6.518 10.925-6.8a1 1 0 0 1 2-.011v.011z"/><path d="m50.823 58.414h-4a1 1 0 0 1 -.923-.614l-2.4-5.8a1 1 0 0 1 .924-1.383h9.121a1 1 0 0 1 .905 1.425l-2.718 5.793a1 1 0 0 1 -.909.579zm-3.332-2h2.7l1.779-3.793h-6.052z"/><path d="m48.618 85a1 1 0 0 1 -.726-.312l-5.268-5.562a1 1 0 0 1 -.261-.851l3.474-21.024a1 1 0 0 1 .987-.837h4a1 1 0 0 1 .99.856l3.062 21.024a1 1 0 0 1 -.264.832l-5.267 5.563a1 1 0 0 1 -.727.311zm-4.2-6.89 4.2 4.435 4.208-4.445-2.868-19.686h-2.286z"/><path d="m59.255 72.506a4.494 4.494 0 0 1 -4.489-4.489v-5.929a1 1 0 0 1 1-1h6.978a1 1 0 0 1 1 1v5.929a4.494 4.494 0 0 1 -4.489 4.489zm-2.489-9.417v4.929a2.489 2.489 0 1 0 4.978 0v-4.93z"/><path d="m69.845 47.683a1 1 0 0 1 -1-1v-39.521a7.17 7.17 0 0 1 7.161-7.162h6.935a1 1 0 0 1 0 2h-6.935a5.167 5.167 0 0 0 -5.162 5.162v37.538l7.178-5.3a14.854 14.854 0 0 1 8.88-2.921h25.916a1 1 0 0 1 0 2h-25.918a12.866 12.866 0 0 0 -7.692 2.531l-8.772 6.473a1 1 0 0 1 -.591.2z"/><path d="m120.838 38.484a1 1 0 0 1 0-2 5.167 5.167 0 0 0 5.162-5.162v-24.16a5.167 5.167 0 0 0 -5.162-5.162h-30.993a1 1 0 0 1 0-2h30.993a7.17 7.17 0 0 1 7.162 7.162v24.16a7.17 7.17 0 0 1 -7.162 7.162z"/><path d="m102.887 35.313h-14.953a1 1 0 0 1 -.707-.293l-5.969-5.969a1 1 0 0 1 -.293-.707v-23.203a1.973 1.973 0 0 1 1.97-1.971h19.952a1.973 1.973 0 0 1 1.97 1.971v28.2a1.973 1.973 0 0 1 -1.97 1.972zm-14.54-2h14.54l-.03-28.172-19.892.029v22.76z"/><path d="m87.934 35.313a1 1 0 0 1 -.707-.293l-5.969-5.969a1 1 0 0 1 .707-1.707h5.415a1.556 1.556 0 0 1 1.554 1.556v5.415a1 1 0 0 1 -1 1zm-3.555-5.969 2.555 2.556v-2.556z"/><path d="m100.223 8.838h-14.623a1 1 0 0 1 0-2h14.624a1 1 0 0 1 0 2z"/><path d="m100.223 14.318h-14.623a1 1 0 0 1 0-2h14.624a1 1 0 0 1 0 2z"/><path d="m100.223 19.8h-14.623a1 1 0 0 1 0-2h14.624a1 1 0 0 1 0 2z"/><path d="m100.223 25.277h-14.623a1 1 0 0 1 0-2h14.624a1 1 0 0 1 0 2z"/><path d="m113.2 35.313a1 1 0 0 1 -.962-.729l-1.664-5.912a1 1 0 0 1 .962-1.271h3.34a1 1 0 0 1 .962 1.273l-1.676 5.912a1 1 0 0 1 -.962.727zm-.34-5.913.347 1.234.35-1.234z"/><path d="m114.88 29.4h-3.34a1 1 0 0 1 -1-1v-22.559a2.67 2.67 0 1 1 5.34 0v22.559a1 1 0 0 1 -1 1zm-2.34-2h1.34v-21.559a.67.67 0 1 0 -1.34 0z"/></g></svg>