<svg height="512" viewBox="0 0 64 64" width="512" xmlns="http://www.w3.org/2000/svg" xmlns:xlink="http://www.w3.org/1999/xlink"><linearGradient id="New_Gradient_Swatch_3" gradientUnits="userSpaceOnUse" x1="58" x2="58" y1="65.92" y2="1.724"><stop offset="0" stop-color="#006df0"/><stop offset="1" stop-color="#00e7f0"/></linearGradient><linearGradient id="New_Gradient_Swatch_3-5" x1="32" x2="32" xlink:href="#New_Gradient_Swatch_3" y1="65.92" y2="1.724"/><linearGradient id="New_Gradient_Swatch_3-14" x1="45" x2="45" xlink:href="#New_Gradient_Swatch_3" y1="65.92" y2="1.724"/><linearGradient id="New_Gradient_Swatch_3-19" x1="6" x2="6" xlink:href="#New_Gradient_Swatch_3" y1="65.92" y2="1.724"/><linearGradient id="New_Gradient_Swatch_3-25" x1="19" x2="19" xlink:href="#New_Gradient_Swatch_3" y1="65.92" y2="1.724"/><g id="Cloud_network" data-name="Cloud network"><path d="m58 20a4 4 0 1 1 4-4 4 4 0 0 1 -4 4zm0-6a2 2 0 1 0 2 2 2 2 0 0 0 -2-2z" fill="url(#New_Gradient_Swatch_3)"/><path d="m57 30h2v2h-2z" fill="url(#New_Gradient_Swatch_3)"/><path d="m57 26h2v2h-2z" fill="url(#New_Gradient_Swatch_3)"/><path d="m57 22h2v2h-2z" fill="url(#New_Gradient_Swatch_3)"/><path d="m51 62h-38a11 11 0 0 1 -1-21.955 6.951 6.951 0 0 1 4.725-6.661 7.07 7.07 0 0 1 3.114-.332 14.01 14.01 0 0 1 24.32 0 7.039 7.039 0 0 1 3.114.332 6.95 6.95 0 0 1 4.727 6.668 11 11 0 0 1 -1 21.948zm-31.987-27a5.06 5.06 0 0 0 -1.639.274 4.96 4.96 0 0 0 -3.3 5.554 1 1 0 0 1 -.984 1.172 9 9 0 1 0 -.09 18h38a9 9 0 0 0 0-18 1.094 1.094 0 0 1 -.81-.356 1.03 1.03 0 0 1 -.265-.814 4.96 4.96 0 0 0 -3.3-5.554 5.045 5.045 0 0 0 -2.778-.142 1 1 0 0 1 -1.121-.524 12.009 12.009 0 0 0 -21.454 0 1 1 0 0 1 -1.121.524 4.984 4.984 0 0 0 -1.138-.134z" fill="url(#New_Gradient_Swatch_3-5)"/><path d="m34 58h-4a1 1 0 0 1 -1-1v-2.756l-1.953 1.956a1 1 0 0 1 -1.414 0l-2.83-2.83a1 1 0 0 1 0-1.414l1.953-1.956h-2.756a1 1 0 0 1 -1-1v-4a1 1 0 0 1 1-1h2.756l-1.956-1.953a1 1 0 0 1 0-1.414l2.83-2.83a1 1 0 0 1 1.414 0l1.956 1.953v-2.756a1 1 0 0 1 1-1h4a1 1 0 0 1 1 1v2.756l1.953-1.956a1 1 0 0 1 1.414 0l2.83 2.83a1 1 0 0 1 0 1.414l-1.953 1.956h2.756a1 1 0 0 1 1 1v4a1 1 0 0 1 -1 1h-2.756l1.956 1.953a1 1 0 0 1 0 1.414l-2.83 2.83a1 1 0 0 1 -1.414 0l-1.956-1.953v2.756a1 1 0 0 1 -1 1zm-3-2h2v-3.35a1 1 0 0 1 .713-.958 2.262 2.262 0 0 0 .4-.168 1 1 0 0 1 1.171.179l2.373 2.373 1.416-1.416-2.373-2.373a1 1 0 0 1 -.179-1.171 2.262 2.262 0 0 0 .168-.4 1 1 0 0 1 .961-.716h3.35v-2h-3.35a1 1 0 0 1 -.958-.713 2.262 2.262 0 0 0 -.168-.4 1 1 0 0 1 .179-1.171l2.373-2.373-1.416-1.419-2.373 2.376a1 1 0 0 1 -1.171.179 2.262 2.262 0 0 0 -.4-.168 1 1 0 0 1 -.716-.961v-3.35h-2v3.35a1 1 0 0 1 -.713.958 2.262 2.262 0 0 0 -.4.168 1 1 0 0 1 -1.171-.179l-2.376-2.373-1.416 1.416 2.376 2.373a1 1 0 0 1 .179 1.171 2.262 2.262 0 0 0 -.168.4 1 1 0 0 1 -.961.716h-3.35v2h3.35a1 1 0 0 1 .958.713 2.262 2.262 0 0 0 .168.4 1 1 0 0 1 -.179 1.171l-2.373 2.376 1.416 1.416 2.373-2.376a1 1 0 0 1 1.171-.179 2.262 2.262 0 0 0 .4.168 1 1 0 0 1 .716.961z" fill="url(#New_Gradient_Swatch_3-5)"/><path d="m32 51a4 4 0 1 1 4-4 4 4 0 0 1 -4 4zm0-6a2 2 0 1 0 2 2 2 2 0 0 0 -2-2z" fill="url(#New_Gradient_Swatch_3-5)"/><path d="m57 38h2v2h-2z" fill="url(#New_Gradient_Swatch_3)"/><path d="m57 34h2v2h-2z" fill="url(#New_Gradient_Swatch_3)"/><path d="m32 12a4 4 0 1 1 4-4 4 4 0 0 1 -4 4zm0-6a2 2 0 1 0 2 2 2 2 0 0 0 -2-2z" fill="url(#New_Gradient_Swatch_3-5)"/><path d="m31 22h2v2h-2z" fill="url(#New_Gradient_Swatch_3-5)"/><path d="m31 18h2v2h-2z" fill="url(#New_Gradient_Swatch_3-5)"/><path d="m31 14h2v2h-2z" fill="url(#New_Gradient_Swatch_3-5)"/><path d="m45 15a4 4 0 1 1 4-4 4 4 0 0 1 -4 4zm0-6a2 2 0 1 0 2 2 2 2 0 0 0 -2-2z" fill="url(#New_Gradient_Swatch_3-14)"/><path d="m44 25h2v2h-2z" fill="url(#New_Gradient_Swatch_3-14)"/><path d="m44 21h2v2h-2z" fill="url(#New_Gradient_Swatch_3-14)"/><path d="m44 17h2v2h-2z" fill="url(#New_Gradient_Swatch_3-14)"/><path d="m44 29h2v2h-2z" fill="url(#New_Gradient_Swatch_3-14)"/><g fill="url(#New_Gradient_Swatch_3-19)"><path d="m6 20a4 4 0 1 1 4-4 4 4 0 0 1 -4 4zm0-6a2 2 0 1 0 2 2 2 2 0 0 0 -2-2z"/><path d="m5 30h2v2h-2z"/><path d="m5 26h2v2h-2z"/><path d="m5 22h2v2h-2z"/><path d="m5 38h2v2h-2z"/><path d="m5 34h2v2h-2z"/></g><path d="m19 15a4 4 0 1 1 4-4 4 4 0 0 1 -4 4zm0-6a2 2 0 1 0 2 2 2 2 0 0 0 -2-2z" fill="url(#New_Gradient_Swatch_3-25)"/><path d="m18 25h2v2h-2z" fill="url(#New_Gradient_Swatch_3-25)"/><path d="m18 21h2v2h-2z" fill="url(#New_Gradient_Swatch_3-25)"/><path d="m18 17h2v2h-2z" fill="url(#New_Gradient_Swatch_3-25)"/><path d="m18 29h2v2h-2z" fill="url(#New_Gradient_Swatch_3-25)"/></g></svg>