<svg height="512" viewBox="0 0 60 60" width="512" xmlns="http://www.w3.org/2000/svg"><g id="Page-1" fill="none" fill-rule="evenodd"><g id="020---Discounted-Computer-Components" fill-rule="nonzero"><path id="Shape" d="m52 1h3c2.209139 0 4 1.790861 4 4v50c0 2.209139-1.790861 4-4 4h-3v-3c0-1.1045695-.8954305-2-2-2s-2 .8954305-2 2v3h-43c-2.209139 0-4-1.790861-4-4v-50c0-2.209139 1.790861-4 4-4h43v3c0 1.1045695.8954305 2 2 2s2-.8954305 2-2z" fill="#e8edfc"/><path id="Shape" d="m47 6c.5767759-.00282394 1.1239827-.25563349 1.5-.693-.3199584-.36042954-.4977008-.8250482-.5-1.307v-3h-3v3c.0032948 1.10320187.8967981 1.9967052 2 2z" fill="#cad9fc"/><path id="Shape" d="m55 1h-3c2.209139 0 4 1.790861 4 4v50c0 2.209139-1.790861 4-4 4h3c2.209139 0 4-1.790861 4-4v-50c0-2.209139-1.790861-4-4-4z" fill="#cad9fc"/><path id="Shape" d="m47 54c-1.1032019.0032948-1.9967052.8967981-2 2v3h3v-3c.0022992-.4819518.1800416-.9465705.5-1.307-.3760173-.4373665-.9232241-.6901761-1.5-.693z" fill="#cad9fc"/><rect id="Rectangle-path" fill="#e8edfc" height="32" rx="2" width="32" x="14" y="14"/><path id="Rectangle-path" d="m18 18h24v24h-24z" fill="#a4c2f7" transform="matrix(0 1 -1 0 60 0)"/><path id="Rectangle-path" d="m39 18h3v24h-3z" fill="#7facfa"/><circle id="Oval" cx="26" cy="25" fill="#e8edfc" r="2"/><circle id="Oval" cx="34" cy="35" fill="#e8edfc" r="2"/><path id="Shape" d="m11.586 55h-5.586c-.55228475 0-1-.4477153-1-1v-5.586c.00008635-.4043959.2437275-.7689341.61734544-.923678s.80366031-.0692299 1.08965456.216678l5.586 5.586c.2859079.2859943.3714219.7160366.216678 1.0896546-.1547439.3736179-.5192821.6172591-.923678.6173454z" fill="#a4c2f7"/><path id="Shape" d="m5 59h3c-2.209139 0-4-1.790861-4-4v-50c0-2.209139 1.790861-4 4-4h-3c-2.209139 0-4 1.790861-4 4v50c0 2.209139 1.790861 4 4 4z" fill="#fff"/><path id="Rectangle-path" d="m0 47h2v8h-2z" fill="#fff"/><g fill="#428dff"><circle id="Oval" cx="1" cy="51" r="1"/><path id="Shape" d="m5 60h43c.5522847 0 1-.4477153 1-1v-3c0-.5522847.4477153-1 1-1s1 .4477153 1 1v3c0 .5522847.4477153 1 1 1h3c2.7600532-.0033061 4.9966939-2.2399468 5-5v-50c-.0033061-2.76005315-2.2399468-4.99669388-5-5h-3c-.5522847 0-1 .44771525-1 1v3c0 .55228475-.4477153 1-1 1s-1-.44771525-1-1v-3c0-.55228475-.4477153-1-1-1h-43c-2.76005315.00330612-4.99669388 2.23994685-5 5v42c0 .5522847.44771525 1 1 1s1-.4477153 1-1v-42c0-1.65685425 1.34314575-3 3-3h42v2c.0000001 1.6568542 1.3431458 2.99999987 3 2.99999987s2.9999999-1.34314567 3-2.99999987v-2h2c1.6568542 0 3 1.34314575 3 3v50c0 1.6568542-1.3431458 3-3 3h-2v-2c-.0000001-1.6568542-1.3431458-2.9999999-3-2.9999999s-2.9999999 1.3431457-3 2.9999999v2h-42c-1.65685425 0-3-1.3431458-3-3 0-.5522847-.44771525-1-1-1s-1 .4477153-1 1c.00330612 2.7600532 2.23994685 4.9966939 5 5z"/><path id="Shape" d="m4 48.414v5.586c0 1.1045695.8954305 2 2 2h5.586c.8087918-.0001727 1.5378681-.487455 1.847356-1.2346909.3094878-.7472359.1384598-1.6073206-.433356-2.1793091l-5.586-5.586c-.57198851-.5718158-1.43207323-.7428438-2.17930912-.433356-.74723588.3094879-1.23451818 1.0385642-1.23469088 1.847356zm2 0 5.6 5.586h-5.6z"/><path id="Shape" d="m13 44c0 1.6568542 1.3431458 3 3 3h28c1.6568542 0 3-1.3431458 3-3v-28c0-1.6568542-1.3431458-3-3-3h-28c-1.6568542 0-3 1.3431458-3 3zm2-28c0-.5522847.4477153-1 1-1h28c.5522847 0 1 .4477153 1 1v28c0 .5522847-.4477153 1-1 1h-28c-.5522847 0-1-.4477153-1-1z"/><path id="Shape" d="m18 43h24c.5522847 0 1-.4477153 1-1v-24c0-.5522847-.4477153-1-1-1h-24c-.5522847 0-1 .4477153-1 1v24c0 .5522847.4477153 1 1 1zm1-24h22v22h-22z"/><path id="Shape" d="m29 25c0-1.6568542-1.3431458-3-3-3s-3 1.3431458-3 3 1.3431458 3 3 3 3-1.3431458 3-3zm-4 0c0-.5522847.4477153-1 1-1s1 .4477153 1 1-.4477153 1-1 1-1-.4477153-1-1z"/><path id="Shape" d="m34 32c-1.6568542 0-3 1.3431458-3 3s1.3431458 3 3 3 3-1.3431458 3-3-1.3431458-3-3-3zm0 4c-.5522847 0-1-.4477153-1-1s.4477153-1 1-1 1 .4477153 1 1-.4477153 1-1 1z"/><path id="Shape" d="m35.641 23.232c-.2038309-.1702908-.4670345-.2524965-.7315517-.2284836-.2645173.0240129-.5086149.1522715-.6784483.3564836l-10 12c-.3534622.424707-.295707 1.0555378.129 1.409s1.0555378.295707 1.409-.129l10-12c.3532979-.4242059.2960023-1.0544578-.128-1.408z"/><circle id="Oval" cx="6" cy="7" r="1"/><circle id="Oval" cx="10" cy="7" r="1"/><circle id="Oval" cx="14" cy="7" r="1"/><circle id="Oval" cx="18" cy="7" r="1"/><circle id="Oval" cx="22" cy="7" r="1"/><circle id="Oval" cx="26" cy="7" r="1"/><circle id="Oval" cx="30" cy="7" r="1"/><circle id="Oval" cx="34" cy="7" r="1"/><circle id="Oval" cx="38" cy="7" r="1"/><circle id="Oval" cx="42" cy="7" r="1"/><circle id="Oval" cx="18" cy="53" r="1"/><circle id="Oval" cx="22" cy="53" r="1"/><circle id="Oval" cx="26" cy="53" r="1"/><circle id="Oval" cx="30" cy="53" r="1"/><circle id="Oval" cx="34" cy="53" r="1"/><circle id="Oval" cx="38" cy="53" r="1"/><circle id="Oval" cx="42" cy="53" r="1"/></g></g></g></svg>