<svg height="512" viewBox="0 0 64 64" width="512" xmlns="http://www.w3.org/2000/svg"><g id="Cable_Data" data-name="Cable Data"><path d="m49 17h-2v8a2.006 2.006 0 0 0 2 2h10a2.006 2.006 0 0 0 2-2v-8z" fill="#9bc9ff"/><path d="m5 11h-2v8a2.006 2.006 0 0 0 2 2h10a2.006 2.006 0 0 0 2-2v-8z" fill="#9bc9ff"/><g fill="#57a4ff"><path d="m7 5h2v2h-2z"/><path d="m11 5h2v2h-2z"/><path d="m61 16h-1v-7a1 1 0 0 0 -1-1h-10a1 1 0 0 0 -1 1v7h-1a1 1 0 0 0 -1 1v8a3 3 0 0 0 3 3h1v3a3 3 0 0 0 3 3v5a20.991 20.991 0 0 1 -9.39 17.483 15 15 0 1 0 -23.22 0 20.991 20.991 0 0 1 -9.39-17.483v-11a3 3 0 0 0 3-3v-3h1a3 3 0 0 0 3-3v-8a1 1 0 0 0 -1-1h-1v-7a1 1 0 0 0 -1-1h-10a1 1 0 0 0 -1 1v7h-1a1 1 0 0 0 -1 1v8a3 3 0 0 0 3 3h1v3a3 3 0 0 0 3 3v11a23 23 0 0 0 46 0v-5a3 3 0 0 0 3-3v-3h1a3 3 0 0 0 3-3v-8a1 1 0 0 0 -1-1zm-55-12h8v6h-8zm-2 15v-7h12v7a1 1 0 0 1 -1 1h-10a1 1 0 0 1 -1-1zm4 6v-3h4v3a1 1 0 0 1 -1 1h-2a1 1 0 0 1 -1-1zm15 26a9 9 0 1 1 9 9 9.01 9.01 0 0 1 -9-9zm9-17a12.978 12.978 0 0 1 10.246 20.972 11 11 0 1 0 -20.492 0 12.978 12.978 0 0 1 10.246-20.972zm18-24h8v6h-8zm6 21a1 1 0 0 1 -1 1h-2a1 1 0 0 1 -1-1v-3h4zm4-6a1 1 0 0 1 -1 1h-10a1 1 0 0 1 -1-1v-7h12z"/><path d="m51 11h2v2h-2z"/><path d="m55 11h2v2h-2z"/></g></g></svg>