<svg id="Capa_1" enable-background="new 0 0 512 512" height="512" viewBox="0 0 512 512" width="512" xmlns="http://www.w3.org/2000/svg"><g><path d="m512 256c0 141.385-114.615 256-256 256s-256-114.615-256-256 114.615-256 256-256 256 114.615 256 256z" fill="#453d83"/><path d="m472 256c0 119.294-96.706 216-216 216s-216-96.706-216-216 96.706-216 216-216 216 96.706 216 216z" fill="#51489a"/><path d="m146.556 434.883c0 4.296-3.482 7.778-7.778 7.778s-7.778-3.482-7.778-7.778 3.482-7.778 7.778-7.778 7.778 3.482 7.778 7.778zm19.444-7.778c-4.296 0-7.778 3.482-7.778 7.778s3.482 7.778 7.778 7.778 7.778-3.482 7.778-7.778-3.482-7.778-7.778-7.778zm27.222 0c-4.296 0-7.778 3.482-7.778 7.778s3.482 7.778 7.778 7.778 7.778-3.482 7.778-7.778-3.482-7.778-7.778-7.778zm157.778-157.105c-2.761 0-5 2.238-5 5v50c0 2.761 2.239 5 5 5s5-2.239 5-5v-50c0-2.762-2.239-5-5-5zm25 15v30c0 2.761-2.239 5-5 5s-5-2.239-5-5v-30c0-2.762 2.239-5 5-5s5 2.238 5 5zm20 7.5v15c0 2.761-2.239 5-5 5s-5-2.239-5-5v-15c0-2.762 2.239-5 5-5s5 2.238 5 5zm-230-17.5v50c0 2.761-2.239 5-5 5s-5-2.239-5-5v-50c0-2.762 2.239-5 5-5s5 2.238 5 5zm-20 10v30c0 2.761-2.239 5-5 5s-5-2.239-5-5v-30c0-2.762 2.239-5 5-5s5 2.238 5 5zm-20 7.5v15c0 2.761-2.239 5-5 5s-5-2.239-5-5v-15c0-2.762 2.239-5 5-5s5 2.238 5 5z" fill="#6990d7"/><path d="m469 275.733v50.96c0 11.046-8.954 20-20 20h-35.801c-11.046 0-20-8.954-20-20v-50.96c0-11.046 8.954-20 20-20h35.801c11.046 0 20 8.955 20 20zm-370.199-20h-35.801c-11.046 0-20 8.954-20 20v50.96c0 11.046 8.954 20 20 20h35.801c11.046 0 20-8.954 20-20v-50.96c0-11.045-8.955-20-20-20z" fill="#1380e2"/><path d="m118.801 275.733v14.96c0 11.046-8.954 20-20 20h-35.801c-11.046 0-20-8.954-20-20v-14.96c0-11.046 8.954-20 20-20h35.801c11.045 0 20 8.955 20 20zm330.199-20h-35.801c-11.046 0-20 8.954-20 20v14.96c0 11.046 8.954 20 20 20h35.801c11.046 0 20-8.954 20-20v-14.96c0-11.045-8.954-20-20-20z" fill="#55a4f9"/><path d="m435.771 222.499v62.644h-15v-62.644c0-90.854-73.916-164.771-164.771-164.771s-164.771 73.917-164.771 164.771v62.644h-15v-62.644c0-99.126 80.645-179.771 179.771-179.771s179.771 80.645 179.771 179.771z" fill="#fff"/><path d="m99.851 257.774v86.879c0 5.522-4.477 10-10 10h-10.321c-5.523 0-10-4.478-10-10v-86.879c0-5.523 4.477-10 10-10h10.32c5.523 0 10.001 4.477 10.001 10zm332.619-10h-10.32c-5.523 0-10 4.477-10 10v86.879c0 5.522 4.477 10 10 10h10.32c5.523 0 10-4.478 10-10v-86.879c0-5.523-4.477-10-10-10z" fill="#86befb"/><path d="m99.851 282.774v29.653c0 5.522-4.477 10-10 10h-10.321c-5.523 0-10-4.478-10-10v-29.653c0-5.523 4.477-10 10-10h10.32c5.523 0 10.001 4.477 10.001 10zm332.619-10h-10.32c-5.523 0-10 4.477-10 10v29.653c0 5.522 4.477 10 10 10h10.32c5.523 0 10-4.478 10-10v-29.653c0-5.523-4.477-10-10-10z" fill="#c8e2fd"/><path d="m335.698 309.698c0 44.016-35.682 79.698-79.698 79.698s-79.698-35.682-79.698-79.698 35.682-79.698 79.698-79.698 79.698 35.682 79.698 79.698z" fill="#ffc14f"/><path d="m335.698 309.698c0 14.933-4.107 28.907-11.253 40.854-11.947 7.146-25.92 11.253-40.853 11.253-44.016 0-79.698-35.682-79.698-79.698 0-14.933 4.107-28.907 11.253-40.854 11.946-7.146 25.92-11.253 40.853-11.253 44.016 0 79.698 35.682 79.698 79.698z" fill="#fff04a"/><path d="m244.777 231.538c.957-.297 1.824.665 1.42 1.583-6.972 15.827-22.791 26.879-41.196 26.879-24.759.001-45.003-20.244-45.001-45.003.001-18.431 11.085-34.268 26.949-41.224.891-.391 1.825.449 1.535 1.378-1.697 5.443-2.393 11.327-1.856 17.443 1.89 21.529 19.225 38.875 40.753 40.776 6.097.538 11.965-.148 17.396-1.832z" fill="#c50048"/><path d="m250 215c0 6.618-1.429 12.901-3.994 18.56-5.659 2.565-11.943 3.994-18.56 3.994-24.853 0-45-20.147-45-45 0-6.618 1.429-12.901 3.994-18.56 5.659-2.565 11.942-3.994 18.56-3.994 24.853 0 45 20.147 45 45z" fill="#f44545"/><path d="m350 155c0 19.33-15.67 35-35 35s-35-15.67-35-35 15.67-35 35-35 35 15.67 35 35z" fill="#5db33a"/><path d="m350 155c0 4.995-1.047 9.746-2.932 14.045-4.299 1.886-9.05 2.932-14.045 2.932-19.33 0-35-15.67-35-35 0-4.995 1.047-9.746 2.932-14.045 4.299-1.885 9.05-2.932 14.045-2.932 19.33 0 35 15.67 35 35z" fill="#6dc54a"/><path d="m240 110c0 11.046-8.954 20-20 20s-20-8.954-20-20 8.954-20 20-20 20 8.954 20 20z" fill="#55a4f9"/><path d="m240 110c0 2.25-.372 4.414-1.057 6.432-2.019.686-4.182 1.057-6.432 1.057-11.046 0-20-8.954-20-20 0-2.25.372-4.414 1.057-6.432 2.018-.685 4.182-1.057 6.432-1.057 11.046 0 20 8.954 20 20z" fill="#86befb"/><path d="m377.074 99.041c-2.966 3.598-7.258 5.459-11.583 5.459-3.359 0-6.738-1.122-9.532-3.425-28.045-23.116-63.544-35.846-99.959-35.846s-71.914 12.73-99.958 35.847c-6.392 5.269-15.846 4.356-21.115-2.034-5.269-6.393-4.358-15.847 2.034-21.116 33.403-27.534 75.679-42.697 119.039-42.697s85.636 15.163 119.04 42.696c6.392 5.269 7.303 14.723 2.034 21.116z" fill="#55a4f9"/><path d="m377.074 99.041c-2.966 3.598-7.258 5.459-11.583 5.459-3.359 0-6.738-1.122-9.532-3.425-28.045-23.116-63.544-35.846-99.959-35.846-13.669 0-27.21 1.794-40.275 5.258-9.574 2.538-18.98-4.552-18.98-14.457 0-6.842 4.643-12.772 11.256-14.528 15.571-4.133 31.709-6.273 47.999-6.273 43.36 0 85.636 15.163 119.04 42.696 6.392 5.269 7.303 14.723 2.034 21.116z" fill="#86befb"/><path d="m420 335.039v28.208c0 42.873-34.88 77.753-77.753 77.753h-100.009c-2.761 0-5-2.238-5-5s2.239-5 5-5h100.009c37.359 0 67.753-30.394 67.753-67.753v-28.208c0-2.762 2.239-5 5-5s5 2.238 5 5z" fill="#fff"/><path d="m290.384 429.723v10.32c0 5.523-4.477 10-10 10h-40.641c-5.523 0-10-4.477-10-10v-10.32c0-5.522 4.477-10 10-10h40.641c5.523 0 10 4.477 10 10z" fill="#55a4f9"/><path d="m281 450.043h-15.096c-8.373 0-15.16-6.787-15.16-15.16 0-8.373 6.787-15.16 15.16-15.16h15.096c5.523 0 10 4.477 10 10v10.32c0 5.523-4.477 10-10 10z" fill="#86befb"/><path d="m255.951 255.494c3.144 0 5.693 2.549 5.693 5.693v67.217c0 3.144-2.549 5.693-5.693 5.693s-5.693-2.549-5.693-5.693v-67.217c0-3.144 2.549-5.693 5.693-5.693zm.049 108.407c3.773 0 6.831-3.058 6.831-6.831s-3.058-6.831-6.831-6.831-6.831 3.058-6.831 6.831 3.058 6.831 6.831 6.831z" fill="#f29500"/><path d="m210.742 235.435v-40.869c0-3.171-2.571-5.742-5.742-5.742-3.171 0-5.742 2.571-5.742 5.742v40.869c0 3.171 2.571 5.742 5.742 5.742 3.171 0 5.742-2.571 5.742-5.742z" fill="#fff5f5"/></g></svg>