<svg id="Layer_35" enable-background="new 0 0 64 64" height="512" viewBox="0 0 64 64" width="512" xmlns="http://www.w3.org/2000/svg" xmlns:xlink="http://www.w3.org/1999/xlink"><linearGradient id="SVGID_1_" gradientUnits="userSpaceOnUse" x1="32" x2="32" y1="63" y2="1"><stop offset="0" stop-color="#9f2fff"/><stop offset="1" stop-color="#0bb1d3"/></linearGradient><path d="m33 5h-2v-4h2zm-12.313 4.272-2.829-2.828-1.414 1.414 2.829 2.828zm-5.687 11.728h-4v2h4zm38 0h-4v2h4zm-5.443-13.142-1.414-1.414-2.829 2.828 1.414 1.414zm1.443 36.788v12.354h9c2.757 0 5 2.243 5 5v1h-62v-1c0-2.757 2.243-5 5-5h5.351c-.218-.456-.351-.961-.351-1.5v-1.5c0-7.933 6.195-14.431 14-14.949v-4.431c-5.094-2.643-8-7.21-8-12.62 0-8.271 6.729-15 15-15s15 6.729 15 15c0 5.41-2.906 9.977-8 12.62v3.715l5.608-1.202c2.842-.608 5.132-2.713 5.978-5.493l4.891-16.07c.469-1.537 1.862-2.57 3.469-2.57h.43c1.998 0 3.624 1.626 3.624 3.625 0 .346-.049.688-.146 1.018l-4.761 16.326c-1.378 4.721-4.673 8.579-9.093 10.677zm-17-.165 3.046-3.481h-6.092zm-5-5.481h8.895l1.105-.237v-3.763h-10zm6.307-6 5.441-14.508-2.643-1.321-3.105 2.329v13.5zm-2.307-13.5-3.105-2.329-2.643 1.321 5.441 14.508h.307zm-5.699 21.535 1.377 9.637 3.999-4.666-4.381-5.006h-.296c-.236 0-.466.023-.699.035zm8.022 4.972 3.999 4.666 1.464-10.247-.714.153zm-7.083-13.007h2.317l-5.809-15.492 5.357-2.679 3.895 2.921 3.895-2.921 5.357 2.679-5.809 15.492h2.317c4.602-2.264 7.24-6.26 7.24-11 0-7.168-5.832-13-13-13s-13 5.832-13 13c0 4.74 2.638 8.736 7.24 11zm-11.74 24h18c.827 0 1.5-.673 1.5-1.5s-.673-1.5-1.5-1.5h-16.5v-6h2v4h6.847l-1.531-10.718c-5.884 1.241-10.316 6.47-10.316 12.718v1.5c0 .827.673 1.5 1.5 1.5zm43.5 2h-25.5-18-8.5c-1.304 0-2.416.836-2.829 2h57.658c-.413-1.164-1.525-2-2.829-2zm-11-2v-13.66l.606-.259c4.172-1.788 7.295-5.313 8.566-9.672l4.762-16.329c.045-.148.066-.301.066-.455 0-.896-.729-1.625-1.625-1.625h-.43c-.72 0-1.345.463-1.555 1.152l-4.89 16.07c-1.058 3.475-3.921 6.106-7.473 6.867l-4.156.88-2.193 15.359-6.678-7.791-3.826 4.463h4.326c1.93 0 3.5 1.57 3.5 3.5 0 .539-.133 1.044-.351 1.5z" fill="url(#SVGID_1_)"/></svg>