<?xml version="1.0"?>
<svg xmlns="http://www.w3.org/2000/svg" xmlns:xlink="http://www.w3.org/1999/xlink" viewBox="0 0 64 64" width="512" height="512"><defs><linearGradient id="New_Gradient_Swatch_3" x1="32.229" y1="62.418" x2="31.787" y2="3.696" gradientUnits="userSpaceOnUse"><stop offset="0" stop-color="#006df0"/><stop offset="1" stop-color="#00e7f0"/></linearGradient><linearGradient id="New_Gradient_Swatch_3-2" x1="32.18" y1="62.418" x2="31.738" y2="3.696" xlink:href="#New_Gradient_Swatch_3"/><linearGradient id="New_Gradient_Swatch_3-3" x1="32.011" y1="62.42" x2="31.569" y2="3.697" xlink:href="#New_Gradient_Swatch_3"/><linearGradient id="New_Gradient_Swatch_3-4" x1="32.176" y1="62.418" x2="31.735" y2="3.696" xlink:href="#New_Gradient_Swatch_3"/></defs><g id="Internet_connection" data-name="Internet connection"><path d="M62,32a4,4,0,0,0-3.3-3.929,27.007,27.007,0,0,0-22.77-22.78,3.99,3.99,0,0,0-7.856,0A27.006,27.006,0,0,0,5.3,28.071a3.989,3.989,0,0,0,0,7.858A27.018,27.018,0,0,0,28.9,58.823l.533-2.333c-2.8-1.109-5.328-4-7.209-8.166A4,4,0,0,0,20,41c-.039,0-.075.01-.113.011a44.108,44.108,0,0,1-.725-5.2,3.972,3.972,0,0,0,0-7.614,43.586,43.586,0,0,1,.951-6.2,4,4,0,0,0,3.218-1.781,45.667,45.667,0,0,0,4.761.631,4,4,0,0,0,7.816,0,45.667,45.667,0,0,0,4.761-.631,4,4,0,0,0,3.218,1.781,43.586,43.586,0,0,1,.951,6.2,3.973,3.973,0,0,0,0,7.615,43.367,43.367,0,0,1-.735,5.2c-.035,0-.068-.011-.1-.011a4,4,0,0,0-2.22,7.324c-1.881,4.162-4.413,7.057-7.209,8.166l.533,2.333A27.017,27.017,0,0,0,58.7,35.929,4,4,0,0,0,62,32Zm-5.3-3.765A3.989,3.989,0,0,0,54.142,31H49.858a4,4,0,0,0-3.022-2.909,45.607,45.607,0,0,0-1-6.557,3.984,3.984,0,0,0,2.155-3.425A27.18,27.18,0,0,0,51.5,16.4,24.646,24.646,0,0,1,56.7,28.235Zm-6.54-13.359a25.781,25.781,0,0,1-2.641,1.267,3.942,3.942,0,0,0-4.283-2.066A20.617,20.617,0,0,0,38.9,7.984,24.752,24.752,0,0,1,50.162,14.876ZM32,4a2,2,0,1,1-2,2A2,2,0,0,1,32,4ZM25.1,7.984a20.617,20.617,0,0,0-4.341,6.093,3.942,3.942,0,0,0-4.283,2.066,25.8,25.8,0,0,1-2.642-1.267A24.754,24.754,0,0,1,25.1,7.984ZM12.5,16.4a27.18,27.18,0,0,0,3.515,1.705,3.984,3.984,0,0,0,2.155,3.425,45.607,45.607,0,0,0-1,6.557A4,4,0,0,0,14.142,31H9.858A3.989,3.989,0,0,0,7.3,28.235,24.659,24.659,0,0,1,12.5,16.4ZM4,32a2,2,0,1,1,2,2A2,2,0,0,1,4,32ZM25.1,56.016a24.756,24.756,0,0,1-11.266-6.892,26.2,26.2,0,0,1,3.18-1.484A3.978,3.978,0,0,0,20,49c.109,0,.212-.024.319-.032A21.316,21.316,0,0,0,25.1,56.016ZM22,45a2,2,0,1,1-2-2A2,2,0,0,1,22,45Zm-6,0a4.024,4.024,0,0,0,.1.856,27.408,27.408,0,0,0-3.6,1.74A24.646,24.646,0,0,1,7.3,35.765,3.989,3.989,0,0,0,9.858,33h4.284a4,4,0,0,0,3.022,2.909,46.127,46.127,0,0,0,.8,5.667A3.985,3.985,0,0,0,16,45Zm4-13a2,2,0,1,1-2-2A2,2,0,0,1,20,32Zm0-12a2,2,0,1,1,2-2A2,2,0,0,1,20,20Zm8.192-1.159c-1.468-.122-2.881-.3-4.222-.547.008-.1.03-.193.03-.294a3.978,3.978,0,0,0-1.441-3.049c1.629-3.329,3.7-5.77,5.967-7.006A3.992,3.992,0,0,0,31,9.858v6.284A3.986,3.986,0,0,0,28.192,18.841ZM32,22a2,2,0,1,1,2-2A2,2,0,0,1,32,22Zm3.808-3.159A3.986,3.986,0,0,0,33,16.142V9.858a3.992,3.992,0,0,0,2.474-1.913c2.263,1.236,4.338,3.677,5.967,7.006A3.978,3.978,0,0,0,40,18c0,.1.022.2.03.294C38.689,18.537,37.276,18.719,35.808,18.841ZM42,18a2,2,0,1,1,2,2A2,2,0,0,1,42,18Zm2,14a2,2,0,1,1,2,2A2,2,0,0,1,44,32Zm0,11a2,2,0,1,1-2,2A2,2,0,0,1,44,43ZM38.9,56.016a21.316,21.316,0,0,0,4.785-7.048c.107.008.21.032.319.032a3.976,3.976,0,0,0,2.982-1.36,26.812,26.812,0,0,1,3.177,1.488A24.753,24.753,0,0,1,38.9,56.016ZM51.5,47.6a28.139,28.139,0,0,0-3.6-1.745A3.942,3.942,0,0,0,48,45a3.988,3.988,0,0,0-1.971-3.428,45.189,45.189,0,0,0,.808-5.663A4,4,0,0,0,49.858,33h4.284a3.989,3.989,0,0,0,2.56,2.765A24.654,24.654,0,0,1,51.5,47.6ZM58,34a2,2,0,1,1,2-2A2,2,0,0,1,58,34Z" style="fill:url(#New_Gradient_Swatch_3)"/><path d="M38,43V34H36V26H28v8H26v9a5.006,5.006,0,0,0,5,5V59h2V48A5.006,5.006,0,0,0,38,43ZM30,28h1v2h2V28h1v6H30Zm6,15a3,3,0,0,1-3,3V42H31v4a3,3,0,0,1-3-3V36h8Z" style="fill:url(#New_Gradient_Swatch_3-2)"/><rect x="31" y="60" width="2" height="2" style="fill:url(#New_Gradient_Swatch_3-3)"/><rect x="31" y="38" width="2" height="2" style="fill:url(#New_Gradient_Swatch_3-4)"/></g></svg>
