<svg height="512" viewBox="0 0 512 512" width="512" xmlns="http://www.w3.org/2000/svg"><g><g fill="#57a4ff"><path d="m384 386.01h-32a64.687 64.687 0 0 1 32 0z"/><path d="m184 128h24v48h-24z"/><path d="m80 128h24v48h-24z"/><path d="m432 448h-128a64 64 0 1 1 128 0z"/><path d="m88 72h112v24h-112z"/><path d="m184 217v30a40 40 0 0 1 -80 0v-34l5.49.27c8.18.91 9.98 3.73 21.17 3.73a39.952 39.952 0 0 0 13.34-2 39.836 39.836 0 0 1 13.33-2c11.2 0 13 2.82 21.18 3.73a50.52 50.52 0 0 0 5.49.27z"/><path d="m109.49 213.27-5.49-.27a50.52 50.52 0 0 1 5.49.27z"/><path d="m184 217a50.52 50.52 0 0 1 -5.49-.27z"/><path d="m109.49 213.27-5.49-.27a50.52 50.52 0 0 1 5.49.27z"/><path d="m184 217a50.52 50.52 0 0 1 -5.49-.27z"/><path d="m120 360a24 24 0 0 0 48 0c0-13.255-24-40-24-40s-24 26.745-24 40z"/></g><g fill="#004fac"><path d="m503.49 469.19-9-24a8.005 8.005 0 0 0 -7.49-5.19h-47.46a72.159 72.159 0 0 0 -47.54-59.87v-324.13a24 24 0 0 0 -48 0v72h-128a8 8 0 0 0 -8-8h-16v-16h8a8 8 0 0 0 8-8v-24a8 8 0 0 0 -8-8h-112a8 8 0 0 0 -8 8v24a8 8 0 0 0 8 8h8v16h-16a8 8 0 0 0 -8 8v48a8 8 0 0 0 8 8h16v63a48 48 0 0 0 96 0v-63h16a8 8 0 0 0 8-8h128v204.13a72.159 72.159 0 0 0 -47.54 59.87h-80.46v-16a32.03 32.03 0 0 0 -32-32h-80a32.03 32.03 0 0 0 -32 32v16h-48a8 8 0 0 0 -7.59 5.47l-8 24a8 8 0 0 0 7.59 10.53h480a7.992 7.992 0 0 0 7.49-10.81zm-407.49-301.19h-8v-32h8zm80 79a32 32 0 0 1 -64 0v-25.18c1.03.24 2 .53 3.03.84a47.343 47.343 0 0 0 15.63 2.34 47.414 47.414 0 0 0 15.64-2.34 32 32 0 0 1 11.03-1.66 32.106 32.106 0 0 1 11.04 1.66 50.169 50.169 0 0 0 7.63 1.81zm0-38.82c-1.03-.24-2-.53-3.04-.84a47.343 47.343 0 0 0 -15.63-2.34 47.343 47.343 0 0 0 -15.63 2.34 32.063 32.063 0 0 1 -11.04 1.66 32.041 32.041 0 0 1 -11.03-1.66 50.169 50.169 0 0 0 -7.63-1.81v-101.53h64zm-80-120.18v-8h96v8zm104 80h-8v-32h8zm16-8v-16h136a8 8 0 0 0 8-8v-80a8 8 0 0 1 16 0v320.46a69.8 69.8 0 0 0 -16 0v-208.46a8 8 0 0 0 -8-8zm152 232a56.086 56.086 0 0 1 55.42 48h-110.84a56.086 56.086 0 0 1 55.42-48zm-280 32a16.021 16.021 0 0 1 16-16h80a16.021 16.021 0 0 1 16 16v16h-112zm-60.9 40 2.67-8h451.69l3 8z"/><path d="m176 360c0-15.531-21.7-40.5-26.046-45.343a8 8 0 0 0 -11.908 0c-.257.286-6.36 7.107-12.541 15.7-9.088 12.643-13.505 22.334-13.505 29.643a32 32 0 0 0 64 0zm-32 16a16.019 16.019 0 0 1 -16-16c0-4.125 5.981-15.2 16-27.651 10.02 12.451 16 23.526 16 27.651a16.019 16.019 0 0 1 -16 16z"/></g></g></svg>