<svg height="480pt" viewBox="0 0 480 480" width="480pt" xmlns="http://www.w3.org/2000/svg"><path d="m8 184c0 17.671875 14.328125 32 32 32h208c17.671875 0 32-14.328125 32-32zm0 0" fill="#9bc9ff"/><path d="m216 440h-16c0 17.671875 14.328125 32 32 32h208c17.671875 0 32-14.328125 32-32zm0 0" fill="#9bc9ff"/><path d="m264 8h-240v176h240zm-24 152h-192v-128h192zm0 0" fill="#9bc9ff"/><path d="m216 264v176h240v-176zm216 152h-192v-128h192zm0 0" fill="#9bc9ff"/><g fill="#1e81ce"><path d="m248 224c22.082031-.027344 39.972656-17.917969 40-40 0-4.417969-3.582031-8-8-8h-8v-168c0-4.417969-3.582031-8-8-8h-240c-4.417969 0-8 3.582031-8 8v168h-8c-4.417969 0-8 3.582031-8 8 .0273438 22.082031 17.917969 39.972656 40 40zm-216-208h224v160h-224zm-14.632812 176h253.265624c-3.402343 9.582031-12.464843 15.988281-22.632812 16h-208c-10.167969-.011719-19.230469-6.417969-22.632812-16zm0 0"/><path d="m40 168h56v-16h-40v-112h176v112h-40v16h56v-144h-208zm0 0"/><path d="m112 152h16v16h-16zm0 0"/><path d="m136 152h16v16h-16zm0 0"/><path d="m160 152h16v16h-16zm0 0"/><path d="m472 432h-8v-168c0-4.417969-3.582031-8-8-8h-240c-4.417969 0-8 3.582031-8 8v168h-8c-4.417969 0-8 3.582031-8 8 .027344 22.082031 17.917969 39.972656 40 40h208c22.082031-.027344 39.972656-17.917969 40-40 0-4.417969-3.582031-8-8-8zm-248-160h224v160h-224zm216 192h-208c-10.167969-.011719-19.230469-6.417969-22.632812-16h253.265624c-3.402343 9.582031-12.464843 15.988281-22.632812 16zm0 0"/><path d="m232 424h56v-16h-40v-112h176v112h-40v16h56v-144h-208zm0 0"/><path d="m304 408h16v16h-16zm0 0"/><path d="m328 408h16v16h-16zm0 0"/><path d="m352 408h16v16h-16zm0 0"/><path d="m408 142.863281v97.136719h16v-97.136719c15.097656-3.867187 25.199219-18.070312 23.898438-33.601562-1.304688-15.535157-13.625-27.855469-29.160157-29.160157-15.53125-1.300781-29.734375 8.800782-33.601562 23.898438h-97.136719v16h97.136719c2.925781 11.195312 11.667969 19.9375 22.863281 22.863281zm8-46.863281c8.835938 0 16 7.164062 16 16s-7.164062 16-16 16-16-7.164062-16-16 7.164062-16 16-16zm0 0"/><path d="m192 376v-16h-97.136719c-2.925781-11.195312-11.667969-19.9375-22.863281-22.863281v-97.136719h-16v97.136719c-15.097656 3.867187-25.199219 18.070312-23.898438 33.601562 1.304688 15.535157 13.625 27.855469 29.160157 29.160157 15.53125 1.300781 29.734375-8.800782 33.601562-23.898438zm-128 8c-8.835938 0-16-7.164062-16-16s7.164062-16 16-16 16 7.164062 16 16-7.164062 16-16 16zm0 0"/></g></svg>