<svg id="Layer_5" enable-background="new 0 0 64 64" height="512" viewBox="0 0 64 64" width="512" xmlns="http://www.w3.org/2000/svg" xmlns:xlink="http://www.w3.org/1999/xlink"><linearGradient id="SVGID_1_" gradientUnits="userSpaceOnUse" x1="31.854" x2="31.854" y1="63" y2="1"><stop offset="0" stop-color="#9f2fff"/><stop offset="1" stop-color="#0bb1d3"/></linearGradient><path d="m4 57h1.184c-.112.314-.184.648-.184 1v2c0 1.654 1.346 3 3 3h16c1.654 0 3-1.346 3-3v-2c0-1.654-1.346-3-3-3h-1.184c.112-.314.184-.648.184-1v-2c0-.352-.072-.686-.184-1h1.184c1.654 0 3-1.346 3-3v-2c0-1.654-1.346-3-3-3h-1.184c.112-.314.184-.648.184-1v-2c0-1.654-1.346-3-3-3h-16c-1.654 0-3 1.346-3 3v2c0 1.654 1.346 3 3 3h1.184c-.112.314-.184.648-.184 1v2c0 .352.072.686.184 1h-1.184c-1.654 0-3 1.346-3 3v2c0 1.654 1.346 3 3 3zm21 1v2c0 .552-.448 1-1 1h-16c-.552 0-1-.448-1-1v-2c0-.552.448-1 1-1h1v2h2v-2h2v2h2v-2h2v2h2v-2h1 1v2h2v-2h1c.552 0 1 .448 1 1zm-22-16v-2c0-.552.448-1 1-1h1v2h2v-2h2v2h2v-2h2v2h2v-2h2v2h2v-2h1c.552 0 1 .448 1 1v2c0 .552-.448 1-1 1h-12-4c-.552 0-1-.448-1-1zm4 6v-2c0-.552.448-1 1-1h1v2h2v-2h2v2h2v-2h2v2h2v-2h1 1v2h2v-2h1c.552 0 1 .448 1 1v2c0 .552-.448 1-1 1h-4-12c-.552 0-1-.448-1-1zm-4 4c0-.552.448-1 1-1h1v2h2v-2h1 1v2h2v-2h2v2h2v-2h2v2h2v-2h1c.552 0 1 .448 1 1v2c0 .552-.448 1-1 1h-12-4c-.552 0-1-.448-1-1zm30 2c0 1.654 1.346 3 3 3h1.184c-.112.314-.184.648-.184 1v2c0 1.654 1.346 3 3 3h16c1.654 0 3-1.346 3-3v-2c0-1.654-1.346-3-3-3h-1.184c.112-.314.184-.648.184-1v-2c0-.352-.072-.686-.184-1h1.184c1.654 0 3-1.346 3-3v-2c0-1.654-1.346-3-3-3h-3.111c1.113-1.088 1.863-2.543 2.056-4.167 1.19-.399 2.055-1.511 2.055-2.833 0-1.281-.811-2.369-1.944-2.798.173-1.365.783-2.628 1.772-3.616l.364-.364c2.455-2.456 3.808-5.721 3.808-9.222 0-7.168-5.832-13-13-13s-13 5.832-13 13.029c0 3.472 1.353 6.736 3.808 9.192l.364.364c.988.988 1.598 2.251 1.772 3.616-1.133.43-1.944 1.518-1.944 2.799 0 1.322.865 2.434 2.054 2.833.194 1.624.944 3.079 2.056 4.167h-3.11c-1.654 0-3 1.346-3 3v2c0 .352.072.686.184 1h-1.184c-1.654 0-3 1.346-3 3zm24 4v2c0 .552-.448 1-1 1h-16c-.552 0-1-.448-1-1v-2c0-.552.448-1 1-1h1v2h2v-2h2v2h2v-2h2v2h2v-2h1 1v2h2v-2h1c.552 0 1 .448 1 1zm-3-21h-12c-.552 0-1-.448-1-1s.448-1 1-1h12c.552 0 1 .448 1 1s-.448 1-1 1zm-13.778-9.192c-2.077-2.079-3.222-4.841-3.222-7.808 0-6.065 4.935-11 11-11s11 4.935 11 11.029c0 2.938-1.145 5.7-3.222 7.778l-.364.364c-1.318 1.318-2.128 3.005-2.347 4.828h-10.134c-.219-1.823-1.029-3.51-2.347-4.828zm2.879 11.192h9.798c-.465 2.279-2.484 4-4.899 4s-4.434-1.721-4.899-4zm-4.101 9v-2c0-.552.448-1 1-1h1v2h2v-2h2v2h2v-2h2v2h2v-2h2v2h2v-2h1c.552 0 1 .448 1 1v2c0 .552-.448 1-1 1h-4-12c-.552 0-1-.448-1-1zm-4 4c0-.552.448-1 1-1h1v2h2v-2h1 1v2h2v-2h2v2h2v-2h2v2h2v-2h1c.552 0 1 .448 1 1v2c0 .552-.448 1-1 1h-12-4c-.552 0-1-.448-1-1zm14-47h-2v-4h2zm-12.707 4.707-3-3 1.414-1.414 3 3zm26.414-3-3 3-1.414-1.414 3-3zm-18.707 17.387v-2.094h2v2.094c0 1.051.854 1.906 1.905 1.906h.189c1.052 0 1.906-.855 1.906-1.906 0-.821-.523-1.548-1.304-1.808l-2.025-.676c-1.598-.532-2.671-2.021-2.671-3.704 0-1.841 1.284-3.378 3-3.789v-2.117h2v2.117c1.716.411 3 1.948 3 3.789v1.094h-2v-1.094c0-1.051-.854-1.906-1.905-1.906h-.189c-1.052 0-1.906.855-1.906 1.906 0 .821.523 1.548 1.304 1.808l2.025.676c1.598.532 2.671 2.021 2.671 3.704 0 1.841-1.284 3.378-3 3.789v2.117h-2v-2.117c-1.716-.41-3-1.948-3-3.789zm-25-13.094h2v14h-2.382l3.829 7.658c.211.421.895.422 1.105 0l3.83-7.658h-2.382v-20h2v18h3.618l-5.276 10.553c-.447.892-1.345 1.447-2.342 1.447s-1.895-.555-2.342-1.446l-5.276-10.554h3.618zm2-2h-2v-2h2zm-8-4h-2v-2h2zm-6 14h-2.382l3.829 7.658c.211.422.895.422 1.105 0l3.83-7.658h-2.382v-12h2v10h3.618l-5.276 10.553c-.447.892-1.344 1.447-2.342 1.447s-1.895-.555-2.342-1.447l-5.276-10.553h3.618v-16h2z" fill="url(#SVGID_1_)"/></svg>