<svg enable-background="new 0 0 59 58" height="512" viewBox="0 0 59 58" width="512" xmlns="http://www.w3.org/2000/svg"><path d="m54 47c-.552 0-1-.448-1-1v-4h-47v4c0 .552-.448 1-1 1s-1-.448-1-1v-5c0-.552.448-1 1-1h49c.552 0 1 .448 1 1v5c0 .552-.448 1-1 1z" fill="#9eebf9"/><path d="m30 47c-.552 0-1-.448-1-1v-10c0-.552.448-1 1-1s1 .448 1 1v10c0 .552-.448 1-1 1z" fill="#9eebf9"/><path d="m11 58h-10c-.552 0-1-.448-1-1v-10c0-.552.448-1 1-1h10c.552 0 1 .448 1 1v10c0 .552-.448 1-1 1z" fill="#5469e0"/><path d="m58 58h-10c-.552 0-1-.448-1-1v-10c0-.552.448-1 1-1h10c.552 0 1 .448 1 1v10c0 .552-.448 1-1 1z" fill="#5469e0"/><path d="m35 58h-10c-.552 0-1-.448-1-1v-10c0-.552.448-1 1-1h10c.552 0 1 .448 1 1v10c0 .552-.448 1-1 1z" fill="#5469e0"/><g fill="#9eebf9"><path d="m8 55h-4c-.552 0-1-.448-1-1v-4c0-.552.448-1 1-1h4c.552 0 1 .448 1 1s-.448 1-1 1h-3v2h3c.552 0 1 .448 1 1s-.448 1-1 1z"/><path d="m55 55h-4c-.552 0-1-.448-1-1s.448-1 1-1h3v-2h-3c-.552 0-1-.448-1-1s.448-1 1-1h4c.552 0 1 .448 1 1v4c0 .552-.448 1-1 1z"/><path d="m32 55h-4c-.552 0-1-.448-1-1v-4c0-.552.448-1 1-1h4c.552 0 1 .448 1 1v4c0 .552-.448 1-1 1zm-3-2h2v-2h-2z"/></g><path d="m30 18c-4.971 0-9-4.029-9-9v-6h18v6c0 4.971-4.029 9-9 9z" fill="#c6e2f7"/><path d="m21.231 11c.91 4.007 4.487 7 8.769 7s7.859-2.993 8.769-7z" fill="#f7e6a1"/><path d="m30 18c4.971 0 9 4.029 9 9v6h-18v-6c0-4.971 4.029-9 9-9z" fill="#c6e2f7"/><path d="m30 26c-5 0-9 6-9 6h18s-4-6-9-6z" fill="#f7e6a1"/><path d="m30 23c-.552 0-1-.448-1-1v-4c0-.552.448-1 1-1s1 .448 1 1v4c0 .552-.448 1-1 1z" fill="#fff"/><path d="m40 4h-20c-1.105 0-2-.895-2-2 0-1.105.895-2 2-2h20c1.105 0 2 .895 2 2 0 1.105-.895 2-2 2z" fill="#5469e0"/><path d="m20 32h20c1.105 0 2 .895 2 2 0 1.105-.895 2-2 2h-20c-1.105 0-2-.895-2-2 0-1.105.895-2 2-2z" fill="#5469e0"/></svg>