<svg id="Layer_5" enable-background="new 0 0 64 64" height="512" viewBox="0 0 64 64" width="512" xmlns="http://www.w3.org/2000/svg"><path d="m57.954 40.502c1.251-1.101 2.046-2.708 2.046-4.502 0-3.309-2.691-6-6-6s-6 2.691-6 6c0 2.243 1.239 4.2 3.067 5.229-1.982 1.272-3.372 3.418-3.578 5.899l-.402 4.872h-6.587c-1.93 0-3.5 1.57-3.5 3.5s1.57 3.5 3.5 3.5h5.5v4h17v-15.233c0-3.324-2.104-6.159-5.046-7.265zm-3.954-8.502c2.206 0 4 1.794 4 4s-1.794 4-4 4-4-1.794-4-4 1.794-4 4-4zm7 29h-13v-2h1.239c2.063 0 3.815-1.611 3.986-3.668l.771-9.249-1.992-.166-.771 9.249c-.086 1.028-.962 1.834-1.994 1.834h-8.739c-.827 0-1.5-.673-1.5-1.5s.673-1.5 1.5-1.5h6.587c1.041 0 1.897-.782 1.993-1.827l.402-4.88c.247-2.968 2.772-5.293 5.749-5.293 3.181 0 5.769 2.587 5.769 5.767z"/><path d="m23.5 52-6.586.009-.404-4.882c-.206-2.48-1.595-4.626-3.577-5.898 1.828-1.029 3.067-2.986 3.067-5.229 0-3.309-2.691-6-6-6s-6 2.691-6 6c0 1.794.795 3.401 2.046 4.502-2.942 1.106-5.046 3.941-5.046 7.265v15.233h17v-4h5.5c1.93 0 3.5-1.57 3.5-3.5s-1.57-3.5-3.5-3.5zm-13.5-20c2.206 0 4 1.794 4 4s-1.794 4-4 4-4-1.794-4-4 1.794-4 4-4zm13.5 25h-8.739c-1.032 0-1.908-.806-1.994-1.834l-.771-9.249-1.992.166.771 9.249c.17 2.057 1.922 3.668 3.986 3.668h1.239v2h-13v-13.233c0-3.18 2.588-5.767 5.769-5.767 2.978 0 5.503 2.325 5.748 5.292l.404 4.89c.095 1.036.951 1.818 1.992 1.818h6.587c.827 0 1.5.673 1.5 1.5s-.673 1.5-1.5 1.5z"/><path d="m39 23h-6v4h-4v4h-4v6h-2v2h18v-2h-2zm-2 2v12h-2v-12zm-4 4v8h-2v-8zm-6 4h2v4h-2z"/><path d="m50 19c-1.103 0-2-.897-2-2h-2c0 1.859 1.279 3.411 3 3.858v2.142h2v-2h3v-4c0-2.206-1.794-4-4-4-1.103 0-2-.897-2-2v-2h2c1.103 0 2 .897 2 2h2c0-1.859-1.279-3.411-3-3.858v-2.142h-2v2h-3v4c0 2.206 1.794 4 4 4 1.103 0 2 .897 2 2v2z"/><path d="m9 12h2v2h-2z"/><path d="m13 12h2v2h-2z"/><path d="m17 12h2v2h-2z"/><path d="m23 15v-4c0-1.654-1.346-3-3-3h-12c-1.654 0-3 1.346-3 3v4c0 1.654 1.346 3 3 3h3.764l5.236 2.618v-2.618h3c1.654 0 3-1.346 3-3zm-2 0c0 .552-.448 1-1 1h-5v1.382l-2.764-1.382h-4.236c-.552 0-1-.448-1-1v-4c0-.552.448-1 1-1h12c.552 0 1 .448 1 1z"/><path d="m47 32c0-2.012-.404-3.93-1.126-5.685 1.325.447 2.715.685 4.126.685 7.168 0 13-5.832 13-13s-5.832-13-13-13-13 5.832-13 13c0 1.411.238 2.801.685 4.126-1.755-.722-3.673-1.126-5.685-1.126s-3.93.404-5.685 1.126c.447-1.325.685-2.715.685-4.126 0-7.168-5.832-13-13-13s-13 5.832-13 13 5.832 13 13 13c1.411 0 2.801-.238 4.126-.685-.722 1.755-1.126 3.673-1.126 5.685 0 8.271 6.729 15 15 15s15-6.729 15-15zm-8-18c0-6.065 4.935-11 11-11s11 4.935 11 11-4.935 11-11 11c-2.04 0-4.031-.578-5.773-1.659-.981-1.381-2.187-2.587-3.568-3.568-1.081-1.742-1.659-3.733-1.659-5.773zm-25 11c-6.065 0-11-4.935-11-11s4.935-11 11-11 11 4.935 11 11c0 2.04-.578 4.031-1.659 5.773-1.381.981-2.587 2.187-3.568 3.568-1.742 1.081-3.733 1.659-5.773 1.659zm18 20c-7.168 0-13-5.832-13-13s5.832-13 13-13 13 5.832 13 13-5.832 13-13 13z"/><path d="m57 13h2v2h-2z"/><path d="m41 13h2v2h-2z"/></svg>