<svg height="496pt" viewBox="0 0 496 496" width="496pt" xmlns="http://www.w3.org/2000/svg" xmlns:xlink="http://www.w3.org/1999/xlink"><linearGradient id="a" gradientUnits="userSpaceOnUse" x1="248" x2="248" y1="496" y2="0"><stop offset="0" stop-color="#9f2fff"/><stop offset="1" stop-color="#0bb1d3"/></linearGradient><path d="m117.601562 409.753906c32.621094 25.453125 58.398438 45.566406 58.398438 86.246094h16c0-48.496094-29.910156-71.832031-64.550781-98.863281-41.898438-32.6875-92.449219-72.128907-107.210938-173.890625 16.746094 24.992187 43.097657 46.691406 76.027344 63.1875 2.679687 38.0625 28.671875 67.742187 53.894531 96.488281 28.441406 32.398437 57.839844 65.902344 57.839844 113.078125h16c0-53.199219-32.832031-90.625-61.816406-123.640625-22.207032-25.320313-43.320313-49.4375-48.785156-78.085937 21.523437 9.007812 45.304687 15.933593 70.714843 20.3125.597657 37.933593 13.621094 59.429687 26.328125 80.109374 14.527344 23.679688 29.558594 48.160157 29.558594 101.304688h16c0-53.144531 15.03125-77.625 29.558594-101.304688 12.707031-20.679687 25.730468-42.167968 26.328125-80.109374 25.402343-4.378907 49.191406-11.304688 70.714843-20.3125-5.464843 28.648437-26.578124 52.765624-48.785156 78.085937-28.984375 33.015625-61.816406 70.441406-61.816406 123.640625h16c0-47.175781 29.398438-80.679688 57.832031-113.089844 25.222657-28.742187 51.222657-58.429687 53.894531-96.484375 32.9375-16.488281 59.289063-38.1875 76.027344-63.1875-14.769531 101.761719-65.3125 141.203125-107.210937 173.898438-34.632813 27.03125-64.542969 50.367187-64.542969 98.863281h16c0-40.679688 25.777344-60.792969 58.398438-86.246094 52.394531-40.890625 117.601562-91.761718 117.601562-249.753906 0-88.222656-111.246094-160-248-160-124.976562 0-228.59375 59.960938-245.519531 137.625-.03125.144531-.082031.277344-.113281.414062l.023437.007813c-1.535156 7.175781-2.390625 14.503906-2.390625 21.953125 0 157.992188 65.207031 208.863281 117.601562 249.753906zm106.398438-377.753906c4.414062 0 8-3.585938 8-8 0-3.335938-2.046875-6.183594-4.953125-7.382812 1.457031-.082032 2.929687-.144532 4.402344-.210938 6.269531.601562 12.175781 1.960938 17.574219 3.898438-.597657 1.121093-1.023438 2.335937-1.023438 3.695312 0 4.414062 3.585938 8 8 8 3.152344 0 5.824219-1.863281 7.128906-4.519531 10.4375 7.304687 16.871094 17.441406 16.871094 28.519531 0 11.175781-6.472656 21.289062-16.855469 28.550781-1.296875-2.671875-3.976562-4.550781-7.144531-4.550781-4.414062 0-8 3.585938-8 8 0 1.367188.433594 2.601562 1.039062 3.726562-7.542968 2.714844-16.03125 4.273438-25.039062 4.273438s-17.496094-1.558594-25.039062-4.273438c.605468-1.125 1.039062-2.359374 1.039062-3.726562 0-4.414062-3.585938-8-8-8-3.167969 0-5.847656 1.878906-7.144531 4.550781-10.382813-7.261719-16.855469-17.375-16.855469-28.550781 0-10.878906 6.40625-21.03125 16.945312-28.414062 1.328126 2.589843 3.941407 4.414062 7.054688 4.414062 4.414062 0 8-3.585938 8-8 0-1.320312-.398438-2.511719-.96875-3.617188 1.824219-.65625 3.648438-1.304687 5.59375-1.824218 5.144531-.605469 10.351562-1.101563 15.605469-1.496094-2.476563 1.363281-4.230469 3.90625-4.230469 6.9375 0 4.414062 3.585938 8 8 8zm181.742188 74.480469c-1.453126-1.519531-3.476563-2.480469-5.742188-2.480469-4.414062 0-8 3.585938-8 8 0 4.136719 3.183594 7.433594 7.214844 7.839844-8.605469 12.535156-22.808594 21.398437-39.335938 23.585937-.304687-4.136719-3.664062-7.425781-7.878906-7.425781s-7.574219 3.289062-7.878906 7.425781c-16.519532-2.179687-30.730469-11.050781-39.328125-23.585937 4.023437-.40625 7.207031-3.703125 7.207031-7.839844 0-4.414062-3.585938-8-8-8-2.265625 0-4.289062.960938-5.742188 2.480469-1.441406-4.609375-2.257812-9.457031-2.257812-14.480469 0-20.945312 13.441406-38.992188 32.703125-47.222656-.4375.992187-.703125 2.070312-.703125 3.222656 0 4.414062 3.585938 8 8 8s8-3.585938 8-8c0-2.929688-1.648438-5.375-3.992188-6.769531 3.863282-.789063 7.871094-1.230469 11.992188-1.230469s8.128906.441406 11.992188 1.230469c-2.34375 1.394531-3.992188 3.839843-3.992188 6.769531 0 4.414062 3.585938 8 8 8s8-3.585938 8-8c0-1.152344-.265625-2.230469-.703125-3.222656 19.261719 8.230468 32.703125 26.277344 32.703125 47.222656 0 5.023438-.816406 9.871094-2.257812 14.480469zm-110.199219-56.542969c-1.757813-12.671875-8.992188-24.128906-19.886719-32.875 20.328125 1.503906 39.839844 4.648438 58.214844 9.210938-15.375 3.78125-28.75 12.214843-38.328125 23.664062zm-141.558594 18.910156c-14.839844-8.175781-31.871094-12.847656-49.984375-12.847656-6.625 0-13.113281.6875-19.449219 1.910156 22.257813-13.726562 48.984375-24.652344 78.671875-31.910156-7.152344 8.761719-11.222656 19.089844-11.222656 30 0 4.425781.734375 8.710938 1.984375 12.847656zm70.015625 43.152344c22.640625 0 42.839844-8.183594 56.046875-20.929688 0 .3125-.046875.617188-.046875.929688 0 37.496094 32.296875 68 72 68 4.34375 0 8.574219-.425781 12.710938-1.128906-8.679688 7-15.125 16.039062-18.351563 26.273437-15.605469-24.671875-43.0625-41.144531-74.359375-41.144531-25.6875 0-48.761719 11.128906-64.863281 28.734375.511719-4.183594.863281-8.414063.863281-12.734375 0-19.59375-5.542969-37.871094-15.007812-53.535156 9.40625 3.511718 19.894531 5.535156 31.007812 5.535156zm40.648438 191.59375c-14.679688-1.488281-27.878907-7.28125-38.496094-16.027344 3.351562-.957031 5.847656-3.910156 5.847656-7.566406 0-4.414062-3.585938-8-8-8-3.65625 0-6.609375 2.496094-7.566406 5.839844-5.632813-6.832032-10-14.710938-12.808594-23.320313 1.277344.855469 2.726562 1.480469 4.375 1.480469 4.414062 0 8-3.585938 8-8s-3.585938-8-8-8c-3.023438 0-5.566406 1.742188-6.929688 4.222656-.671874-3.976562-1.070312-8.054687-1.070312-12.222656 0-39.695312 32.296875-72 72-72s72 32.304688 72 72c0 4.167969-.359375 8.265625-1.054688 12.257812-1.351562-2.496093-3.90625-4.257812-6.945312-4.257812-4.414062 0-8 3.585938-8 8s3.585938 8 8 8c1.640625 0 3.078125-.617188 4.34375-1.457031-2.808594 8.503906-7.183594 16.335937-12.808594 23.160156-1-3.277344-3.933594-5.703125-7.535156-5.703125-4.414062 0-8 3.585938-8 8 0 3.601562 2.425781 6.527344 5.695312 7.535156-7.863281 6.457032-17.160156 11.335938-27.503906 14.03125-8.367187.960938-16.886718 1.640625-25.542968 2.027344zm95.152343-66.867188c11.742188 11.777344 28.976563 19.273438 48.199219 19.273438 5.167969 0 10.175781-.601562 14.992188-1.617188-23.847657 17.015626-53.992188 30.519532-88.183594 39.121094 14.65625-14.945312 23.824218-34.945312 24.992187-56.777344zm48.199219 3.273438c-26.472656 0-48-17.945312-48-40s21.527344-40 48-40 48 17.945312 48 40-21.527344 40-48 40zm-188.238281 62.894531c-52.441407-3.964843-99.546875-18.804687-135.210938-40.804687 6.335938 1.222656 12.824219 1.910156 19.449219 1.910156 32.304688 0 61.214844-14.808594 80.304688-37.992188-.136719 1.984376-.304688 3.96875-.304688 5.992188 0 29.070312 13.9375 54.863281 35.761719 70.894531zm52.167969 83.433594c-8.488282 13.824219-17.617188 28.71875-23.929688 49.527344-6.3125-20.808594-15.441406-35.703125-23.929688-49.527344-12.261718-19.984375-22.824218-37.550781-23.863281-69.335937 12.9375 1.640624 26.234375 2.601562 39.800781 2.878906v40.128906h16v-40.128906c13.566407-.277344 26.863282-1.246094 39.800782-2.878906-1.054688 31.785156-11.617188 49.351562-23.878906 69.335937zm208.070312-226.328125c0 13.054688-2.863281 25.6875-8.128906 37.71875-1.382813-29.816406-29.464844-53.71875-63.871094-53.71875-3.6875 0-7.289062.335938-10.808594.863281 16.328125-12.480469 26.808594-31.527343 26.808594-52.863281 0-11.257812-2.960938-21.863281-8.105469-31.222656 39.671875 25.847656 64.105469 60.789062 64.105469 99.222656zm-462-18.59375h.007812c4.449219-20.679688 16.207032-38.398438 32.144532-50.773438-1.304688 1.414063-2.152344 3.277344-2.152344 5.367188 0 4.414062 3.585938 8 8 8s8-3.585938 8-8-3.585938-8-8-8c-1.289062 0-2.457031.367188-3.527344.910156 14.648438-10.636718 32.535156-16.910156 51.527344-16.910156 19.808594 0 38.046875 6.65625 52.769531 17.742188-1.34375-1.023438-2.945312-1.742188-4.769531-1.742188-4.414062 0-8 3.585938-8 8s3.585938 8 8 8 8-3.585938 8-8c0-2.152344-.871094-4.089844-2.257812-5.527344 20.792968 16.113282 34.257812 41.246094 34.257812 69.527344s-13.464844 53.414062-34.257812 69.527344c1.386718-1.4375 2.257812-3.375 2.257812-5.527344 0-4.414062-3.585938-8-8-8s-8 3.585938-8 8 3.585938 8 8 8c1.824219 0 3.425781-.71875 4.777344-1.742188-14.730469 11.085938-32.96875 17.742188-52.777344 17.742188-19.023438 0-36.9375-6.289062-51.609375-16.960938 1.097656.570313 2.289063.960938 3.609375.960938 4.414062 0 8-3.585938 8-8s-3.585938-8-8-8-8 3.585938-8 8c0 2.089844.847656 3.960938 2.160156 5.382812-15.9375-12.375-27.6875-30.078124-32.136718-50.734374l-.390626-1.9375h-.015624c-1.03125-5.488282-1.617188-11.054688-1.617188-16.710938 0-6.304688.726562-12.503906 2-18.59375zm222 234.59375h16v16h-16zm-8-192c0-4.414062 3.585938-8 8-8s8 3.585938 8 8-3.585938 8-8 8-8-3.585938-8-8zm32 0c0-4.414062 3.585938-8 8-8s8 3.585938 8 8-3.585938 8-8 8-8-3.585938-8-8zm32 0c0-4.414062 3.585938-8 8-8s8 3.585938 8 8-3.585938 8-8 8-8-3.585938-8-8zm-64 32c0 4.414062-3.585938 8-8 8s-8-3.585938-8-8 3.585938-8 8-8 8 3.585938 8 8zm16 0c0-4.414062 3.585938-8 8-8s8 3.585938 8 8-3.585938 8-8 8-8-3.585938-8-8zm32 0c0-4.414062 3.585938-8 8-8s8 3.585938 8 8-3.585938 8-8 8-8-3.585938-8-8zm32 0c0-4.414062 3.585938-8 8-8s8 3.585938 8 8-3.585938 8-8 8-8-3.585938-8-8zm-64 32c0 4.414062-3.585938 8-8 8s-8-3.585938-8-8 3.585938-8 8-8 8 3.585938 8 8zm32 0c0 4.414062-3.585938 8-8 8s-8-3.585938-8-8 3.585938-8 8-8 8 3.585938 8 8zm32 0c0 4.414062-3.585938 8-8 8s-8-3.585938-8-8 3.585938-8 8-8 8 3.585938 8 8zm-48 32c0 4.414062-3.585938 8-8 8s-8-3.585938-8-8 3.585938-8 8-8 8 3.585938 8 8zm32 0c0 4.414062-3.585938 8-8 8s-8-3.585938-8-8 3.585938-8 8-8 8 3.585938 8 8zm-216-184c0-4.414062 3.585938-8 8-8s8 3.585938 8 8-3.585938 8-8 8-8-3.585938-8-8zm32 0c0-4.414062 3.585938-8 8-8s8 3.585938 8 8-3.585938 8-8 8-8-3.585938-8-8zm-80 32c0-4.414062 3.585938-8 8-8s8 3.585938 8 8-3.585938 8-8 8-8-3.585938-8-8zm32 0c0-4.414062 3.585938-8 8-8s8 3.585938 8 8-3.585938 8-8 8-8-3.585938-8-8zm32 0c0-4.414062 3.585938-8 8-8s8 3.585938 8 8-3.585938 8-8 8-8-3.585938-8-8zm32 0c0-4.414062 3.585938-8 8-8s8 3.585938 8 8-3.585938 8-8 8-8-3.585938-8-8zm32 0c0-4.414062 3.585938-8 8-8s8 3.585938 8 8-3.585938 8-8 8-8-3.585938-8-8zm-144 32c0-4.414062 3.585938-8 8-8s8 3.585938 8 8-3.585938 8-8 8-8-3.585938-8-8zm32 0c0-4.414062 3.585938-8 8-8s8 3.585938 8 8-3.585938 8-8 8-8-3.585938-8-8zm32 0c0-4.414062 3.585938-8 8-8s8 3.585938 8 8-3.585938 8-8 8-8-3.585938-8-8zm32 0c0-4.414062 3.585938-8 8-8s8 3.585938 8 8-3.585938 8-8 8-8-3.585938-8-8zm32 0c0-4.414062 3.585938-8 8-8s8 3.585938 8 8-3.585938 8-8 8-8-3.585938-8-8zm48 0c0 4.414062-3.585938 8-8 8s-8-3.585938-8-8 3.585938-8 8-8 8 3.585938 8 8zm-160 32c0-4.414062 3.585938-8 8-8s8 3.585938 8 8-3.585938 8-8 8-8-3.585938-8-8zm48 0c0 4.414062-3.585938 8-8 8s-8-3.585938-8-8 3.585938-8 8-8 8 3.585938 8 8zm32 0c0 4.414062-3.585938 8-8 8s-8-3.585938-8-8 3.585938-8 8-8 8 3.585938 8 8zm32 0c0 4.414062-3.585938 8-8 8s-8-3.585938-8-8 3.585938-8 8-8 8 3.585938 8 8zm32 0c0 4.414062-3.585938 8-8 8s-8-3.585938-8-8 3.585938-8 8-8 8 3.585938 8 8zm-80 32c0 4.414062-3.585938 8-8 8s-8-3.585938-8-8 3.585938-8 8-8 8 3.585938 8 8zm32 0c0 4.414062-3.585938 8-8 8s-8-3.585938-8-8 3.585938-8 8-8 8 3.585938 8 8zm256-40c0 4.414062-3.585938 8-8 8s-8-3.585938-8-8 3.585938-8 8-8 8 3.585938 8 8zm32 0c0 4.414062-3.585938 8-8 8s-8-3.585938-8-8 3.585938-8 8-8 8 3.585938 8 8zm24-8c4.414062 0 8 3.585938 8 8s-3.585938 8-8 8-8-3.585938-8-8 3.585938-8 8-8zm-40 40c0 4.414062-3.585938 8-8 8s-8-3.585938-8-8 3.585938-8 8-8 8 3.585938 8 8zm32 0c0 4.414062-3.585938 8-8 8s-8-3.585938-8-8 3.585938-8 8-8 8 3.585938 8 8zm-104-136c0 4.414062-3.585938 8-8 8s-8-3.585938-8-8 3.585938-8 8-8 8 3.585938 8 8zm32 0c0 4.414062-3.585938 8-8 8s-8-3.585938-8-8 3.585938-8 8-8 8 3.585938 8 8zm32 0c0 4.414062-3.585938 8-8 8s-8-3.585938-8-8 3.585938-8 8-8 8 3.585938 8 8zm-48 32c0 4.414062-3.585938 8-8 8s-8-3.585938-8-8 3.585938-8 8-8 8 3.585938 8 8zm32 0c0 4.414062-3.585938 8-8 8s-8-3.585938-8-8 3.585938-8 8-8 8 3.585938 8 8zm-208-56c0-4.414062 3.585938-8 8-8s8 3.585938 8 8-3.585938 8-8 8-8-3.585938-8-8zm48 0c0 4.414062-3.585938 8-8 8s-8-3.585938-8-8 3.585938-8 8-8 8 3.585938 8 8zm16 0c0-4.414062 3.585938-8 8-8s8 3.585938 8 8-3.585938 8-8 8-8-3.585938-8-8zm48 0c0 4.414062-3.585938 8-8 8s-8-3.585938-8-8 3.585938-8 8-8 8 3.585938 8 8zm-56 40c-4.414062 0-8-3.585938-8-8s3.585938-8 8-8 8 3.585938 8 8-3.585938 8-8 8zm0 0" fill="url(#a)"/></svg>