<?xml version="1.0"?>
<svg xmlns="http://www.w3.org/2000/svg" xmlns:xlink="http://www.w3.org/1999/xlink" viewBox="0 0 64 64" width="512" height="512"><defs><linearGradient id="New_Gradient_Swatch_3" x1="30.583" y1="63.671" x2="33.342" y2="2.001" gradientUnits="userSpaceOnUse"><stop offset="0" stop-color="#006df0"/><stop offset="1" stop-color="#00e7f0"/></linearGradient><linearGradient id="New_Gradient_Swatch_3-2" x1="19.098" y1="63.157" x2="21.857" y2="1.488" xlink:href="#New_Gradient_Swatch_3"/><linearGradient id="New_Gradient_Swatch_3-3" x1="19.277" y1="63.165" x2="22.035" y2="1.496" xlink:href="#New_Gradient_Swatch_3"/><linearGradient id="New_Gradient_Swatch_3-4" x1="19.456" y1="63.173" x2="22.214" y2="1.504" xlink:href="#New_Gradient_Swatch_3"/><linearGradient id="New_Gradient_Swatch_3-5" x1="11.114" y1="62.8" x2="13.873" y2="1.13" xlink:href="#New_Gradient_Swatch_3"/><linearGradient id="New_Gradient_Swatch_3-6" x1="11.293" y1="62.808" x2="14.051" y2="1.138" xlink:href="#New_Gradient_Swatch_3"/><linearGradient id="New_Gradient_Swatch_3-7" x1="11.471" y1="62.816" x2="14.23" y2="1.146" xlink:href="#New_Gradient_Swatch_3"/><linearGradient id="New_Gradient_Swatch_3-8" x1="50.365" y1="64.556" x2="53.123" y2="2.886" xlink:href="#New_Gradient_Swatch_3"/><linearGradient id="New_Gradient_Swatch_3-9" x1="50.543" y1="64.564" x2="53.302" y2="2.894" xlink:href="#New_Gradient_Swatch_3"/><linearGradient id="New_Gradient_Swatch_3-10" x1="50.722" y1="64.572" x2="53.48" y2="2.902" xlink:href="#New_Gradient_Swatch_3"/><linearGradient id="New_Gradient_Swatch_3-11" x1="26.413" y1="63.485" x2="29.171" y2="1.815" xlink:href="#New_Gradient_Swatch_3"/><linearGradient id="New_Gradient_Swatch_3-12" x1="26.591" y1="63.493" x2="29.35" y2="1.823" xlink:href="#New_Gradient_Swatch_3"/><linearGradient id="New_Gradient_Swatch_3-13" x1="26.77" y1="63.501" x2="29.528" y2="1.831" xlink:href="#New_Gradient_Swatch_3"/></defs><g id="Server"><path d="M7,2V62H57V2ZM41,4h6V6H41Zm6,4V31H41V29h3V27H41V26h3V24H41V8Zm0,27H41V33h6Zm-8,0H33V33h6Zm-6-6h3V27H33V26h3V24H33V8h6V31H33ZM33,4h6V6H33ZM17,4h6V6H17Zm6,4V31H17V29h3V27H17V26h3V24H17V8ZM9,4h6V6H9ZM9,29h3V27H9V26h3V24H9V8h6V31H9Zm6,31H9V33h6Zm8,0H17V33h6Zm8,0H25V4h6Zm8,0H33V58h3V56H33V55h3V53H33V37h6Zm2,0V58h3V56H41V55h3V53H41V37h6V60Zm14,0H49V4h6Z" style="fill:url(#New_Gradient_Swatch_3)"/><rect x="19" y="42" width="2" height="2" style="fill:url(#New_Gradient_Swatch_3-2)"/><rect x="19" y="46" width="2" height="2" style="fill:url(#New_Gradient_Swatch_3-3)"/><rect x="19" y="50" width="2" height="2" style="fill:url(#New_Gradient_Swatch_3-4)"/><rect x="11" y="42" width="2" height="2" style="fill:url(#New_Gradient_Swatch_3-5)"/><rect x="11" y="46" width="2" height="2" style="fill:url(#New_Gradient_Swatch_3-6)"/><rect x="11" y="50" width="2" height="2" style="fill:url(#New_Gradient_Swatch_3-7)"/><rect x="51" y="27" width="2" height="2" style="fill:url(#New_Gradient_Swatch_3-8)"/><rect x="51" y="31" width="2" height="2" style="fill:url(#New_Gradient_Swatch_3-9)"/><rect x="51" y="35" width="2" height="2" style="fill:url(#New_Gradient_Swatch_3-10)"/><rect x="27" y="27" width="2" height="2" style="fill:url(#New_Gradient_Swatch_3-11)"/><rect x="27" y="31" width="2" height="2" style="fill:url(#New_Gradient_Swatch_3-12)"/><rect x="27" y="35" width="2" height="2" style="fill:url(#New_Gradient_Swatch_3-13)"/></g></svg>
