<svg height="512" viewBox="0 0 60 60" width="512" xmlns="http://www.w3.org/2000/svg" xmlns:xlink="http://www.w3.org/1999/xlink"><linearGradient id="linearGradient-1" x1="11.457%" x2="88.436%" y1="14.966%" y2="80.406%"><stop offset="0" stop-color="#d3dff2"/><stop offset=".172" stop-color="#d3dff2"/><stop offset=".2" stop-color="#d3dff2"/><stop offset=".2" stop-color="#dae2f2"/><stop offset=".201" stop-color="#ebeaf2"/><stop offset=".201" stop-color="#f6eff2"/><stop offset=".202" stop-color="#fdf2f2"/><stop offset=".205" stop-color="#fff3f2"/><stop offset=".252" stop-color="#fff3f2"/><stop offset=".26" stop-color="#fff3f2"/><stop offset=".26" stop-color="#d3dff2"/><stop offset=".397" stop-color="#d3dff2"/><stop offset=".42" stop-color="#d3dff2"/><stop offset=".42" stop-color="#dae2f2"/><stop offset=".421" stop-color="#ebeaf2"/><stop offset=".421" stop-color="#f6eff2"/><stop offset=".422" stop-color="#fdf2f2"/><stop offset=".425" stop-color="#fff3f2"/><stop offset=".489" stop-color="#fff3f2"/><stop offset=".5" stop-color="#fff3f2"/><stop offset=".5" stop-color="#f8f0f2"/><stop offset=".5" stop-color="#e7e8f2"/><stop offset=".5" stop-color="#dce3f2"/><stop offset=".5" stop-color="#d5e0f2"/><stop offset=".501" stop-color="#d3dff2"/><stop offset=".706" stop-color="#d3dff2"/><stop offset=".74" stop-color="#d3dff2"/><stop offset=".741" stop-color="#fff3f2"/><stop offset=".835" stop-color="#fff3f2"/><stop offset=".85" stop-color="#fff3f2"/><stop offset=".851" stop-color="#d3dff2"/></linearGradient><g id="041---Smart-Solutions" fill="none"><g id="Layer_4" transform="translate(1 1)"><path id="Shape" d="m18 45.34v4.66s-.48 2-3.99 2-4.01-2-4.01-2v-4.66c1.36 1.38 1.49 2.66 3.07 2.66h1.86c1.58 0 1.71-1.28 3.07-2.66z" fill="#cad9fc"/><path id="Shape" d="m28 56v.02c.0005314.5252914-.2079045 1.0292209-.5793418 1.4006582s-.8753668.5798732-1.4006582.5793418h-24.04c-.52529138.0005314-1.02922094-.2079045-1.40065823-.5793418-.37143728-.3714373-.57987317-.8753668-.57934177-1.4006582v-.02c.17-3.33 2-3.82 2-3.82l7.99-2.18h.01s.5 2 4.01 2 3.99-2 3.99-2l7.97 2.18s1.85.49 2.03 3.82z" fill="#e8edfc"/><path id="Shape" d="m25.97 52.18-7.97-2.18c-.0838219.2616367-.2199054.5035251-.4.711l5.37 1.469s1.85.49 2.03 3.82v.02c.0005314.5252914-.2079045 1.0292209-.5793418 1.4006582s-.8753668.5798732-1.4006582.5793418h3c.5252914.0005314 1.0292209-.2079045 1.4006582-.5793418s.5798732-.8753668.5793418-1.4006582v-.02c-.18-3.33-2.03-3.82-2.03-3.82z" fill="#cad9fc"/><path id="Rectangle-path" d="m4 36h4v6h-4z" fill="#a4c2f7"/><path id="Shape" d="m20 36v6c-.170656 1.1559036-.7487457 2.2127793-1.63 2.98-.1305208.1123844-.2540825.2326066-.37.36-1.36 1.38-1.49 2.66-3.07 2.66h-1.86c-1.58 0-1.71-1.28-3.07-2.66-.11591752-.1273934-.23947916-.2476156-.37-.36-.88125428-.7672207-1.45934401-1.8240964-1.63-2.98v-6c.00000005-3.3137085 2.6862915-5.9999999 6-5.9999999s6 2.6862914 6 5.9999999z" fill="#e8edfc"/><path id="Shape" d="m24 36v4c-.0032948 1.1032019-.8967981 1.9967052-2 2h-2v-6z" fill="#a4c2f7"/><path id="Shape" d="m51.33 30.1c-3.1427426 2.2681323-5.0326306 5.8848591-5.1 9.76v.14h-10.46v-.15c-.049787-3.848857-1.9192279-7.4467889-5.04-9.7-4.233388-3.1444484-6.7292801-8.1065638-6.73-13.38.1311884-9.14642699 7.4739672-16.55051154 16.6189873-16.75774125s16.8156485 6.8566452 17.3610127 15.98774125c.253124 5.5108495-2.2366832 10.7899896-6.65 14.1z" fill="url(#linearGradient-1)"/><path id="Shape" d="m57.98 16c-.5321551-8.7159958-7.5656192-15.61993018-16.29-15.99-.7397156-.0238389-1.4801985-.00079274-2.217.069 8.3972162.7371628 14.9912871 7.50727976 15.507 15.921.253124 5.5108495-2.2366832 10.7899896-6.65 14.1-3.1427426 2.2681323-5.0326306 5.8848591-5.1 9.76v.14h3v-.14c.0673694-3.8751409 1.9572574-7.4918677 5.1-9.76 4.4133168-3.3100104 6.903124-8.5891505 6.65-14.1z" fill="#a4c2f7"/><path id="Shape" d="m49 42.5c0 1.3807119-1.1192881 2.5-2.5 2.5h-11c-1.3807119 0-2.5-1.1192881-2.5-2.5s1.1192881-2.5 2.5-2.5h11c1.3807119 0 2.5 1.1192881 2.5 2.5z" fill="#a4c2f7"/><path id="Shape" d="m46.5 40h-3c1.3807119 0 2.5 1.1192881 2.5 2.5s-1.1192881 2.5-2.5 2.5h3c1.3807119 0 2.5-1.1192881 2.5-2.5s-1.1192881-2.5-2.5-2.5z" fill="#7facfa"/><path id="Shape" d="m46 45v2c0 2.7614237-2.2385763 5-5 5s-5-2.2385763-5-5v-2z" fill="#a4c2f7"/><path id="Shape" d="m43 45v2c-.0056526 2.1761534-1.4225411 4.0970494-3.5 4.745.4838155.1620147.9898258.2480365 1.5.255 2.7614237 0 5-2.2385763 5-5v-2z" fill="#7facfa"/></g><g id="Layer_3" fill="#fff" transform="translate(1 31)"><path id="Shape" d="m4 7v4c0 .5522847.44771525 1 1 1 2.205 0 2.158.049 2.5-.153-.30578897-.1729639-.49630772-.4957027-.5-.847v-4c.00369228-.35129729.19421103-.67403606.5-.847-.376-.223-.459-.153-2.5-.153-.55228475 0-1 .44771525-1 1z"/><path id="Shape" d="m23 11v.723c.0725354-.0422348.1423401-.0889939.209-.14-.1307921-.1666669-.2041142-.3711969-.209-.583z"/><path id="Shape" d="m23 7c.0036923-.35129729.194211-.67403606.5-.847-.1496702-.09548068-.3225279-.14837516-.5-.153z"/><path id="Shape" d="m11 13v-7c.0043159-2.73246118 1.8543017-5.11688726 4.5-5.8-1.7951888-.46351822-3.7038307-.07106388-5.1704933 1.06315518s-2.32657942 2.88278349-2.3295067 4.73684482v7c.552 0 3-.552 3 0z"/><path id="Shape" d="m1.98 28h3c-.52877892.0005674-1.03577049-.2106101-1.40779026-.5863876-.37201977-.3757776-.57809131-.8848659-.57220974-1.4136124.17-3.33 2-3.82 2-3.82 5.383-1.448 7.9-2.18 8-2.18v-4.655c-.119-.122-.231-.243-.37-.365-.8812543-.7672207-1.459344-1.8240964-1.63-2.98v-1c0 .5522847-.4477153 1-1 1h-2c.17065599 1.1559036.74874572 2.2127793 1.63 2.98.139.122.251.243.37.365v4.655c-.124 0-3.077.856-8 2.18 0 0-1.83.49-2 3.82-.00615334.5288272.19983024 1.0380731.57190893 1.4139102.3720787.375837.87922875.5869281 1.40809107.5860898z"/></g><g id="Layer_2" transform="translate(-1)"><path id="Rectangle-path" d="m3.983 58h8v2h-8z" fill="#fff"/><g fill="#428dff"><circle id="Oval" cx="7.983" cy="59" r="1"/><path id="Shape" d="m4.983 59c0-.5522847-.44771525-1-1-1-.53962455.0005674-.97860417-.4343931-.983-.974.135-2.447 1.249-2.874 1.267-2.881l7.233-1.976c.589.8 1.86 1.831 4.507 1.831s3.9-1.024 4.488-1.827l7.185 1.963c.048.017 1.182.443 1.317 2.884-.0011035.541953-.4410461.980553-.983.98h-16.031c-.5522847 0-1 .4477153-1 1s.4477153 1 1 1h16.034c.8023193-.0044115 1.5694395-.3300206 2.1299684-.904079.560529-.5740583.8677531-1.3487247.8530316-2.150921-.221-4.008-2.665-4.7-2.762-4.73l-7.238-1.979v-3.473c.842339-.7368965 1.4631368-1.6935414 1.793-2.763h1.207c1.6568542 0 3-1.3431458 3-3v-6c0-4.71-5.243-9-11-9s-11 4.29-11 9v11c0 1.1045695.8954305 2 2 2h1c.55228475 0 1-.4477153 1-1s-.44771525-1-1-1h-1v-2h2.2c.33495863 1.0682193.9577459 2.0235058 1.8 2.761v3.472l-7.254 1.981c-.1.027-2.537.724-2.745 4.734-.15 2.893 3.982 4.057 3.982 2.052zm6.017-22c0-2.7614237 2.2385763-5 5-5s5 2.2385763 5 5v5.936c-.1526119.8902587-.6083613 1.7003622-1.29 2.293-1.692 1.485-1.776 2.771-2.78 2.771h-1.86c-.5 0-.645-.144-1.213-.949-.4444457-.6728668-.9726861-1.286459-1.572-1.826-.6646857-.5774396-1.1170349-1.3606902-1.285-2.225zm2 13.824v-1.653c1.041 1.029 2.009.829 3.93.829.7752796.0258824 1.5259797-.2740349 2.07-.827v1.647c-.791 1.595-5.2 1.58-6 .004zm12-9.824c0 .5522847-.4477153 1-1 1h-1v-4h2zm-9-13c5.068 0 9 3.763 9 7v1h-2.08c-.494295-3.441787-3.4428998-5.9971786-6.92-5.9971786s-6.42570496 2.5553916-6.92 5.9971786h-2.08v-1c0-3.237 3.932-7 9-7zm-7 14h-2v-4h2z"/><path id="Shape" d="m53.928 31.9c4.6731113-3.5134954 7.3121037-9.1061538 7.053-14.947-.5718758-9.67426823-8.697756-17.16079119-18.3863903-16.93971982-9.6886344.22107136-17.4645864 8.07043593-17.5946097 17.76071982-.0126794 5.5898491 2.6358567 10.8520186 7.133 14.172 2.6465047 1.9153507 4.3233434 4.8920133 4.59 8.148-1.6433041.3691514-2.787887 1.8601194-2.7198842 3.5430029.0680027 1.6828835 1.3291528 3.0766395 2.9968842 3.3119971v1.051c.0000001 3.3137084 2.6862916 5.9999998 6 5.9999998s5.9999999-2.6862914 6-5.9999998v-1.051c1.6678153-.2350668 2.9292285-1.6286603 2.9974781-3.3115763.0682495-1.682916-1.0761744-3.1740767-2.7194781-3.5434237.2910538-3.2755922 1.9871524-6.2643733 4.65-8.194zm-6.928 16.1c0 2.209139-1.790861 4-4 4s-4-1.790861-4-4v-1h8zm3-4.5c0 .8284271-.6715729 1.5-1.5 1.5h-11c-.8284271 0-1.5-.6715729-1.5-1.5s.6715729-1.5 1.5-1.5h11c.8284271 0 1.5.6715729 1.5 1.5zm-2.739-3.5h-8.521c-.2978712-3.8561873-2.2753608-7.3866352-5.408-9.655-3.7078023-2.7415343-6.0153828-6.9807802-6.3050308-11.582944s1.468215-9.09727795 4.8030308-12.282056c4.5077937-4.3345765 11.1222068-5.65740706 16.9503575-3.38993809 5.8281508 2.26746897 9.8094528 7.71261139 10.2026425 13.95393809.2284941 5.1820346-2.113698 10.1432914-6.26 13.26-3.1458071 2.2823517-5.1402292 5.8227978-5.462 9.696z"/><path id="Shape" d="m43 6c.5522847 0 1-.44771525 1-1s-.4477153-1-1-1c-5.6529603-.00600098-10.7529509 3.39372963-12.922 8.614-.1508955.3318002-.1093039.7194225.1085501 1.0116561.217854.2922337.5774587.442784.9385329.3929216s.6664179-.2922384.796917-.6325777c1.8596917-4.47535356 6.231638-7.39024752 11.078-7.386z"/><path id="Shape" d="m40.923 11.615c-.1553161-.3725487-.5193719-.6152001-.923-.6152001s-.7676839.2426514-.923.6152001l-5 12c-.2126296.5097588.0282412 1.0953703.538 1.308.5097588.2126296 1.0953704-.0282412 1.308-.538l1.41-3.385h5.334l1.41 3.385c.1375472.3297562.440569.5610828.7949198.6068415.3543508.0457586.7061964-.1010025.923-.385s.2656275-.6620854.1280802-.9918415zm-2.756 7.385 1.833-4.4 1.833 4.4z"/><circle id="Oval" cx="49" cy="24" r="1"/><path id="Shape" d="m49 11c-.5522847 0-1 .4477153-1 1v8c0 .5522847.4477153 1 1 1s1-.4477153 1-1v-8c0-.5522847-.4477153-1-1-1z"/><circle id="Oval" cx="30" cy="18" r="1"/></g></g></g></svg>