<svg height="480pt" viewBox="0 -83 480.01158 480" width="480pt" xmlns="http://www.w3.org/2000/svg"><path d="m22.609375 205.210938h65.390625v-96h-65.390625c-3.875-.003907-7.59375 1.535156-10.332031 4.273437-2.742188 2.742187-4.28125 6.457031-4.277344 10.332031v66.785156c-.003906 3.875 1.535156 7.589844 4.277344 10.332032 2.738281 2.738281 6.457031 4.277344 10.332031 4.277344zm0 0" fill="#9bc9ff"/><path d="m207.128906 284.625c4.910156 3.273438 11.21875 3.574219 16.421875.792969 5.199219-2.785157 8.449219-8.207031 8.449219-14.105469v-228.207031c0-5.898438-3.25-11.320313-8.449219-14.105469-5.203125-2.78125-11.511719-2.476562-16.421875.792969l-119.128906 79.417969v96zm0 0" fill="#9bc9ff"/><g fill="#1e81ce"><path d="m227.328125 21.945312c-7.800781-4.195312-17.28125-3.734374-24.640625 1.191407l-117.085938 78.074219h-62.992187c-12.480469.015624-22.5898438 10.128906-22.609375 22.605468v66.785156c.0195312 12.476563 10.128906 22.589844 22.609375 22.609376h62.992187l117.109376 78.070312c7.363281 4.894531 16.824218 5.347656 24.617187 1.171875 7.796875-4.175781 12.664063-12.296875 12.671875-21.140625v-228.207031c0-8.851563-4.871094-16.984375-12.671875-21.160157zm-211.328125 168.65625v-66.785156c.007812-3.644531 2.960938-6.597656 6.609375-6.605468h57.390625v80h-57.390625c-3.648437-.011719-6.601563-2.964844-6.609375-6.609376zm208 80.710938c0 2.953125-1.625 5.664062-4.226562 7.054688-2.601563 1.394531-5.757813 1.238281-8.214844-.398438l-115.558594-77.039062v-87.441407l115.558594-77.039062c2.457031-1.636719 5.613281-1.792969 8.214844-.398438 2.601562 1.390625 4.226562 4.101563 4.226562 7.054688zm0 0"/><path d="m389.207031 314.410156c-3.574219.003906-6.71875-2.359375-7.703125-5.796875-.984375-3.433593.429688-7.109375 3.464844-8.996093 49.148438-30.648438 79.019531-84.476563 79.019531-142.398438 0-57.925781-29.871093-111.753906-79.019531-142.402344-3.757812-2.339844-4.902344-7.28125-2.566406-11.035156 2.339844-3.7539062 7.28125-4.902344 11.039062-2.5625 53.84375 33.574219 86.570313 92.542969 86.570313 156 0 63.453125-32.726563 122.425781-86.570313 156-1.273437.785156-2.738281 1.195312-4.234375 1.191406zm0 0"/><path d="m317.113281 242.335938c-4.011719.007812-7.410156-2.957032-7.945312-6.933594-.53125-3.976563 1.960937-7.734375 5.832031-8.785156 31.296875-8.539063 53.011719-36.964844 53.011719-69.40625 0-32.445313-21.714844-60.871094-53.011719-69.410157-2.949219-.570312-5.328125-2.742187-6.164062-5.625-.835938-2.882812.011718-5.992187 2.199218-8.050781 2.183594-2.058594 5.335938-2.722656 8.164063-1.714844 38.25 10.441406 64.777343 45.183594 64.777343 84.832032 0 39.644531-26.527343 74.390624-64.777343 84.832031-.679688.179687-1.382813.269531-2.085938.261719zm0 0"/><path d="m272.414062 196.042969c-4-.007813-7.378906-2.972657-7.910156-6.9375-.535156-3.964844 1.945313-7.710938 5.800782-8.777344 10.441406-2.824219 17.691406-12.300781 17.691406-23.117187 0-10.820313-7.25-20.296876-17.691406-23.121094-2.828126-.695313-5.054688-2.867188-5.816407-5.675782-.761719-2.808593.0625-5.808593 2.152344-7.835937 2.085937-2.027344 5.109375-2.757813 7.894531-1.914063 17.390625 4.730469 29.460938 20.523438 29.460938 38.546876 0 18.023437-12.070313 33.8125-29.460938 38.542968-.6875.191406-1.402344.289063-2.121094.289063zm0 0"/></g></svg>