<svg id="Layer_1" enable-background="new 0 0 512 512" height="512" viewBox="0 0 512 512" width="512" xmlns="http://www.w3.org/2000/svg" xmlns:xlink="http://www.w3.org/1999/xlink"><linearGradient id="SVGID_1_" gradientUnits="userSpaceOnUse" x1="256" x2="256" y1="30.419" y2="481.581"><stop offset="0" stop-color="#2af598"/><stop offset="1" stop-color="#009efd"/></linearGradient><path d="m294.621 276.082c3.547 13.344.109 28.175-10.337 38.622-7.798 7.797-18.041 11.696-28.284 11.696s-20.486-3.899-28.284-11.696c-15.597-15.597-15.597-40.973 0-56.569 10.446-10.446 25.277-13.884 38.621-10.337l98.521-98.521 28.284 28.284zm142.399-170.682c-48.353-48.352-112.64-74.981-181.02-74.981s-132.667 26.629-181.02 74.981-74.98 112.639-74.98 181.019 26.628 132.667 74.98 181.02l14.142 14.142 84.853-84.853-14.142-14.142c-25.687-25.687-39.833-59.84-39.833-96.167s14.146-70.479 39.833-96.167 59.84-39.833 96.167-39.833c15.174 0 29.966 2.477 43.923 7.224l30.711-30.711c-23.061-10.809-48.409-16.513-74.635-16.513-47.011 0-91.208 18.307-124.451 51.549-63.844 63.844-68.295 164.93-13.344 233.961l-28.434 28.434c-70.462-84.773-65.96-211.226 13.493-290.679 84.219-84.218 221.252-84.218 305.471 0 79.453 79.454 83.956 205.906 13.493 290.679l-28.434-28.434c42.134-52.93 49.342-124.704 21.634-184.086l-30.653 30.653c4.747 13.957 7.224 28.749 7.224 43.923 0 36.327-14.146 70.48-39.833 96.167l-14.142 14.142 84.853 84.853 14.142-14.142c48.354-48.353 74.982-112.64 74.982-181.02s-26.628-132.667-74.98-181.019z" fill="url(#SVGID_1_)"/></svg>