<svg height="512pt" viewBox="0 0 512.03719 512" width="512pt" xmlns="http://www.w3.org/2000/svg"><path d="m491.625 114.382812c-17.074219-42.902343-51.054688-76.882812-93.953125-93.953124-20.640625-8.132813-42.671875-12.160157-64.855469-11.863282-38.636718.535156-76.023437 13.757813-106.410156 37.632813-15.332031-4.507813-31.207031-6.890625-47.1875-7.082031-22.183594-.300782-44.210938 3.730468-64.855469 11.859374-42.914062 17.003907-76.90625 50.96875-93.949219 93.867188-8.125 20.675781-12.15625 42.730469-11.863281 64.941406.285157 22.390625 4.859375 44.523438 13.484375 65.191406 8.988282 21.546876 22.121094 41.117188 38.65625 57.601563 11.910156 11.941406 25.476563 22.117187 40.277344 30.207031 5.648438 3.125 11.457031 5.945313 17.40625 8.449219 18.292969 7.609375 37.738281 12.082031 57.515625 13.226563 1.28125.085937 2.644531.085937 3.925781.171874 1.527344.070313 3.042969-.316406 4.351563-1.109374.359375-.167969.703125-.367188 1.023437-.597657l.171875.511719c30.378907-12.375 64.679688-20.652344 98.816407-10.835938 11.003906 3.1875 21.449218 8.050782 30.972656 14.417969.394531-1.195312 1.066406-2.277343 1.964844-3.15625l36.179687-36.179687c.898437-.921875 2.015625-1.59375 3.242187-1.964844 3.089844-1.132812 6.554688-.367188 8.875 1.964844l1.621094 1.621094c9.101563-2.09375 18.003906-4.949219 26.625-8.535157 43.5-18.242187 78.097656-52.839843 96.34375-96.339843 8.621094-20.667969 13.199219-42.800782 13.480469-65.195313.300781-22.183594-3.730469-44.210937-11.859375-64.851563zm0 0" fill="#802f34"/><path d="m356.539062 345.632812v.085938c-1.226562.371094-2.34375 1.042969-3.242187 1.964844l-36.179687 36.179687c-.898438.878907-1.570313 1.960938-1.964844 3.15625-2.21875-1.449219-4.433594-2.8125-6.738282-4.09375-7.632812-4.410156-15.769531-7.875-24.234374-10.324219-34.136719-9.816406-68.4375-1.539062-98.816407 10.835938l-.171875-.511719c.332032-.261719.644532-.546875.9375-.855469l38.914063-38.910156c.085937-.085937.085937-.085937.167969-.085937l98.648437-98.644531 27.648437-27.734376c.582032-.574218 1.070313-1.234374 1.449219-1.960937l.339844.167969c-12.542969 30.636718-21.160156 65.367187-11.175781 99.839844 3.167968 10.984374 8.035156 21.410156 14.417968 30.890624zm0 0" fill="#7fabfa"/><path d="m332.816406 359.714844v.085937c-1.226562.367188-2.34375 1.042969-3.242187 1.960938l-21.160157 21.164062c-7.632812-4.410156-15.769531-7.875-24.234374-10.324219-34.136719-9.816406-68.4375-1.539062-98.816407 10.835938l-.171875-.511719c.332032-.261719.644532-.546875.9375-.855469l38.914063-38.910156c.085937-.085937.085937-.085937.167969-.085937l98.648437-98.644531c-10.554687 26.878906-12.464844 56.378906-5.460937 84.394531 3.167968 10.984375 8.035156 21.40625 14.417968 30.890625zm0 0" fill="#e3e7f2"/><path d="m467.984375 474.402344-24.148437 24.0625c-1.878907 1.894531-4.191407 3.300781-6.742188 4.097656-6.105469 2.117188-12.886719.523438-17.40625-4.097656l-5.972656-5.972656h-.085938l-12.03125-12.117188-36.183594-36.179688-12.03125-12.03125h-.085937l-36.179687-36.269531c-2.328126-2.320312-3.097657-5.785156-1.964844-8.875.394531-1.195312 1.066406-2.277343 1.964844-3.15625l36.179687-36.179687c.898437-.921875 2.015625-1.59375 3.242187-1.964844 3.089844-1.132812 6.554688-.367188 8.875 1.964844l102.570313 102.570312c3.207031 3.199219 5.007813 7.542969 5.007813 12.074219s-1.800782 8.875-5.007813 12.074219zm0 0" fill="#7fabfa"/><path d="m443.496094 496.164062-6.402344 6.398438c-6.105469 2.117188-12.886719.523438-17.40625-4.097656l-5.972656-5.972656h-.085938l-12.03125-12.117188-36.183594-36.179688-12.03125-12.03125h-.085937l-36.179687-36.269531c-2.328126-2.320312-3.097657-5.785156-1.964844-8.875.394531-1.195312 1.066406-2.277343 1.964844-3.15625l16.808593-16.808593c2.578125-.332032 5.164063.550781 7 2.386718l102.570313 102.570313c3.203125 3.203125 5.003906 7.546875 5.003906 12.074219 0 4.53125-1.800781 8.875-5.003906 12.078124zm0 0" fill="#e3e7f2"/><path d="m354.066406 210.296875c.058594 1.554687-.324218 3.09375-1.109375 4.4375-.378906.726563-.867187 1.386719-1.449219 1.960937l-126.296874 126.378907c-.082032 0-.082032 0-.167969.085937l-38.914063 38.910156c-.292968.308594-.605468.59375-.9375.855469-.320312.230469-.664062.429688-1.023437.597657-1.308594.792968-2.824219 1.179687-4.351563 1.109374-1.28125-.085937-2.644531-.085937-3.925781-.171874-19.777344-1.144532-39.222656-5.617188-57.515625-13.226563-5.949219-2.503906-11.757812-5.324219-17.40625-8.449219-14.800781-8.089844-28.367188-18.265625-40.277344-30.207031-16.535156-16.484375-29.667968-36.054687-38.65625-57.601563-8.625-20.667968-13.199218-42.800781-13.484375-65.191406-.292969-22.210937 3.738281-44.265625 11.863281-64.941406 17.042969-42.898438 51.035157-76.863281 93.949219-93.867188 20.644531-8.128906 42.671875-12.160156 64.855469-11.859374 22.378906.320312 44.5 4.867187 65.195312 13.398437 43.453126 18.308594 78.027344 52.882813 96.339844 96.339844 8.101563 19.511719 12.613282 40.324219 13.3125 61.441406zm0 0" fill="#cc4b4c"/><path d="m354.074219 218.222656c.058593 1.554688-.324219 3.09375-1.109375 4.4375-.375.726563-.867188 1.390625-1.449219 1.964844l-126.292969 126.375c-.085937 0-.085937 0-.171875.085938l-38.910156 38.914062c-.296875.304688-.609375.589844-.941406.851562-.320313.230469-.664063.429688-1.023438.597657-1.308593.796875-2.824219 1.183593-4.351562 1.109375-1.28125-.085938-2.644531-.085938-3.925781-.171875-19.777344-1.144531-39.222657-5.613281-57.515626-13.226563-5.949218-2.503906-11.757812-5.324218-17.40625-8.445312-14.800781-8.09375-28.363281-18.265625-40.277343-30.207032-16.535157-16.484374-29.667969-36.054687-38.65625-57.601562-8.625-20.667969-13.207031-42.800781-13.492188-65.195312-.292969-22.210938 3.738281-44.265626 11.863281-64.9375 17.042969-42.898438 51.039063-76.855469 93.949219-93.859376 20.640625-8.132812 42.671875-12.164062 64.855469-11.871093 22.378906.324219 44.5 4.867187 65.195312 13.398437 43.453126 18.3125 78.027344 52.886719 96.339844 96.34375 8.105469 19.507813 12.617188 40.324219 13.320313 61.4375zm0 0" fill="#a4c2f7"/><path d="m354.066406 209.699219c.058594 1.554687-.324218 3.09375-1.109375 4.4375-.378906.726562-.867187 1.386719-1.449219 1.960937l-126.296874 126.378906c-.082032 0-.082032 0-.167969.085938l-38.914063 38.910156c-.292968.308594-.605468.59375-.9375.855469-.320312.230469-.664062.429687-1.023437.597656-1.308594.792969-2.824219 1.179688-4.351563 1.109375-1.28125-.085937-2.644531-.085937-3.925781-.171875-1.535156-.085937-3.15625-.171875-4.695313-.339843-18.164062-1.554688-35.980468-5.902344-52.820312-12.886719-5.949219-2.503907-11.757812-5.324219-17.40625-8.449219-14.800781-8.089844-28.367188-18.261719-40.277344-30.207031-16.535156-16.484375-29.667968-36.054688-38.65625-57.597657-8.625-20.671874-13.199218-42.800781-13.484375-65.195312-.292969-22.210938 3.738281-44.265625 11.863281-64.941406 13.425782-33.71875 37.402344-62.1875 68.351563-81.148438.085937 0 .085937-.085937.167969-.085937 8.078125-4.972657 16.589844-9.199219 25.429687-12.628907 20.644531-8.132812 42.671875-12.160156 64.855469-11.863281 22.378906.320313 44.5 4.867188 65.195312 13.398438 43.453126 18.308593 78.027344 52.886719 96.339844 96.339843 8.101563 19.511719 12.613282 40.324219 13.3125 61.441407zm0 0" fill="#a4c2f7"/><path d="m328.464844 222.414062c.0625 1.554688-.324219 3.09375-1.109375 4.4375-.375.726563-.867188 1.386719-1.449219 1.960938l-126.292969 126.378906c-.085937 0-.085937 0-.171875.085938l-28.246094 28.246094c-18.164062-1.554688-35.980468-5.902344-52.820312-12.886719-5.949219-2.503907-11.757812-5.324219-17.40625-8.449219-14.800781-8.089844-28.367188-18.261719-40.277344-30.207031-16.535156-16.484375-29.667968-36.054688-38.65625-57.597657-8.625-20.671874-13.199218-42.800781-13.484375-65.195312-.292969-22.210938 3.738281-44.265625 11.863281-64.941406 13.425782-33.71875 37.402344-62.1875 68.351563-81.148438.085937 0 .085937-.085937.167969-.085937 20.601562-8.066407 42.566406-12.0625 64.683594-11.777344 22.382812.320313 44.5 4.867187 65.195312 13.398437 43.457031 18.308594 78.03125 52.882813 96.339844 96.339844 8.105468 19.511719 12.613281 40.324219 13.3125 61.441406zm0 0" fill="#e3e7f2"/><path d="m503.484375 179.832031c-.28125 22.394531-4.859375 44.523438-13.480469 65.195313-18.246094 43.5-52.84375 78.097656-96.34375 96.339844-8.621094 3.585937-17.523437 6.441406-26.625 8.535156l-1.621094-1.621094c-2.320312-2.332031-5.785156-3.097656-8.875-1.964844v-.085937c-.082031-.167969-.253906-.339844-.253906-.511719-6.300781-9.3125-11.082031-19.566406-14.164062-30.378906-9.984375-34.472656-1.367188-69.203125 11.175781-99.839844l-.339844-.167969c.785157-1.34375 1.167969-2.882812 1.109375-4.4375-.699218-21.117187-5.210937-41.929687-13.3125-61.441406-18.3125-43.457031-52.886718-78.03125-96.339844-96.339844-5.882812-2.433593-11.894531-4.542969-18.007812-6.316406 12.582031-9.878906 26.449219-18 41.21875-24.148437 17.25-7.195313 35.546875-11.574219 54.183594-12.972657 3.671875-.339843 7.339844-.511719 11.007812-.511719 22.183594-.296874 44.214844 3.730469 64.855469 11.863282 42.898437 17.070312 76.878906 51.050781 93.953125 93.949218 8.128906 20.644532 12.160156 42.671876 11.859375 64.855469zm0 0" fill="#a4c2f7"/><path d="m477.886719 179.832031c-.285157 22.394531-4.863281 44.523438-13.484375 65.195313-18.242188 43.5-52.839844 78.097656-96.339844 96.339844-3.839844 1.621093-7.765625 3.074218-11.777344 4.351562-6.300781-9.3125-11.082031-19.566406-14.164062-30.378906-9.984375-34.472656-1.367188-69.203125 11.175781-99.839844l-.339844-.167969c.785157-1.34375 1.167969-2.882812 1.109375-4.4375-.699218-21.117187-5.210937-41.929687-13.3125-61.441406-18.3125-43.457031-52.886718-78.03125-96.339844-96.339844-5.882812-2.433593-11.894531-4.542969-18.007812-6.316406 12.582031-9.878906 26.449219-18 41.21875-24.148437 17.25-7.195313 35.546875-11.574219 54.183594-12.972657 17.238281 1.175781 34.191406 5.003907 50.261718 11.351563 42.902344 17.070312 76.878907 51.050781 93.953126 93.949218 8.132812 20.644532 12.160156 42.671876 11.863281 64.855469zm0 0" fill="#e3e7f2"/><path d="m175.890625 384.460938-83.542969 83.542968c-3.199218 3.203125-7.542968 5.003906-12.074218 5.003906-4.527344 0-8.871094-1.800781-12.074219-5.003906l-13.480469-13.484375-10.667969-10.667969c-3.207031-3.199218-5.007812-7.542968-5.007812-12.074218 0-4.527344 1.800781-8.871094 5.007812-12.074219l30.207031-30.121094v-.085937l26.710938-26.710938c4.4375 2.476563 8.957031 4.695313 13.566406 6.742188 1.28125.597656 2.558594 1.195312 3.839844 1.707031 4.695312 1.960937 9.472656 3.667969 14.25 5.207031 14.027344 4.480469 28.5625 7.175782 43.265625 8.019532zm0 0" fill="#7fabfa"/><path d="m136.808594 372.257812-4.183594 4.183594-61.183594 61.269532-12.03125 12.117187-4.691406 4.691406-10.667969-10.667969c-3.207031-3.199218-5.007812-7.542968-5.007812-12.074218 0-4.527344 1.800781-8.871094 5.007812-12.074219l30.207031-30.121094v-.085937l23.894532-23.894532c5.382812 1.609376 10.855468 2.921876 16.382812 3.925782 7.359375 1.371094 14.800782 2.285156 22.273438 2.730468zm0 0" fill="#e3e7f2"/><path d="m298.683594 460.835938c0 23.5625-19.101563 42.664062-42.664063 42.664062-4.335937-.011719-8.644531-.644531-12.800781-1.875-17.785156-5.632812-29.867188-22.136719-29.867188-40.789062 0-18.65625 12.082032-35.160157 29.867188-40.789063 4.15625-1.234375 8.464844-1.867187 12.800781-1.878906 23.5625 0 42.664063 19.101562 42.664063 42.667969zm0 0" fill="#e3e7f2"/><path d="m273.085938 460.835938c0-22.527344-13.371094-40.789063-29.867188-40.789063s-29.867188 18.261719-29.867188 40.789063c0 22.527343 13.371094 40.789062 29.867188 40.789062s29.867188-18.261719 29.867188-40.789062zm0 0" fill="#e3e7f2"/><path d="m22.042969 282.90625c8.988281 21.546875 22.121093 41.117188 38.65625 57.601562" fill="#fff"/><path d="m60.699219 340.515625c10.566406 10.535156 22.425781 19.695313 35.292969 27.253906l-9.703126 9.695313-12.03125 12.03125v.085937l-30.207031 30.121094c-3.207031 3.203125-5.007812 7.546875-5.007812 12.074219 0 4.53125 1.800781 8.875 5.007812 12.074218l10.667969 10.667969 13.480469 13.484375c3.203125 3.203125 7.546875 5.003906 12.074219 5.003906 4.53125 0 8.875-1.800781 12.074218-5.003906l.726563-.726562-23.425781-23.425782c-3.203126-3.199218-5.003907-7.542968-5.003907-12.074218 0-4.527344 1.800781-8.871094 5.003907-12.074219l30.210937-30.121094v-.085937l21.734375-21.734375c-53.375-31.292969-86.53125-88.1875-87.441406-150.050781 0-1.613282.152344-3.214844.179687-4.828126 0-1.035156-.179687-2.066406-.1875-3.097656 0-.128906 0-.25 0-.375v-.222656c-.289062-22.210938 3.742188-44.265625 11.867188-64.941406 13.425781-33.71875 37.40625-62.1875 68.351562-81.148438.085938 0 .085938-.085937.171875-.085937 8.078125-4.972657 16.589844-9.199219 25.429688-12.628907 16.15625-6.351562 33.195312-10.179687 50.515625-11.351562-3.753907-.289062-7.507813-.46875-11.261719-.511719-22.183594-.296875-44.210938 3.730469-64.855469 11.863281-8.839843 3.429688-17.351562 7.65625-25.429687 12.628907-.082032 0-.082032.085937-.167969.085937-30.949219 18.960938-54.925781 47.429688-68.351563 81.148438-8.125 20.675781-12.15625 42.730468-11.863281 64.941406v.222656.375c0 1.03125.15625 2.0625.1875 3.097656 0 1.613282-.195312 3.214844-.179687 4.828126.285156 22.394531 4.863281 44.527343 13.484375 65.195312" fill="#fff"/><path d="m277.914062 115.363281c13.394532 13.324219 24.027344 29.160157 31.292969 46.601563 5.164063 12.382812 8.53125 25.445312 10.007813 38.78125" fill="#fff"/><g fill="#428dff"><path d="m14.148438 278.222656c9.394531 22.597656 23.152343 43.121094 40.484374 60.398438 9.859376 9.792968 20.773438 18.464844 32.542969 25.855468l-49.160156 49.195313c-4.804687 4.800781-7.503906 11.3125-7.503906 18.105469 0 6.792968 2.699219 13.308594 7.503906 18.109375l24.152344 24.148437c4.800781 4.804688 11.3125 7.503906 18.105469 7.503906 6.792968 0 13.308593-2.699218 18.109374-7.503906l80.894532-80.894531h.792968c1.941407-.023437 3.867188-.378906 5.683594-1.058594.636719-.046875 1.261719-.171875 1.871094-.367187 37.109375-15.292969 67.042969-18.773438 94.207031-10.90625 8.585938 2.496094 16.804688 6.121094 24.4375 10.777344.359375 3.90625 2.0625 7.566406 4.824219 10.351562l102.578125 102.570312c9.996094 9.992188 26.203125 9.992188 36.199219 0l24.132812-24.132812c4.800782-4.800781 7.496094-11.3125 7.496094-18.101562 0-6.792969-2.695312-13.304688-7.496094-18.105469l-36.226562-36.164063-54.382813-54.382812c4.488281-1.457032 9.003907-3.089844 13.527344-4.949219 45.582031-19.113281 81.832031-55.367187 100.941406-100.949219 9.074219-21.671875 13.878907-44.890625 14.15625-68.386718.339844-23.292969-3.894531-46.429688-12.460937-68.09375-17.933594-45.09375-53.648438-80.808594-98.738282-98.75-21.675781-8.535157-44.808593-12.765626-68.105468-12.4570318-23.488282.2734378-46.707032 5.0742188-68.375 14.1406248-14.15625 5.929688-27.523438 13.59375-39.792969 22.816407-14.746094-4.03125-29.941406-6.191407-45.226563-6.433594-23.296874-.328125-46.4375 3.898437-68.113281 12.441406-45.125 17.886719-80.855469 53.621094-98.738281 98.746094-8.554688 21.675781-12.78125 44.816406-12.4492188 68.113281.2851568 23.484375 5.0820308 46.691406 14.1289068 68.363281zm90.265624 165.648438-18.117187-18.117188c-3.378906-2.953125-8.472656-2.78125-11.644531.394532-3.175782 3.171874-3.347656 8.265624-.394532 11.644531l18.117188 18.117187-6.042969 6.035156c-3.382812 3.210938-8.6875 3.210938-12.074219 0l-24.175781-24.152343c-1.601562-1.597657-2.5-3.769531-2.5-6.035157 0-2.265624.898438-4.4375 2.5-6.039062l30.148438-30.148438 18.117187 18.117188c3.347656 3.234375 8.671875 3.1875 11.960938-.105469 3.292968-3.289062 3.339844-8.613281.105468-11.960937l-18.117187-18.117188 10.285156-10.28125c4.09375 2.074219 8.199219 4.140625 12.457031 5.914063 13.585938 5.597656 27.796876 9.550781 42.324219 11.765625zm111.222657-79.207032 118.496093-118.496093c-6.328124 23.195312-6.410156 47.652343-.230468 70.886719 2.6875 9.292968 6.507812 18.222656 11.375 26.582031l-32.164063 32.164062c-8.351562-4.875-17.273437-8.703125-26.5625-11.394531-23.246093-6.179688-47.714843-6.09375-70.914062.257812zm246.300781 103.671876-24.160156 24.132812c-3.332032 3.328125-8.734375 3.328125-12.066406 0l-6.007813-6.035156 18.074219-18.105469c2.21875-2.144531 3.109375-5.316406 2.328125-8.300781s-3.109375-5.3125-6.09375-6.09375-6.15625.109375-8.300781 2.328125l-18.097657 18.105469-36.207031-36.207032 18.097656-18.097656c3.234375-3.347656 3.1875-8.671875-.101562-11.960938-3.292969-3.292968-8.613282-3.339843-11.964844-.105468l-18.097656 18.097656-36.207032-36.207031 36.207032-36.207031 12.066406 12.078124-18.109375 18.097657c-2.15625 2.15625-3 5.296875-2.210937 8.242187.789062 2.945313 3.089843 5.25 6.035156 6.039063 2.941406.789062 6.085937-.050781 8.242187-2.207031l18.101563-18.109376 36.207031 36.207032-18.101563 18.101562c-2.21875 2.140625-3.105468 5.316406-2.324218 8.296875.777344 2.984375 3.109375 5.316407 6.09375 6.09375 2.980468.78125 6.15625-.105469 8.296875-2.324219l18.167969-18.101562 30.164062 30.167969c1.597656 1.605469 2.492188 3.777343 2.488281 6.042969-.007812 2.265624-.914062 4.433593-2.519531 6.03125zm-191.039062-438.433594c19.660156-8.210938 40.71875-12.558594 62.023437-12.800782 21.078125-.328124 42.011719 3.496094 61.609375 11.261719 40.710938 16.203125 72.957031 48.453125 89.15625 89.167969 7.75 19.597656 11.574219 40.527344 11.265625 61.601562-.246094 21.304688-4.589844 42.359376-12.800781 62.019532-17.378906 41.417968-50.324219 74.355468-91.742188 91.726562-6.878906 2.808594-13.941406 5.140625-21.136718 6.976563-2.414063-1.722657-5.238282-2.78125-8.191407-3.0625-4.65625-7.636719-8.277343-15.851563-10.777343-24.4375-7.851563-27.164063-4.378907-57.089844 10.914062-94.183594.175781-.570313.289062-1.15625.339844-1.75.761718-2.039063 1.128906-4.207031 1.074218-6.382813-.746093-22.152343-5.496093-43.984374-14.027343-64.441406-19.074219-45.59375-55.328125-81.847656-100.914063-100.925781-.933594-.382813-1.886718-.648437-2.828125-1.015625 8.265625-5.328125 16.976563-9.929688 26.035157-13.753906zm-153.402344 29.011718c19.613281-7.730468 40.546875-11.554687 61.628906-11.253906 21.300781.25 42.359375 4.597656 62.019531 12.800782 41.402344 17.347656 74.328125 50.277343 91.671875 91.679687 7.757813 18.570313 12.054688 38.398437 12.671875 58.511719l-126.367187 126.40625-.113282.066406-.066406.113281-38.871094 38.859375c-20.097656-.671875-39.90625-4.984375-58.46875-12.722656-41.421874-17.34375-74.363281-50.28125-91.714843-91.699219-8.195313-19.664062-12.542969-40.71875-12.800781-62.019531-.308594-21.078125 3.511718-42.015625 11.246093-61.628906 16.144531-40.738282 48.414063-72.992188 89.164063-89.113282zm0 0"/><path d="m301.332031 165.238281c4.835938 11.640625 7.996094 23.910157 9.386719 36.4375.472656 4.324219 4.121094 7.601563 8.472656 7.605469.316406 0 .632813-.019531.945313-.050781 4.671875-.519531 8.042969-4.714844 7.542969-9.386719-1.566407-14.144531-5.140626-27.992188-10.605469-41.132812-7.695313-18.46875-18.957031-35.242188-33.144531-49.355469-3.347657-3.234375-8.667969-3.1875-11.960938.101562-3.292969 3.292969-3.339844 8.617188-.105469 11.964844 12.605469 12.527344 22.621094 27.417969 29.46875 43.816406zm0 0"/><path d="m51.21875 209.21875c-.25-16.636719 2.761719-33.160156 8.867188-48.636719 1.140624-2.839843.675781-6.078125-1.222657-8.480469-1.898437-2.402343-4.9375-3.605468-7.964843-3.148437-3.027344.457031-5.578126 2.5-6.6875 5.355469-6.921876 17.542968-10.339844 36.269531-10.058594 55.125.230468 19.125 4.136718 38.027344 11.503906 55.679687 1.164062 2.824219 3.746094 4.8125 6.773438 5.214844 3.027343.402344 6.039062-.839844 7.902343-3.261719 1.859375-2.417968 2.289063-5.648437 1.125-8.472656-6.546875-15.648438-10.023437-32.410156-10.238281-49.375zm0 0"/><path d="m455.21875 239.207031c4.355469 1.808594 9.347656-.257812 11.15625-4.609375 7.367188-17.648437 11.273438-36.546875 11.511719-55.671875.277343-18.867187-3.144531-37.605469-10.070313-55.15625-1.105468-2.855469-3.660156-4.902343-6.6875-5.355469-3.027344-.457031-6.066406.746094-7.964844 3.148438-1.898437 2.402344-2.363281 5.636719-1.21875 8.476562 6.109376 15.488282 9.125 32.027344 8.871094 48.675782-.21875 16.949218-3.695312 33.699218-10.238281 49.339844-.867187 2.09375-.863281 4.445312.007813 6.539062.871093 2.089844 2.539062 3.75 4.632812 4.613281zm0 0"/><path d="m204.816406 460.835938c0 28.277343 22.925782 51.199218 51.203125 51.199218 28.277344 0 51.199219-22.921875 51.199219-51.199218 0-28.277344-22.921875-51.203126-51.199219-51.203126-28.265625.03125-51.171875 22.9375-51.203125 51.203126zm85.335938 0c0 18.851562-15.28125 34.132812-34.132813 34.132812-18.851562 0-34.132812-15.28125-34.132812-34.132812 0-18.851563 15.28125-34.136719 34.132812-34.136719 18.851563 0 34.132813 15.285156 34.132813 34.136719zm0 0"/><path d="m241.425781 446.242188c-2.460937 2.441406-3.199219 6.128906-1.871093 9.332031 1.328124 3.199219 4.464843 5.28125 7.929687 5.261719.574219-.015626 1.144531-.074219 1.707031-.171876.535156-.09375 1.050782-.265624 1.535156-.511718.542969-.1875 1.0625-.445313 1.535157-.769532.449219-.3125.875-.65625 1.28125-1.023437 3.347656-3.34375 3.347656-8.769531 0-12.117187-3.34375-3.347657-8.769531-3.347657-12.117188 0zm0 0"/></g></svg>