<svg height="480pt" viewBox="0 0 480 480" width="480pt" xmlns="http://www.w3.org/2000/svg"><path d="m152 24c0-8.835938-7.164062-16-16-16h-80c-8.835938 0-16 7.164062-16 16v432c0 8.835938 7.164062 16 16 16h80c8.835938 0 16-7.164062 16-16zm0 0" fill="#9bc9ff"/><path d="m184 64h256v64h-256zm0 0" fill="#9bc9ff"/><path d="m200 176h32v32h-32zm0 0" fill="#9bc9ff"/><path d="m200 240h32v32h-32zm0 0" fill="#9bc9ff"/><path d="m200 304h32v32h-32zm0 0" fill="#9bc9ff"/><path d="m200 368h32v32h-32zm0 0" fill="#9bc9ff"/><path d="m264 176h32v32h-32zm0 0" fill="#9bc9ff"/><path d="m264 240h32v32h-32zm0 0" fill="#9bc9ff"/><path d="m264 304h32v32h-32zm0 0" fill="#9bc9ff"/><path d="m264 368h32v32h-32zm0 0" fill="#9bc9ff"/><path d="m328 176h32v32h-32zm0 0" fill="#9bc9ff"/><path d="m328 240h32v32h-32zm0 0" fill="#9bc9ff"/><path d="m328 304h32v32h-32zm0 0" fill="#9bc9ff"/><path d="m328 368h32v32h-32zm0 0" fill="#9bc9ff"/><path d="m392 176h32v32h-32zm0 0" fill="#9bc9ff"/><path d="m392 240h32v32h-32zm0 0" fill="#9bc9ff"/><path d="m392 304h32v32h-32zm0 0" fill="#9bc9ff"/><path d="m392 368h32v32h-32zm0 0" fill="#9bc9ff"/><g fill="#57a4ff"><path d="m472 24h-312c0-13.253906-10.746094-24-24-24h-80c-13.253906 0-24 10.746094-24 24h-24c-4.417969 0-8 3.582031-8 8v416c0 4.417969 3.582031 8 8 8h24c0 13.253906 10.746094 24 24 24h80c13.253906 0 24-10.746094 24-24h312c4.417969 0 8-3.582031 8-8v-416c0-4.417969-3.582031-8-8-8zm-456 416v-400h16v400zm128 16c0 4.417969-3.582031 8-8 8h-80c-4.417969 0-8-3.582031-8-8v-432c0-4.417969 3.582031-8 8-8h80c4.417969 0 8 3.582031 8 8zm320-16h-304v-400h304zm0 0"/><path d="m184 136h256c4.417969 0 8-3.582031 8-8v-64c0-4.417969-3.582031-8-8-8h-256c-4.417969 0-8 3.582031-8 8v64c0 4.417969 3.582031 8 8 8zm8-64h240v48h-240zm0 0"/><path d="m408 80h16v32h-16zm0 0"/><path d="m232 168h-32c-4.417969 0-8 3.582031-8 8v32c0 4.417969 3.582031 8 8 8h32c4.417969 0 8-3.582031 8-8v-32c0-4.417969-3.582031-8-8-8zm-8 32h-16v-16h16zm0 0"/><path d="m232 232h-32c-4.417969 0-8 3.582031-8 8v32c0 4.417969 3.582031 8 8 8h32c4.417969 0 8-3.582031 8-8v-32c0-4.417969-3.582031-8-8-8zm-8 32h-16v-16h16zm0 0"/><path d="m232 296h-32c-4.417969 0-8 3.582031-8 8v32c0 4.417969 3.582031 8 8 8h32c4.417969 0 8-3.582031 8-8v-32c0-4.417969-3.582031-8-8-8zm-8 32h-16v-16h16zm0 0"/><path d="m232 360h-32c-4.417969 0-8 3.582031-8 8v32c0 4.417969 3.582031 8 8 8h32c4.417969 0 8-3.582031 8-8v-32c0-4.417969-3.582031-8-8-8zm-8 32h-16v-16h16zm0 0"/><path d="m296 168h-32c-4.417969 0-8 3.582031-8 8v32c0 4.417969 3.582031 8 8 8h32c4.417969 0 8-3.582031 8-8v-32c0-4.417969-3.582031-8-8-8zm-8 32h-16v-16h16zm0 0"/><path d="m296 232h-32c-4.417969 0-8 3.582031-8 8v32c0 4.417969 3.582031 8 8 8h32c4.417969 0 8-3.582031 8-8v-32c0-4.417969-3.582031-8-8-8zm-8 32h-16v-16h16zm0 0"/><path d="m296 296h-32c-4.417969 0-8 3.582031-8 8v32c0 4.417969 3.582031 8 8 8h32c4.417969 0 8-3.582031 8-8v-32c0-4.417969-3.582031-8-8-8zm-8 32h-16v-16h16zm0 0"/><path d="m296 360h-32c-4.417969 0-8 3.582031-8 8v32c0 4.417969 3.582031 8 8 8h32c4.417969 0 8-3.582031 8-8v-32c0-4.417969-3.582031-8-8-8zm-8 32h-16v-16h16zm0 0"/><path d="m360 168h-32c-4.417969 0-8 3.582031-8 8v32c0 4.417969 3.582031 8 8 8h32c4.417969 0 8-3.582031 8-8v-32c0-4.417969-3.582031-8-8-8zm-8 32h-16v-16h16zm0 0"/><path d="m360 232h-32c-4.417969 0-8 3.582031-8 8v32c0 4.417969 3.582031 8 8 8h32c4.417969 0 8-3.582031 8-8v-32c0-4.417969-3.582031-8-8-8zm-8 32h-16v-16h16zm0 0"/><path d="m360 296h-32c-4.417969 0-8 3.582031-8 8v32c0 4.417969 3.582031 8 8 8h32c4.417969 0 8-3.582031 8-8v-32c0-4.417969-3.582031-8-8-8zm-8 32h-16v-16h16zm0 0"/><path d="m360 360h-32c-4.417969 0-8 3.582031-8 8v32c0 4.417969 3.582031 8 8 8h32c4.417969 0 8-3.582031 8-8v-32c0-4.417969-3.582031-8-8-8zm-8 32h-16v-16h16zm0 0"/><path d="m424 168h-32c-4.417969 0-8 3.582031-8 8v32c0 4.417969 3.582031 8 8 8h32c4.417969 0 8-3.582031 8-8v-32c0-4.417969-3.582031-8-8-8zm-8 32h-16v-16h16zm0 0"/><path d="m424 232h-32c-4.417969 0-8 3.582031-8 8v32c0 4.417969 3.582031 8 8 8h32c4.417969 0 8-3.582031 8-8v-32c0-4.417969-3.582031-8-8-8zm-8 32h-16v-16h16zm0 0"/><path d="m424 296h-32c-4.417969 0-8 3.582031-8 8v32c0 4.417969 3.582031 8 8 8h32c4.417969 0 8-3.582031 8-8v-32c0-4.417969-3.582031-8-8-8zm-8 32h-16v-16h16zm0 0"/><path d="m424 360h-32c-4.417969 0-8 3.582031-8 8v32c0 4.417969 3.582031 8 8 8h32c4.417969 0 8-3.582031 8-8v-32c0-4.417969-3.582031-8-8-8zm-8 32h-16v-16h16zm0 0"/></g></svg>