<?xml version="1.0"?>
<svg xmlns="http://www.w3.org/2000/svg" xmlns:xlink="http://www.w3.org/1999/xlink" viewBox="0 0 512 512" width="512" height="512"><linearGradient id="a" gradientUnits="userSpaceOnUse" x1="296.429" x2="296.429" y1="6.878" y2="496.01"><stop offset="0" stop-color="#00efd1"/><stop offset="1" stop-color="#00acea"/></linearGradient><linearGradient id="b" x1="110.929" x2="110.929" xlink:href="#a" y1="6.878" y2="496.01"/><linearGradient id="c" x1="296.5" x2="296.5" xlink:href="#a" y1="6.878" y2="496.01"/><linearGradient id="d" x1="322.5" x2="322.5" xlink:href="#a" y1="6.878" y2="496.01"/><linearGradient id="e" x1="270.346" x2="270.346" xlink:href="#a" y1="6.878" y2="496.01"/><path d="m240.089 449h112.681a10 10 0 0 0 0-20h-112.681a10 10 0 1 0 0 20z" fill="url(#a)"/><path d="m155.952 256a45.008 45.008 0 0 0 -34.952-43.817v-85.56a45.058 45.058 0 1 0 -20 0v85.56a44.941 44.941 0 0 0 0 87.634v85.56a44.845 44.845 0 1 0 20 0v-85.56a45.008 45.008 0 0 0 34.952-43.817zm-70.188-173.193a24.952 24.952 0 1 1 24.951 24.951 24.98 24.98 0 0 1 -24.951-24.951zm49.9 346.386a24.952 24.952 0 1 1 -24.952-24.951 24.981 24.981 0 0 1 24.955 24.951zm-24.949-148.241a24.952 24.952 0 1 1 24.952-24.952 24.98 24.98 0 0 1 -24.952 24.952z" fill="url(#b)"/><path d="m209 152h175a10 10 0 0 0 10-10v-105a10 10 0 0 0 -10-10h-175a10 10 0 0 0 -10 10v105a10 10 0 0 0 10 10zm10-105h155v84h-155z" fill="url(#c)"/><path d="m436 194h-227a10 10 0 0 0 -10 10v105a10 10 0 0 0 10 10h227a10 10 0 0 0 10-10v-105a10 10 0 0 0 -10-10zm-10 104h-207v-84h207z" fill="url(#d)"/><path d="m384 361h-175a10 10 0 0 0 -10 10v105a10 10 0 0 0 10 10h175a10 10 0 0 0 10-10v-105a10 10 0 0 0 -10-10zm-10 104h-155v-84h155z" fill="url(#c)"/><path d="m240.089 83h60.511a10 10 0 0 0 0-20h-60.511a10 10 0 0 0 0 20z" fill="url(#e)"/><path d="m352.77 95h-112.681a10 10 0 0 0 0 20h112.681a10 10 0 0 0 0-20z" fill="url(#a)"/><path d="m240.089 250h60.511a10 10 0 1 0 0-20h-60.511a10 10 0 0 0 0 20z" fill="url(#e)"/><path d="m240.089 282h112.681a10 10 0 0 0 0-20h-112.681a10 10 0 1 0 0 20z" fill="url(#a)"/><path d="m240.089 417h60.511a10 10 0 1 0 0-20h-60.511a10 10 0 1 0 0 20z" fill="url(#e)"/></svg>
