<svg height="512" viewBox="0 0 512 512" width="512" xmlns="http://www.w3.org/2000/svg" xmlns:xlink="http://www.w3.org/1999/xlink"><linearGradient id="New_Gradient_Swatch_17" gradientUnits="userSpaceOnUse" x1="265.046" x2="377.18" y1="455.041" y2="342.907"><stop offset=".004" stop-color="#e7aaab"/><stop offset="1" stop-color="#f1cccd"/></linearGradient><linearGradient id="New_Gradient_Swatch_1" gradientUnits="userSpaceOnUse" x1="60.223" x2="323.806" y1="524.223" y2="260.641"><stop offset=".004" stop-color="#f1cccd"/><stop offset="1" stop-color="#faeeee"/></linearGradient><linearGradient id="New_Gradient_Swatch_18" gradientUnits="userSpaceOnUse" x1="168.627" x2="343.373" y1="221.373" y2="46.627"><stop offset=".015" stop-color="#83839e"/><stop offset="1" stop-color="#b8b8c7"/></linearGradient><g id="_05-support" data-name="05-support"><g id="gradient"><path d="m384.517 350.7c-9.058-3.659-31.48-10.819-44.04 1.741-16 16-32 48-32 48l-69.407 13.879c12.686 16.234 24.008 33.56 35.78 50.525l58.487-14.622a16 16 0 0 0 10.431-8.367l42.832-85.656a4 4 0 0 0 -2.083-5.5z" fill="url(#New_Gradient_Swatch_17)"/><path d="m387.022 368c-16 16-32 48-32 48l-80 16-96-64h80.292c38.976 0 46.3-31.648 47.681-43.548a4 4 0 0 0 -3.975-4.452h-303.02v144h115.022l140.313 31.181a16.02 16.02 0 0 0 7.352-.1l117.2-29.3a16 16 0 0 0 10.43-8.367l40.837-81.674a7.985 7.985 0 0 0 -4.531-11.136c-10.61-3.604-28.771-7.434-39.601 3.396z" fill="url(#New_Gradient_Swatch_1)"/><path d="m374.3 104.661-19.131-2.368-6.627-16 11.858-15.193a6 6 0 0 0 -.489-7.932l-33.074-33.077a6 6 0 0 0 -7.937-.491l-15.2 11.856-16-6.626-2.361-19.13a6 6 0 0 0 -5.954-5.263h-46.77a6 6 0 0 0 -5.954 5.263l-2.368 19.13-16 6.626-15.193-11.856a6 6 0 0 0 -7.932.488l-33.076 33.075a6 6 0 0 0 -.492 7.937l11.853 15.2-6.627 16-19.126 2.361a6 6 0 0 0 -5.262 5.954v46.77a6 6 0 0 0 5.262 5.954l19.131 2.368 6.627 16-11.853 15.2a6 6 0 0 0 .489 7.932l33.071 33.072a6 6 0 0 0 7.932.488l15.2-11.853 16 6.626 2.368 19.131a6 6 0 0 0 5.954 5.263h46.77a6 6 0 0 0 5.954-5.263l2.368-19.131 16-6.626 15.189 11.854a6 6 0 0 0 7.932-.488l33.071-33.072a6 6 0 0 0 .489-7.932l-11.853-15.2 6.627-16 19.131-2.368a6 6 0 0 0 5.262-5.954v-46.77a6 6 0 0 0 -5.259-5.955zm-84.344 63.295a48 48 0 1 1 0-67.912 48.077 48.077 0 0 1 .002 67.912z" fill="url(#New_Gradient_Swatch_18)"/><path d="m426.2 168.6a12 12 0 0 1 -8.481-20.489 19.946 19.946 0 0 0 0-28.23 12 12 0 1 1 16.963-16.978 43.946 43.946 0 0 1 0 62.186 11.962 11.962 0 0 1 -8.482 3.511z" fill="#90d7d1"/><path d="m460.14 202.51a12 12 0 0 1 -8.481-20.489 67.861 67.861 0 0 0 0-96.042 12 12 0 1 1 16.961-16.979 91.858 91.858 0 0 1 0 130 11.962 11.962 0 0 1 -8.48 3.51z" fill="#afe2de"/><path d="m85.8 168.6a11.962 11.962 0 0 1 -8.482-3.511 43.946 43.946 0 0 1 0-62.186 12 12 0 1 1 16.963 16.978 19.946 19.946 0 0 0 0 28.23 12 12 0 0 1 -8.481 20.489z" fill="#90d7d1"/><path d="m51.86 202.51a11.962 11.962 0 0 1 -8.48-3.51 91.858 91.858 0 0 1 0-130 12 12 0 0 1 16.961 16.979 67.861 67.861 0 0 0 0 96.042 12 12 0 0 1 -8.481 20.489z" fill="#afe2de"/></g></g></svg>