<?xml version="1.0"?>
<svg xmlns="http://www.w3.org/2000/svg" xmlns:xlink="http://www.w3.org/1999/xlink" width="512" height="512" viewBox="0 0 128 128"><defs><linearGradient id="a" x1="101.254" y1="101.727" x2="26.746" y2="27.219" gradientUnits="userSpaceOnUse"><stop offset="0" stop-color="#7b49ad"/><stop offset="1" stop-color="#6aa8fb"/></linearGradient></defs><path d="M121.5,55.417a1.75,1.75,0,0,0,1.75-1.75V49.94a1.751,1.751,0,0,0-1.75-1.75h-9.02l-.3-4.644A10.774,10.774,0,0,0,101.45,33.5H26.55A10.774,10.774,0,0,0,15.824,43.546l-.3,4.644H6.5a1.751,1.751,0,0,0-1.75,1.75v24A1.75,1.75,0,0,0,6.5,75.69h7.224l-.48,7.356A10.751,10.751,0,0,0,23.97,94.5H49.43a8.665,8.665,0,0,0,8.337-6.2l1.249-4.179a5.206,5.206,0,0,1,9.967,0l1.252,4.186A8.662,8.662,0,0,0,78.57,94.5h4.763a1.75,1.75,0,0,0,0-3.5H78.57a5.178,5.178,0,0,1-4.983-3.7l-1.252-4.186a8.7,8.7,0,0,0-16.672.006l-1.248,4.174A5.181,5.181,0,0,1,49.43,91H23.97a7.253,7.253,0,0,1-7.234-7.726l2.58-39.5A7.267,7.267,0,0,1,26.55,37h8.835l2.321,7.385a1.749,1.749,0,0,0,1.669,1.225h5.458a1.75,1.75,0,0,0,0-3.5H40.66L39.054,37H88.946L87.34,42.11H52.833a1.75,1.75,0,0,0,0,3.5H88.625a1.749,1.749,0,0,0,1.669-1.225L92.615,37h8.835a7.267,7.267,0,0,1,7.234,6.774l2.58,39.5A7.253,7.253,0,0,1,104.03,91H98.75a1.75,1.75,0,0,0,0,3.5h5.28a10.751,10.751,0,0,0,10.726-11.454l-.48-7.356H121.5a1.75,1.75,0,0,0,1.75-1.75V62.125a1.75,1.75,0,0,0-3.5,0V72.19h-5.7l-1.339-20.5h7.042v1.977A1.75,1.75,0,0,0,121.5,55.417ZM8.25,72.19V51.69h7.042l-1.339,20.5ZM94.641,92.75a1.75,1.75,0,0,1-1.75,1.75H89.9a1.75,1.75,0,0,1,0-3.5h2.991A1.75,1.75,0,0,1,94.641,92.75Zm10.322-13.883-.6-9.127a1.75,1.75,0,0,1,3.492-.228l.6,9.127a1.748,1.748,0,0,1-1.632,1.86c-.039,0-.077,0-.116,0A1.749,1.749,0,0,1,104.963,78.867Z" fill="url(#a)"/></svg>
