<svg height="512pt" viewBox="-22 0 512 512" width="512pt" xmlns="http://www.w3.org/2000/svg"><path d="m241.371094 30.082031c0-4.269531-3.457032-7.726562-7.726563-7.726562-62.40625 0-121.082031 24.300781-165.210937 68.429687-44.128906 44.132813-68.433594 102.804688-68.433594 165.214844 0 4.269531 3.460938 7.726562 7.726562 7.726562 4.269532 0 7.726563-3.457031 7.726563-7.726562 0-120.3125 97.882813-218.191406 218.191406-218.191406 4.269531 0 7.726563-3.460938 7.726563-7.726563zm0 0" fill="#feca57"/><path d="m459.566406 248.273438c-4.269531 0-7.726562 3.457031-7.726562 7.726562 0 120.3125-97.882813 218.191406-218.195313 218.191406-4.265625 0-7.726562 3.460938-7.726562 7.726563 0 4.269531 3.460937 7.726562 7.726562 7.726562 62.410157 0 121.085938-24.300781 165.214844-68.429687 44.128906-44.132813 68.433594-102.804688 68.433594-165.214844 0-4.269531-3.460938-7.726562-7.726563-7.726562zm0 0" fill="#feca57"/><path d="m233.644531 74.613281c-101.042969 0-182.957031 81.910157-182.957031 182.957031 0 101.042969 81.914062 182.957032 182.957031 182.957032 101.046875 0 182.957031-81.914063 182.957031-182.957032 0-101.042968-81.910156-182.957031-182.957031-182.957031zm0 0" fill="#54a0ff"/><path d="m89.207031 257.570312c0-83.253906 52.3125-154.277343 125.859375-182.023437-92.320312 9.308594-164.378906 87.25-164.378906 182.023437 0 94.773438 72.058594 172.710938 164.375 182.023438-73.542969-27.746094-125.855469-98.769531-125.855469-182.023438zm0 0" fill="#338def"/><path d="m424.328125 257.570312c0-105.6875-85.898437-190.683593-190.683594-190.683593-104.738281 0-190.683593 85.050781-190.683593 190.683593 0 104.835938 84.976562 190.683594 190.683593 190.683594 105.082031 0 190.683594-85.375 190.683594-190.683594zm-131.296875 164.859376c20.21875-19.191407 34.578125-46.101563 43.597656-72.847657 9.921875 7.21875 19.148438 15.511719 27.492188 24.820313-18.976563 21.171875-43.175782 37.941406-71.089844 48.027344zm-189.859375-48.027344c8.34375-9.308594 17.570313-17.601563 27.488281-24.820313 9.03125 26.769531 23.394532 53.667969 43.597656 72.847657-26.558593-9.59375-51.175781-25.8125-71.085937-48.027344zm-44.578125-109.105469h57.777344c.582031 23.984375 3.851562 47.199219 9.582031 68.675781-11.824219 8.105469-22.796875 17.597656-32.679687 28.355469-20.472657-27.359375-33.109376-60.824219-34.679688-97.03125zm34.679688-112.488281c9.882812 10.757812 20.851562 20.25 32.679687 28.355468-5.730469 21.476563-9.003906 44.695313-9.582031 68.679688h-57.777344c1.582031-36.277344 14.242188-69.722656 34.679688-97.035156zm80.984374-60.097656c-20.222656 19.195312-34.578124 46.105468-43.597656 72.847656-9.917968-7.21875-19.144531-15.511719-27.488281-24.820313 19.183594-21.402343 43.539063-38.074219 71.085937-48.027343zm234.441407 157.132812h-57.78125c-.578125-23.984375-3.847657-47.203125-9.582031-68.679688 11.828124-8.105468 22.796874-17.597656 32.683593-28.355468 20.433594 27.3125 33.097657 60.757812 34.679688 97.035156zm-34.679688 112.484375c-9.886719-10.753906-20.855469-20.246094-32.679687-28.355469 5.730468-21.476562 9-44.691406 9.582031-68.675781h57.777344c-1.445313 34.132813-13.066407 68.132813-34.679688 97.03125zm-230.003906-21.566406c24.621094-14.671875 52.667969-23.183594 81.902344-24.457031v115.992187c-41.496094-5.441406-69.1875-51.527344-81.902344-91.535156zm-4.324219-15.363281c-4.65625-18.882813-7.332031-39.15625-7.863281-60.101563h94.089844v35.554687c-30.648438 1.230469-60.117188 9.75-86.226563 24.546876zm86.226563-126.5625c-29.234375-1.277344-57.28125-9.785157-81.902344-24.457032 12.695313-39.949218 40.378906-86.089844 81.902344-91.535156zm-86.226563-9.097657c26.109375 14.796875 55.578125 23.316407 86.226563 24.546875v35.558594h-94.089844c.519531-20.445312 3.074219-40.679688 7.863281-60.105469zm183.582032-15.359375c-24.617188 14.671875-52.664063 23.183594-81.902344 24.457032v-115.992188c41.496094 5.441406 69.191406 51.527344 81.902344 91.535156zm4.324218 15.359375c4.78125 19.390625 7.34375 39.625 7.867188 60.105469h-94.09375v-35.558594c30.648437-1.230468 60.117187-9.75 86.226562-24.546875zm-86.226562 126.566407c29.238281 1.273437 57.285156 9.785156 81.902344 24.457031-12.695313 39.949219-40.375 86.089843-81.902344 91.535156zm0-15.453126v-35.554687h94.09375c-.53125 20.945313-3.210938 41.21875-7.867188 60.101563-26.109375-14.796876-55.578125-23.316407-86.226562-24.546876zm122.75-160.113281c-8.34375 9.308594-17.570313 17.601563-27.492188 24.820313-9.023437-26.761719-23.386718-53.660156-43.597656-72.847656 27.546875 9.953124 51.90625 26.625 71.089844 48.027343zm0 0" fill="#8ac2ff"/><path d="m238.292969 8.726562 27.308593 18.921876c1.699219 1.175781 1.699219 3.691406 0 4.867187l-27.308593 18.921875c-1.964844 1.359375-4.648438-.046875-4.648438-2.4375v-37.839844c0-2.386718 2.683594-3.792968 4.648438-2.433594zm0 0" fill="#feca57"/><path d="m228.996094 460.308594-27.304688 18.917968c-1.699218 1.179688-1.699218 3.691407 0 4.867188l27.304688 18.921875c1.964844 1.359375 4.648437-.046875 4.648437-2.433594v-37.839843c0-2.390626-2.683593-3.796876-4.648437-2.433594zm0 0" fill="#feca57"/><path d="m253.5625 19.308594-15.269531-10.582032c-1.964844-1.359374-4.648438.046876-4.648438 2.433594v37.839844c0 2.390625 2.683594 3.796875 4.648438 2.433594l15.269531-10.578125zm0 0" fill="#f4b537"/><path d="m221.609375 484.09375c-1.699219-1.175781-1.699219-3.691406 0-4.867188l12.035156-8.339843v-8.144531c0-2.390626-2.683593-3.796876-4.648437-2.433594l-27.304688 18.917968c-1.699218 1.179688-1.699218 3.691407 0 4.867188l27.304688 18.921875c1.964844 1.359375 4.648437-.046875 4.648437-2.433594v-8.148437zm0 0" fill="#f4b537"/><path d="m431.539062 30.253906c0-9.359375 0-15.347656 0-16.070312 0-7.800782-6.382812-14.183594-14.1875-14.183594h-85.933593c-7.800781 0-14.183594 6.382812-14.183594 14.183594v16.070312zm0 0" fill="#576574"/><path d="m317.234375 155.632812v34.121094c0 1.402344.207031 2.753906.589844 4.035156 2.304687 6.722657 7.570312 10.148438 13.59375 10.148438h85.933593c6.410157 0 11.964844-4.441406 13.59375-10.148438.382813-1.28125.589844-2.632812.589844-4.035156 0-1.46875 0-15.074218 0-34.121094zm0 0" fill="#576574"/><path d="m348.140625 30.253906c0-9.359375 0-15.34375 0-16.070312 0-7.800782 6.382813-14.183594 14.183594-14.183594h-30.90625c-7.800781 0-14.183594 6.382812-14.183594 14.183594v16.070312zm0 0" fill="#3e4b5a"/><path d="m348.734375 193.789062c-.382813-1.277343-.59375-2.632812-.59375-4.035156 0-1.460937 0-15.070312 0-34.121094h-30.90625v34.121094c0 1.402344.207031 2.757813.589844 4.035156 2.304687 6.722657 7.574219 10.152344 13.59375 10.152344h30.90625c-6.019531-.003906-11.289063-3.429687-13.589844-10.152344zm0 0" fill="#3e4b5a"/><path d="m317.234375 158.363281h114.304687c0-38.851562 0-103.121093 0-130.839843h-114.304687zm0 0" fill="#e4eaf8"/><path d="m317.234375 158.363281h30.90625c0-38.851562 0-103.121093 0-130.839843h-30.90625zm0 0" fill="#c7d2e5"/><path d="m382.21875 180.6875c0 4.324219-3.507812 7.832031-7.832031 7.832031-4.328125 0-7.835938-3.507812-7.835938-7.832031 0-4.328125 3.507813-7.835938 7.835938-7.835938 4.324219 0 7.832031 3.507813 7.832031 7.835938zm0 0" fill="#3e4b5a"/><path d="m162.636719 409.789062c3.636719 4.484376 7.5 8.730469 11.621093 12.640626-26.558593-9.59375-51.175781-25.8125-71.089843-48.027344 4.710937-5.253906 9.710937-10.171875 14.949219-14.769532-2.753907-4.460937-5.34375-9.039062-7.738282-13.734374-5.996094 5.09375-11.71875 10.566406-17.105468 16.429687-20.472657-27.359375-33.109376-60.824219-34.679688-97.03125h30.78125c-.101562-2.566406-.167969-5.136719-.167969-7.726563 0-2.589843.066407-5.164062.167969-7.726562h-30.78125c1.582031-36.277344 14.242188-69.722656 34.679688-97.035156 5.386718 5.867187 11.109374 11.339844 17.105468 16.429687 2.394532-4.691406 4.984375-9.269531 7.738282-13.730469-5.238282-4.597656-10.238282-9.515624-14.949219-14.769531 19.1875-21.402343 43.542969-38.074219 71.089843-48.027343-4.121093 3.910156-7.984374 8.15625-11.621093 12.640624 23.3125-18.566406 50.984375-31.890624 81.234375-38.1875-3.386719-.179687-6.796875-.277343-10.226563-.277343-104.742187 0-190.683593 85.054687-190.683593 190.683593 0 104.835938 84.976562 190.6875 190.683593 190.6875 3.429688 0 6.84375-.097656 10.230469-.277343-30.25-6.296875-57.921875-19.625-81.238281-38.191407zm0 0" fill="#54a0ff"/><path d="m150.058594 338.3125c0-9.359375 0-15.34375 0-16.066406 0-7.800782-6.382813-14.183594-14.1875-14.183594h-85.933594c-7.800781 0-14.183594 6.382812-14.183594 14.183594v16.066406zm0 0" fill="#576574"/><path d="m35.753906 463.691406v34.121094c0 1.402344.207032 2.757812.589844 4.039062 2.304688 6.71875 7.574219 10.148438 13.59375 10.148438h85.933594c6.410156 0 11.964844-4.441406 13.59375-10.148438.382812-1.28125.59375-2.636718.59375-4.035156 0-1.46875 0-15.074218 0-34.125zm0 0" fill="#576574"/><path d="m66.660156 338.3125c0-9.359375 0-15.34375 0-16.066406 0-7.800782 6.382813-14.183594 14.1875-14.183594h-30.910156c-7.800781 0-14.183594 6.382812-14.183594 14.183594v16.066406zm0 0" fill="#3e4b5a"/><path d="m67.253906 501.851562c-.382812-1.28125-.59375-2.636718-.59375-4.035156 0-1.464844 0-15.074218 0-34.125h-30.90625v34.125c0 1.398438.207032 2.753906.589844 4.035156 2.304688 6.71875 7.574219 10.148438 13.59375 10.148438h30.910156c-6.023437 0-11.289062-3.429688-13.59375-10.148438zm0 0" fill="#3e4b5a"/><path d="m35.753906 466.421875h114.304688c0-38.851563 0-103.117187 0-130.839844h-114.304688zm0 0" fill="#e4eaf8"/><path d="m35.753906 466.421875h30.90625c0-38.851563 0-103.117187 0-130.839844h-30.90625zm0 0" fill="#c7d2e5"/><path d="m100.738281 488.746094c0 4.328125-3.503906 7.835937-7.832031 7.835937s-7.835938-3.507812-7.835938-7.835937c0-4.324219 3.507813-7.832032 7.835938-7.832032s7.832031 3.507813 7.832031 7.832032zm0 0" fill="#3e4b5a"/></svg>